<?xml version="1.0" encoding="UTF-8"?>
<svg width="24px" height="24px" viewBox="0 0 24 24" version="1.1" xmlns="http://www.w3.org/2000/svg" xmlns:xlink="http://www.w3.org/1999/xlink">
    <title>youtube</title>
    <g id="youtube" stroke="none" fill="none" fill-rule="evenodd" stroke-linecap="round" stroke-linejoin="round" stroke-width="1">
        <g id="Group" transform="translate(0.9994, 4)" stroke="#9095BE">
            <path d="M21.5405716,2.42 C21.2987824,1.45399138 20.5587699,0.691091858 19.6005716,0.42 C17.8805716,0 11.0005716,0 11.0005716,0 C11.0005716,0 4.12057164,0 2.40057164,0.46 C1.4423734,0.731091858 0.70236086,1.49399138 0.460571645,2.46 C0.145786202,4.20555551 -0.00819242813,5.97630975 0.00057164465,7.75 C-0.0106490612,9.53704498 0.143339332,11.3213018 0.460571645,13.08 C0.726921949,14.0152563 1.4626055,14.7433555 2.40057164,15 C4.12057164,15.46 11.0005716,15.46 11.0005716,15.46 C11.0005716,15.46 17.8805716,15.46 19.6005716,15 C20.5587699,14.7289081 21.2987824,13.9660086 21.5405716,13 C21.8529288,11.2675885 22.0068977,9.51033425 22.0005716,7.75 C22.0117924,5.96295502 21.857804,4.1786982 21.5405716,2.42 Z" id="Path" stroke-width="2"></path>
            <polygon id="Path" stroke-width="2" points="8.75057164 11.02 14.5005716 7.75 8.75057164 4.48"></polygon>
        </g>
    </g>
</svg>