<?xml version="1.0" encoding="UTF-8"?>
<svg width="246px" height="139px" viewBox="0 0 246 139" version="1.1" xmlns="http://www.w3.org/2000/svg" xmlns:xlink="http://www.w3.org/1999/xlink">
    <title>NEW logo_urbino musica antica</title>
    <g id="NEW-logo_urbino-musica-antica" stroke="none" fill="none" fill-rule="evenodd" stroke-width="1">
        <g id="svg1" transform="translate(0, 0.0047)" fill="#FFFFFF">
            <path d="M50.2156268,18.4725438 L50.2156268,39.7111047 L48.7756971,39.7111047 L39.7325789,36.6395956 L39.7325789,35.6738241 L43.8222191,32.5561002 L43.8222191,18.96645 C42.8880647,18.0748592 41.9379512,17.3866136 40.9713984,16.9033724 C39.6848212,16.2575497 38.2739302,15.9359418 36.7374052,15.9359418 C34.7795809,15.9359418 33.3874089,16.4658719 32.5624492,17.5282206 C31.7360496,18.5891474 31.3236297,20.3726845 31.3236297,22.8745661 L31.3236297,39.7111047 L29.8837001,39.7111047 L21.0715706,36.6395956 L21.0715706,35.6169443 L24.9302221,32.602315 L24.9302221,21.1688832 C24.9302221,17.8314611 25.6792255,15.31927 27.1767523,13.631599 C28.6743991,11.944876 30.8820513,11.1010405 33.8009087,11.1010405 C35.6818168,11.1010405 37.3809338,11.4990806 38.8982597,12.2952793 C40.4146256,13.0914779 42.0753444,14.4190287 43.8799363,16.2769836 L44.3415537,16.2769836 L46.0688693,11.1574463 L47.2204531,11.1574463 L53.9022066,14.627351 L53.9022066,15.5947815 L50.2156268,18.4725438" id="path2" transform="translate(37.4869, 25.4061) scale(-1, 1) rotate(-180) translate(-37.4869, -25.4061)"></path>
            <path d="M64.2578207,27.2535995 L63.9118776,33.0564054 C64.7181182,34.1928163 65.6297137,35.2071727 66.6483439,36.0982896 C67.6640943,36.9894064 68.7013236,37.6921089 69.758352,38.2028421 C70.8139404,38.7147602 71.7832531,38.9719043 72.6667699,38.9719043 C73.319178,38.9719043 73.8371927,38.9138395 74.221534,38.8000799 C74.5674771,38.6875053 74.7394287,38.4398412 74.7394287,38.0606426 C74.8168249,37.1505658 74.8449035,36.1741293 74.8261844,35.132518 C74.8065054,34.0885367 74.7394287,33.1121002 74.6245943,32.2032084 C74.547318,31.7090652 74.2589721,31.5206508 73.7612364,31.6332254 C73.5301277,31.6699603 73.2419018,31.7090652 72.8973987,31.746985 C72.5519355,31.7849049 72.1863134,31.8038648 71.8029321,31.8038648 C70.9582934,31.8038648 70.0841361,31.6237455 69.1817802,31.2646918 C68.2794243,30.903268 67.4155865,30.3830549 66.5896668,29.7004973 C65.7633872,29.0167548 64.9866651,28.2011222 64.2578207,27.2535995 Z M58.7277709,10.3035383 C58.3049116,10.3035383 58.0940819,10.5317685 58.0940819,10.9863329 L58.0940819,31.2919467 C58.0940819,32.4295426 58.0658832,33.5102588 58.008286,34.5352801 C57.9510488,35.5579315 57.8442541,36.5628079 57.6909016,37.5487244 C57.6136253,38.0416826 57.8442541,38.2893468 58.3823078,38.2893468 L63.2204714,38.2893468 C63.6423708,38.2893468 63.8921986,38.0973774 63.9694748,37.7193638 C64.1228273,37.0368062 64.2376617,36.259449 64.3149379,35.3872921 C64.3913742,34.5151352 64.4297723,33.738963 64.4297723,33.0564054 L64.8905498,29.7561921 L64.8905498,10.9863329 C64.8905498,10.5317685 64.660881,10.3035383 64.2001036,10.3035383 L58.7277709,10.3035383" id="path3" fill-rule="nonzero" transform="translate(66.2541, 24.6377) scale(-1, 1) rotate(-180) translate(-66.2541, -24.6377)"></path>
            <path d="M91.4542521,0.122054566 C89.9941634,0.122054566 88.6409895,0.207729761 87.3941304,0.378013655 C86.1459514,0.549364045 84.8780933,0.729838903 83.5928361,0.918253233 C82.306139,1.10808956 80.8750889,1.25988752 79.3016058,1.37423961 L79.3016058,38.9709563 C79.3016058,39.4259947 79.5125555,39.6546989 79.9352948,39.6546989 L85.4067875,39.6546989 C85.867085,39.6546989 86.0981937,39.4259947 86.0981937,38.9709563 L86.0981937,6.2660207 C86.8270381,6.11327475 87.6050801,5.99062768 88.4309998,5.89570952 C89.2559595,5.80079136 90.0331615,5.75315453 90.7629658,5.75315453 C92.8370645,5.75315453 94.3721495,6.29374961 95.3705007,7.37458426 C96.368852,8.45553741 96.8680276,10.0764931 96.8680276,12.2381625 L96.8680276,18.2673025 C96.8680276,20.1247834 96.5423635,21.4887135 95.8898354,22.3632404 C95.2359873,23.2342123 94.218797,23.6702908 92.8370645,23.6702908 C91.7229189,23.6702908 90.5800948,23.3479719 89.409672,22.7045192 C88.2379292,22.0586965 86.78948,20.9779804 85.0608444,19.4611858 L85.2342359,24.9216463 C86.9231534,26.5154657 88.5739128,27.6708365 90.1878339,28.392499 C91.8001952,29.1117914 93.4697936,29.4732151 95.1984292,29.4732151 C98.0000523,29.4732151 100.113029,28.6472731 101.53424,26.9977589 C102.95449,25.3482448 103.664616,22.8170938 103.664616,19.405491 L103.664616,11.6688905 C103.664616,7.80141974 102.666264,4.90979303 100.669442,2.99436585 C98.6727394,1.07929416 95.6016095,0.122054566 91.4542521,0.122054566" id="path4" transform="translate(91.4831, 19.8884) scale(-1, 1) rotate(-180) translate(-91.4831, -19.8884)"></path>
            <path d="M110.243654,0 C109.820435,0 109.609485,0.228230188 109.609485,0.68279457 L109.609485,26.1170701 C109.609485,26.5721085 109.820435,26.8008126 110.243654,26.8008126 L115.714667,26.8008126 C116.175444,26.8008126 116.406073,26.5721085 116.406073,26.1170701 L116.406073,0.68279457 C116.406073,0.228230188 116.175444,0 115.714667,0 L110.243654,0 Z M113.006399,30.8392783 C111.701463,30.8392783 110.711991,31.1793721 110.040744,31.8619296 C109.368057,32.5444872 109.031593,33.4178291 109.031593,34.4784003 L109.031593,35.3327823 C109.031593,36.4312734 109.368057,37.3129102 110.040744,37.9765079 C110.711991,38.6401055 111.701463,38.9719043 113.006399,38.9719043 C114.311815,38.9719043 115.290488,38.6401055 115.944336,37.9765079 C116.595904,37.3129102 116.922528,36.4312734 116.922528,35.3327823 L116.922528,34.4784003 C116.922528,33.4178291 116.595904,32.5444872 115.944336,31.8619296 C115.290488,31.1793721 114.311815,30.8392783 113.006399,30.8392783" id="path5" fill-rule="nonzero" transform="translate(112.9771, 19.486) scale(-1, 1) rotate(-180) translate(-112.9771, -19.486)"></path>
            <path d="M141.661479,10.3035383 C141.200702,10.3035383 140.969113,10.5317685 140.969113,10.9863329 L140.969113,28.5057846 C140.969113,30.0986559 140.642729,31.2729867 139.989961,32.031384 C139.337193,32.7897813 138.338842,33.16898 136.996107,33.16898 C135.650973,33.16898 134.335837,32.7803014 133.0507,32.0029441 C131.763163,31.2255869 130.294435,30.0216312 128.644515,28.3909585 L128.414126,33.3408044 C129.526472,34.5151352 130.649617,35.5200116 131.782362,36.3554336 C132.915107,37.1884857 134.095849,37.8343084 135.324589,38.2893468 C136.553329,38.7432001 137.897263,38.9719043 139.357592,38.9719043 C142.121057,38.9719043 144.214954,38.2028421 145.634485,36.6670875 C147.055216,35.132518 147.765581,32.7708214 147.765581,29.5867377 L147.765581,10.9863329 C147.765581,10.5317685 147.535192,10.3035383 147.074415,10.3035383 L141.661479,10.3035383 Z M123.574763,10.3035383 C123.152383,10.3035383 122.941194,10.5317685 122.941194,10.9863329 L122.941194,31.1793721 C122.941194,32.2399433 122.893196,33.3585793 122.798401,34.5352801 C122.701206,35.7096109 122.61601,36.6967124 122.538013,37.4930296 C122.461217,38.0227227 122.691606,38.2893468 123.22918,38.2893468 L128.067343,38.2893468 C128.451325,38.2893468 128.702112,38.0796025 128.816107,37.662484 C128.892903,37.3579401 128.969699,36.9135667 129.047695,36.3258087 C129.123292,35.7380508 129.200088,35.121853 129.276884,34.4784003 C129.353681,33.8325776 129.393279,33.2637796 129.393279,32.7708214 L129.737662,30.4956295 L129.737662,10.9863329 C129.737662,10.5317685 129.508473,10.3035383 129.047695,10.3035383 L123.574763,10.3035383" id="path6" fill-rule="nonzero" transform="translate(135.1446, 24.6377) scale(-1, 1) rotate(-180) translate(-135.1446, -24.6377)"></path>
            <path d="M166.284276,16.0494644 C168.357775,16.0494644 169.855302,16.5701515 170.775657,17.6125923 C171.698412,18.6555071 172.159189,20.2950673 172.159189,22.5330503 L172.159189,27.4249499 C172.159189,29.6616295 171.698412,31.3016636 170.775657,32.3456449 C169.855302,33.3872562 168.357775,33.9086543 166.284276,33.9086543 C164.210778,33.9086543 162.703651,33.3872562 161.762897,32.3456449 C160.820943,31.3016636 160.351766,29.6616295 160.351766,27.4249499 L160.351766,22.5330503 C160.351766,20.2950673 160.820943,18.6555071 161.762897,17.6125923 C162.703651,16.5701515 164.210778,16.0494644 166.284276,16.0494644 L166.284276,16.0494644 Z M166.284276,10.3035383 C162.214075,10.3035383 159.073829,11.2607779 156.865936,13.1758496 C154.659244,15.0912768 153.555298,18.0013894 153.555298,21.907254 L153.555298,28.0507462 C153.555298,31.9178614 154.649645,34.8199161 156.838338,36.7526442 C159.025831,38.6865573 162.174477,39.6546989 166.284276,39.6546989 C170.353278,39.6546989 173.483925,38.6865573 175.671418,36.7526442 C177.861311,34.8199161 178.955657,31.9178614 178.955657,28.0507462 L178.955657,21.907254 C178.955657,18.0013894 177.86971,15.0912768 175.701416,13.1758496 C173.530722,11.2607779 170.392876,10.3035383 166.284276,10.3035383" id="path7" fill-rule="nonzero" transform="translate(166.2555, 24.9791) scale(-1, 1) rotate(-180) translate(-166.2555, -24.9791)"></path>
            <path d="M49.1882369,62.0745821 L49.1882369,76.3320959 C49.1882369,79.5930858 48.410195,82.0857244 46.8553109,83.8114338 C45.3001869,85.5366691 43.0446571,86.3999386 40.0878815,86.3999386 C38.0910591,86.3999386 36.2475892,85.9912335 34.5578317,85.1765489 C32.8680743,84.3609163 31.1399187,83.0055182 29.3751649,81.1099989 L29.1501759,81.1099989 C28.7723143,82.1533877 28.2581395,83.0591985 27.5892921,83.8114338 C26.0527672,85.5366691 23.8643141,86.3999386 21.0233329,86.3999386 C18.9866724,86.3999386 17.172721,86.00178 15.5805188,85.2056998 C13.9868767,84.4080792 12.2876397,83.043912 10.4830839,81.1099989 L10.1948099,81.1099989 L10.4830839,85.9439522 L9.04268623,85.9439522 L0,82.3612359 L0,81.3938054 L4.14682941,77.9039928 L4.14682941,62.1218635 L0.11483811,58.9260483 L0.11483811,58.0734439 L14.4568937,58.0734439 L14.4568937,58.9260483 L10.540741,62.0959121 L10.540741,78.4233765 C12.751777,80.5526954 15.2468151,81.6215616 18.0281592,81.6215616 C19.9475855,81.6215616 21.3402374,81.0618881 22.2035953,79.943489 C23.0669531,78.8247345 23.4996519,77.0518623 23.4996519,74.624991 L23.4996519,62.1250629 L19.6982377,58.9260483 L19.6982377,58.0734439 L33.7515911,58.0734439 L33.7515911,58.9260483 L29.8930596,62.0492232 L29.8930596,74.7396986 L29.8930596,76.3320959 L29.8930596,78.8478419 C30.6927005,79.5181941 31.5513786,80.0911395 32.485173,80.5406084 C33.9826998,81.2604934 35.5374638,81.6215616 37.150425,81.6215616 C39.1082494,81.6215616 40.5392995,81.0618881 41.4410554,79.943489 C42.3438913,78.8247345 42.7948293,77.0518623 42.7948293,74.624991 L42.7948293,62.0764781 L39.0506522,58.9260483 L39.0506522,58.0734439 L53.22016,58.0734439 L53.22016,58.9260483 L49.1882369,62.0745821" id="path8" transform="translate(26.6101, 72.2367) scale(-1, 1) rotate(-180) translate(-26.6101, -72.2367)"></path>
            <path d="M75.5901871,59.0973987 C75.1298896,59.0973987 74.8603828,59.305721 74.7839465,59.723195 C74.6691121,60.4050416 74.5627973,61.125756 74.466682,61.8839163 C74.3705667,62.6431431 74.3039699,63.4008294 74.2650918,64.1599377 L73.7471971,67.0599779 L73.7471971,86.3994646 C73.7471971,86.854503 73.9783058,87.0827331 74.4386034,87.0827331 L79.9094961,87.0827331 C80.3328354,87.0827331 80.5436651,86.854503 80.5436651,86.3994646 L80.5436651,66.2073734 C80.5436651,65.1066308 80.5733037,64.0178567 80.6304209,62.9370221 C80.688138,61.8561874 80.7936129,60.8040296 80.9468454,59.7800748 C81.0232817,59.3251549 80.7936129,59.0973987 80.2554392,59.0973987 L75.5901871,59.0973987 Z M64.1860642,58.4146042 C61.6516681,58.4146042 59.7308019,59.2015598 58.4268256,60.7753528 C57.1199694,62.3477237 56.4675613,64.6899863 56.4675613,67.7996523 L56.4675613,86.3994646 C56.4675613,86.854503 56.678511,87.0827331 57.1012504,87.0827331 L62.574183,87.0827331 C63.0344805,87.0827331 63.2641493,86.854503 63.2641493,86.3994646 L63.2641493,68.8804869 C63.2641493,67.2882081 63.5430157,66.1124553 64.0994285,65.354295 C64.6562013,64.5950682 65.5293986,64.216936 66.7209404,64.216936 C67.9879585,64.216936 69.2638562,64.6229156 70.5504333,65.4389037 C71.8371304,66.2545363 73.2868996,67.4766224 74.8989009,69.1082431 L75.1298896,64.1021099 C74.015264,63.0027893 72.8917589,62.0261158 71.7597342,61.1733928 C70.6268696,60.3203144 69.4358078,59.6467628 68.1890687,59.1538045 C66.9412496,58.6622683 65.6063149,58.4146042 64.1860642,58.4146042" id="path9" fill-rule="nonzero" transform="translate(68.7144, 72.7487) scale(-1, 1) rotate(-180) translate(-68.7144, -72.7487)"></path>
            <path d="M96.9060657,57.7322836 C93.1041715,57.7322836 90.3120279,58.4714839 88.5261551,59.9504772 C86.7402824,61.4293519 85.9045232,63.7230298 86.0207975,66.8326957 C86.0207975,67.2501697 86.2504663,67.458492 86.7122037,67.458492 L91.8948705,67.458492 C92.2782518,67.458492 92.4719224,67.2501697 92.4719224,66.8326957 C92.4719224,65.4680546 92.8361046,64.4627041 93.5663889,63.8179479 C94.2947533,63.1735472 95.4093788,62.8518209 96.9060657,62.8518209 C98.4809888,62.8518209 99.6514116,63.098063 100.420094,63.5910212 C101.187457,64.08315 101.572278,64.8422583 101.572278,65.8662131 C101.572278,66.5859796 101.32149,67.2030069 100.823154,67.7144511 C100.323979,68.2269617 99.5168982,68.710677 98.4031126,69.1655969 L91.8377533,71.8953532 C89.8409309,72.7285237 88.4113207,73.7158622 87.546523,74.8532212 C86.6831652,75.9909356 86.2504663,77.4699288 86.2504663,79.2899639 C86.2504663,81.8682777 87.1044646,83.8114338 88.814381,85.1200246 C90.5220176,86.4276675 93.1628486,87.0827331 96.7335142,87.0827331 C100.381696,87.0827331 103.127042,86.4004126 104.970512,85.0343494 C106.813502,83.6688788 107.734577,81.6784414 107.734577,79.0622077 C107.734577,78.6442597 107.503468,78.4373594 107.04317,78.4373594 L101.860504,78.4373594 C101.398286,78.4373594 101.168617,78.7390593 101.168617,79.3468437 C101.168617,80.1801327 100.802995,80.8350799 100.074151,81.3095522 C99.3443466,81.7826025 98.3263163,82.0200757 97.0218601,82.0200757 C95.6766058,82.0200757 94.6790945,81.7918455 94.0266864,81.3372811 C93.3728383,80.8822427 93.0470543,80.1995666 93.0470543,79.2899639 C93.0470543,78.6071693 93.2485244,78.0762912 93.6517047,77.6975665 C94.054765,77.3180124 94.8516461,76.8820524 96.0422279,76.3889757 L102.609027,73.6588639 C104.643288,72.8247454 106.111896,71.8281639 107.015092,70.672319 C107.916488,69.5151707 108.368266,68.0084485 108.368266,66.1508491 C108.368266,63.3818695 107.388634,61.2872709 105.430809,59.864802 C103.472505,58.443755 100.629604,57.7322836 96.9060657,57.7322836" id="path10" transform="translate(97.1892, 72.4075) scale(-1, 1) rotate(-180) translate(-97.1892, -72.4075)"></path>
            <path d="M114.178622,47.4283897 C113.755883,47.4283897 113.544933,47.6561459 113.544933,48.1110658 L113.544933,73.5454598 C113.544933,74.0004982 113.755883,74.2282544 114.178622,74.2282544 L119.650115,74.2282544 C120.110532,74.2282544 120.340921,74.0004982 120.340921,73.5454598 L120.340921,48.1110658 C120.340921,47.6561459 120.110532,47.4283897 119.650115,47.4283897 L114.178622,47.4283897 Z M116.943167,78.267431 C115.637751,78.267431 114.648759,78.6076433 113.977032,79.2899639 C113.304945,79.9726399 112.968361,80.8452708 112.968361,81.9066716 L112.968361,82.760698 C112.968361,83.8600186 113.304945,84.7404705 113.977032,85.4046606 C114.648759,86.0680213 115.637751,86.3999386 116.943167,86.3999386 C118.248583,86.3999386 119.226775,86.0680213 119.880743,85.4046606 C120.532911,84.7404705 120.859296,83.8600186 120.859296,82.760698 L120.859296,81.9066716 C120.859296,80.8452708 120.532911,79.9726399 119.880743,79.2899639 C119.226775,78.6076433 118.248583,78.267431 116.943167,78.267431" id="path11" fill-rule="nonzero" transform="translate(116.9138, 66.9142) scale(-1, 1) rotate(-180) translate(-116.9138, -66.9142)"></path>
            <path d="M138.697624,57.7322836 C134.627423,57.7322836 131.507575,58.7182001 129.338081,60.6901516 C127.168587,62.662103 126.08384,65.5051449 126.08384,69.2221212 L126.08384,75.6493013 C126.08384,79.3269357 127.178187,82.1529137 129.36808,84.1248652 C131.555573,86.0958687 134.68502,87.0827331 138.755221,87.0827331 C141.326696,87.0827331 143.49739,86.6743836 145.264903,85.859699 C147.028817,85.0437109 148.373951,83.9442718 149.295506,82.5603152 C150.218261,81.1752922 150.639441,79.5932043 150.563844,77.8109706 C150.524246,77.0148905 150.293858,76.6167319 149.871478,76.6167319 L144.687731,76.6167319 C144.265352,76.6167319 144.054162,76.9199723 144.054162,77.5263346 C144.054162,78.7390593 143.583785,79.677813 142.643031,80.3421216 C141.702277,81.0050083 140.42554,81.3372811 138.814018,81.3372811 C136.816116,81.3372811 135.328189,80.8350799 134.349036,79.8305589 C133.369884,78.8247345 132.880308,77.2036603 132.880308,74.9666253 L132.880308,69.8483915 C132.880308,67.6483283 133.369884,66.04574 134.349036,65.0413376 C135.328189,64.0368166 136.796917,63.5346154 138.755221,63.5346154 C140.444739,63.5346154 141.740675,63.8840707 142.643031,64.5862992 C143.545387,65.2875797 143.996565,66.1879395 143.996565,67.2886821 C143.996565,67.8566506 144.207755,68.1412865 144.630134,68.1412865 L149.815081,68.1412865 C150.23626,68.1412865 150.466649,67.9329643 150.505047,67.5154903 C150.581843,64.5576223 149.62069,62.1876307 147.625188,60.4055156 C145.628485,58.6234004 142.652631,57.7322836 138.697624,57.7322836" id="path12" transform="translate(138.3282, 72.4075) scale(-1, 1) rotate(-180) translate(-138.3282, -72.4075)"></path>
            <path d="M173.525923,58.4150781 C173.295534,58.4150781 173.132342,58.4807269 173.036346,58.6140389 C172.940351,58.7460475 172.853955,58.9265223 172.777159,59.1542785 C172.700363,59.5328847 172.604368,60.1865283 172.489173,61.116987 C172.373979,62.0450757 172.277983,62.9083452 172.201187,63.7044253 L171.798007,66.036497 L171.798007,77.4129306 C171.798007,79.0053279 171.471623,80.1337994 170.818855,80.796686 C170.166087,81.4599282 169.033342,81.7918455 167.420621,81.7918455 C164.502363,81.7918455 163.080433,80.7494047 163.159629,78.6641676 C163.159629,78.2091292 162.947239,77.981373 162.52486,77.981373 L157.341113,77.981373 C156.880336,77.981373 156.629548,78.3225333 156.59235,79.0053279 C156.363161,81.5456033 157.235518,83.5277458 159.214222,84.9487927 C161.190525,86.3712617 164.022387,87.0827331 167.709807,87.0827331 C171.471623,87.0827331 174.225488,86.2855865 175.973803,84.6933076 C177.720918,83.1009103 178.594475,80.6360006 178.594475,77.2985785 L178.594475,65.4680546 C178.594475,64.2543819 178.623273,63.1166674 178.680871,62.0556222 C178.738468,60.993392 178.824864,60.0259614 178.940058,59.1542785 C179.016854,58.6613203 178.805665,58.4150781 178.307689,58.4150781 L173.525923,58.4150781 Z M162.52486,57.7322836 C160.220973,57.7322836 158.454659,58.4150781 157.225919,59.7805488 C155.997179,61.1447159 155.382809,63.098063 155.382809,65.6384569 C155.382809,67.6102899 155.76679,69.2119302 156.534753,70.4455108 C157.302715,71.67684 158.560254,72.6442705 160.308568,73.345551 C162.054483,74.0468315 164.387169,74.5120609 167.305426,74.7396986 L172.663165,75.1947369 L172.663165,71.0991545 L167.881398,70.7009959 C165.654307,70.5103301 164.117182,70.0936856 163.273623,69.4489294 C162.428865,68.8046472 162.007685,67.7617324 162.007685,66.3212515 C162.007685,65.2203904 162.236874,64.3964629 162.697652,63.8470988 C163.159629,63.2971423 163.867594,63.0217493 164.828747,63.0217493 C165.980691,63.0217493 167.151834,63.3920604 168.342176,64.1317348 C169.532518,64.8709352 171.028845,66.1879395 172.834756,68.0847622 L173.066345,63.5346154 C171.914401,62.2824304 170.780457,61.2210297 169.666911,60.3485173 C168.553365,59.4760049 167.420621,58.8223612 166.268677,58.3859273 C165.116733,57.9507968 163.867594,57.7322836 162.52486,57.7322836" id="path13" fill-rule="nonzero" transform="translate(167.1691, 72.4075) scale(-1, 1) rotate(-180) translate(-167.1691, -72.4075)"></path>
            <path d="M37.1433454,112.251866 C35.7216548,112.251866 34.5887902,112.611986 33.7451114,113.332238 C32.8999927,114.052965 32.4780933,115.038917 32.4780933,116.291493 C32.4780933,117.844892 33.0827438,119.057261 34.2920447,119.930247 C35.5013456,120.80276 37.622362,121.598959 40.6564138,122.319199 L44.6884568,123.325497 L44.6884568,114.853761 C42.6414768,113.120243 40.1262797,112.251866 37.1433454,112.251866 L37.1433454,112.251866 Z M51.0818644,115.204626 L51.0818644,126.983816 C51.0818644,130.282726 50.0249561,132.756879 47.9132992,134.407104 C45.8016424,136.056381 42.6532362,136.881257 38.4684407,136.881257 C37.008352,136.881257 35.5590628,136.766905 34.1200931,136.540096 C32.6796835,136.311866 31.3157101,135.98931 30.0304529,135.572666 C28.7437557,135.154718 27.6010516,134.643155 26.6025804,134.036793 L29.6554712,127.438381 L30.7499377,127.438381 L35.0208891,132.971719 C35.9551634,133.332787 36.9301158,133.525349 37.949586,133.525349 C40.1759572,133.525349 41.8563551,132.879526 42.9893398,131.591791 C44.1081651,130.316617 44.6702177,128.445153 44.683777,125.985813 L38.0067032,124.880449 C29.9436971,123.550528 25.9112941,120.34784 25.9112941,115.266199 C25.9112941,113.067013 26.7080552,111.275169 28.3016973,109.891129 C29.8954595,108.50709 31.9390796,107.815064 34.4363976,107.815064 C36.5480545,107.815064 38.4394021,108.185849 40.1090005,108.924149 C41.7800389,109.663847 43.3446424,110.791904 44.8032912,112.308793 L45.3226258,112.308793 L46.935107,107.872003 L48.0295736,107.872003 L54.8260415,111.341825 L54.8260415,112.308793 L51.0818644,115.204626" id="path14" fill-rule="nonzero" transform="translate(40.3687, 122.3482) scale(-1, 1) rotate(-180) translate(-40.3687, -122.3482)"></path>
            <path d="M77.679765,107.47343 C77.2189875,107.47343 76.9884788,107.70256 76.9884788,108.156189 L76.9884788,125.676138 C76.9884788,127.268417 76.6617347,128.442748 76.0088466,129.201856 C75.3558385,129.960135 74.3579673,130.339689 73.0145129,130.339689 C71.6692587,130.339689 70.3544829,129.950892 69.0692257,129.173179 C67.7812086,128.395585 66.3132003,127.191985 64.6632809,125.561312 L64.4326522,130.510921 C65.5453578,131.685252 66.668503,132.689773 67.8013676,133.525313 C68.9333923,134.358484 70.1144946,135.004188 71.3440745,135.459226 C72.5720945,135.913791 73.9159089,136.142021 75.3759976,136.142021 C78.1400625,136.142021 80.2334803,135.373551 81.6536109,133.837796 C83.0738615,132.302279 83.7849467,129.941649 83.7849467,126.756973 L83.7849467,108.156189 C83.7849467,107.70256 83.553838,107.47343 83.0935405,107.47343 L77.679765,107.47343 Z M59.5940086,107.47343 C59.1706693,107.47343 58.9597196,107.70256 58.9597196,108.156189 L58.9597196,128.349251 C58.9597196,129.410178 58.9119619,130.529525 58.8172865,131.70516 C58.7197313,132.879609 58.6345355,133.866947 58.5566593,134.663027 C58.479743,135.193076 58.7103717,135.459226 59.2485455,135.459226 L64.0867091,135.459226 C64.4696104,135.459226 64.7203981,135.2496 64.8352325,134.832956 C64.9116688,134.528886 64.989065,134.084513 65.0663412,133.496636 C65.1427775,132.90876 65.2187338,132.291732 65.29601,131.64828 C65.3724463,131.002576 65.4122843,130.434607 65.4122843,129.941649 L65.7563075,127.666457 L65.7563075,108.156189 C65.7563075,107.70256 65.5271187,107.47343 65.0663412,107.47343 L59.5940086,107.47343" id="path15" fill-rule="nonzero" transform="translate(71.1636, 121.8077) scale(-1, 1) rotate(-180) translate(-71.1636, -121.8077)"></path>
            <path d="M102.272924,100.705089 C100.046552,100.705089 98.2700391,101.046238 96.9459038,101.728997 C95.6203285,102.411305 94.6608554,103.473168 94.0655645,104.914135 C93.4702736,106.355114 93.1726881,108.193243 93.1726881,110.431262 L93.1726881,123.742201 L88.9682135,123.742201 C88.507436,123.742201 88.2777673,123.969009 88.2777673,124.424877 L88.2777673,128.690388 C88.2777673,129.144952 88.507436,129.372709 88.9682135,129.372709 L93.4031969,129.372709 L94.1523203,136.198521 C94.2281566,136.615047 94.4779843,136.824318 94.9008437,136.824318 L99.2787098,136.824318 C99.7394873,136.824318 99.9691561,136.596561 99.9691561,136.141523 L99.9691561,129.372709 L107.860211,129.372709 C108.320508,129.372709 108.551617,129.144952 108.551617,128.690388 L108.551617,124.424877 C108.551617,123.969009 108.320508,123.742201 107.860211,123.742201 L99.9691561,123.742201 L99.9691561,110.772896 C99.9691561,109.256042 100.257502,108.156212 100.833954,107.473915 C101.409086,106.791156 102.369039,106.450932 103.712853,106.450932 C104.404259,106.450932 105.105025,106.525919 105.81515,106.67729 C106.525276,106.829112 107.188483,107.037873 107.802493,107.30311 C108.340667,107.492899 108.608734,107.322094 108.608734,106.791156 L108.608734,102.411305 C108.608734,102.03219 108.436782,101.785936 108.090839,101.672069 C107.322157,101.369801 106.449319,101.131877 105.469687,100.961072 C104.491015,100.790267 103.426067,100.705089 102.272924,100.705089" id="path16" transform="translate(98.4433, 118.7647) scale(-1, 1) rotate(-180) translate(-98.4433, -118.7647)"></path>
            <path d="M114.178622,97.1695358 C113.755403,97.1695358 113.544453,97.3986665 113.544453,97.8522948 L113.544453,123.287542 C113.544453,123.742106 113.755403,123.969863 114.178622,123.969863 L119.649635,123.969863 C120.110532,123.969863 120.340921,123.742106 120.340921,123.287542 L120.340921,97.8522948 C120.340921,97.3986665 120.110532,97.1695358 119.649635,97.1695358 L114.178622,97.1695358 Z M116.942687,128.009039 C115.637271,128.009039 114.648279,128.349251 113.977032,129.032046 C113.304465,129.714841 112.967881,130.587353 112.967881,131.64828 L112.967881,132.502306 C112.967881,133.601627 113.304465,134.482079 113.977032,135.146861 C114.648279,135.809629 115.637271,136.142021 116.942687,136.142021 C118.248103,136.142021 119.226775,135.809629 119.880743,135.146861 C120.531712,134.482079 120.859296,133.601627 120.859296,132.502306 L120.859296,131.64828 C120.859296,130.587353 120.531712,129.714841 119.880743,129.032046 C119.226775,128.349251 118.248103,128.009039 116.942687,128.009039" id="path17" fill-rule="nonzero" transform="translate(116.9136, 116.6558) scale(-1, 1) rotate(-180) translate(-116.9136, -116.6558)"></path>
            <path d="M138.696424,107.47343 C134.626223,107.47343 131.506375,108.459382 129.336881,110.431298 C127.167387,112.403202 126.08264,115.247192 126.08264,118.963232 L126.08264,125.39053 C126.08264,129.068639 127.176987,131.894498 129.36688,133.86645 C131.554373,135.836979 134.68382,136.824318 138.754021,136.824318 C141.325496,136.824318 143.49619,136.415613 145.263703,135.600928 C147.027617,134.785295 148.372751,133.685856 149.294306,132.3019 C150.217061,130.916403 150.638241,129.334789 150.562644,127.552674 C150.523046,126.756475 150.292658,126.358435 149.870278,126.358435 L144.686531,126.358435 C144.264152,126.358435 144.052962,126.661083 144.052962,127.267919 C144.052962,128.480762 143.582585,129.419042 142.641831,130.083232 C141.701077,130.746593 140.42434,131.07851 138.812818,131.07851 C136.814916,131.07851 135.326989,130.57619 134.347837,129.571788 C133.369884,128.566319 132.879108,126.944889 132.879108,124.70821 L132.879108,119.589976 C132.879108,117.389439 133.369884,115.787384 134.347837,114.782448 C135.326989,113.777512 136.795717,113.276212 138.754021,113.276212 C140.443539,113.276212 141.739475,113.624766 142.641831,114.327433 C143.544187,115.028702 143.995365,115.929488 143.995365,117.030243 C143.995365,117.598235 144.206555,117.882397 144.628934,117.882397 L149.813881,117.882397 C150.23506,117.882397 150.465449,117.673601 150.503847,117.256601 C150.580643,114.299195 149.61949,111.929203 147.623988,110.146614 C145.627285,108.364487 142.651431,107.47343 138.696424,107.47343" id="path18" transform="translate(138.327, 122.1489) scale(-1, 1) rotate(-180) translate(-138.327, -122.1489)"></path>
            <path d="M173.524723,108.155726 C173.295534,108.155726 173.131142,108.222382 173.036346,108.355232 C172.939151,108.48762 172.853955,108.66768 172.775959,108.895425 C172.699163,109.274528 172.604368,109.927674 172.489173,110.857612 C172.372779,111.786636 172.276784,112.649456 172.201187,113.445631 L171.798007,115.777655 L171.798007,127.154515 C171.798007,128.746912 171.470423,129.87491 170.818855,130.53827 C170.166087,131.201157 169.033342,131.53343 167.419421,131.53343 C164.502363,131.53343 163.080433,130.490634 163.158429,128.405278 C163.158429,127.95024 162.947239,127.722483 162.52366,127.722483 L157.341113,127.722483 C156.879136,127.722483 156.629548,128.063644 156.59235,128.746912 C156.361961,131.286714 157.234318,133.26933 159.213022,134.689903 C161.189325,136.112372 164.021187,136.824318 167.708607,136.824318 C171.470423,136.824318 174.225488,136.026697 175.972603,134.434418 C177.719718,132.842021 178.594475,130.37723 178.594475,127.039807 L178.594475,115.209236 C178.594475,113.99554 178.622074,112.858216 178.680871,111.796353 C178.738468,110.734479 178.823664,109.76751 178.940058,108.895425 C179.016854,108.402454 178.804465,108.155726 178.306489,108.155726 L173.524723,108.155726 Z M162.52366,107.47343 C160.219773,107.47343 158.454659,108.155726 157.224719,109.522181 C155.995979,110.886312 155.382809,112.839245 155.382809,115.379579 C155.382809,117.351519 155.76679,118.953515 156.534753,120.187095 C157.302715,121.418424 158.560254,122.385381 160.307368,123.086661 C162.054483,123.788416 164.385969,124.253171 167.305426,124.481876 L172.661965,124.935492 L172.661965,120.840265 L167.881398,120.442225 C165.654307,120.250967 164.118382,119.835389 163.272423,119.190514 C162.427665,118.546232 162.006485,117.503317 162.006485,116.062338 C162.006485,114.961584 162.236874,114.137644 162.697652,113.588197 C163.158429,113.038288 163.868794,112.763322 164.827547,112.763322 C165.979491,112.763322 167.151834,113.132709 168.342176,113.872407 C169.531318,114.611643 171.028845,115.929488 172.834756,117.825517 L173.065145,113.276212 C171.913201,112.023636 170.779257,110.962223 169.666911,110.089675 C168.552166,109.217601 167.419421,108.563531 166.268677,108.127488 C165.116733,107.692843 163.868794,107.47343 162.52366,107.47343" id="path19" fill-rule="nonzero" transform="translate(167.1691, 122.1489) scale(-1, 1) rotate(-180) translate(-167.1691, -122.1489)"></path>
            <path d="M233.530191,32.608951 C232.051863,31.7929629 230.352746,31.3860353 228.43284,31.3860353 C226.740923,31.3860353 225.300993,31.5567932 224.066253,31.8683286 L218.698916,39.633369 L217.604569,39.633369 L213.630363,32.466396 C215.857454,30.9875212 218.170941,29.9066866 220.570824,29.224366 C222.969507,28.5410974 225.725772,28.2013592 228.83602,28.2013592 C232.138259,28.2013592 235.046917,28.7600847 237.561994,29.8788392 C240.077071,30.9967642 242.035376,32.5603661 243.436907,34.5716595 C244.838439,36.5805828 245.539204,38.8935761 245.539204,41.5102838 C245.539204,43.9372737 244.942833,46.0697921 243.753692,47.909735 C242.56335,49.7488485 240.893031,51.1800864 238.742736,52.2040412 C236.591242,53.2269296 234.077364,53.7399143 231.197505,53.7399143 C229.239201,53.7399143 227.300095,53.4644028 225.380189,52.9145647 C224.169448,52.568309 223.085901,52.1244095 222.104349,51.6036039 L222.874712,62.8402079 L242.889734,62.8402079 L243.811289,71.657406 L242.774539,71.657406 L237.936376,68.3579038 L218.353333,68.3579038 L216.913403,48.3356225 L218.353333,46.9145756 C219.697267,47.8241783 221.146796,48.4963079 222.70192,48.9327419 C224.257044,49.3692943 225.993359,49.5876891 227.914465,49.5876891 C231.063112,49.5876891 233.567389,48.7916089 235.430898,47.1979081 C237.293207,45.6059847 238.224362,43.4443154 238.224362,40.7142036 C238.224362,38.9311405 237.811582,37.3382691 236.986022,35.9357081 C236.160463,34.5332656 235.008519,33.4236356 233.530191,32.608951" id="path20" transform="translate(229.5848, 49.9294) scale(-1, 1) rotate(-180) translate(-229.5848, -49.9294)"></path>
            <path d="M236.525245,83.1666776 C234.854926,81.8020364 232.675833,81.1192419 229.987964,81.1192419 C227.108105,81.1192419 224.833016,81.8585607 223.162698,83.3374355 C221.492379,84.8164287 220.65722,86.7873137 220.65722,89.2531714 C220.65722,91.1486907 221.300389,92.9308058 222.586726,94.5995169 C223.465083,95.7391273 224.54263,96.678829 225.789369,97.4472988 C227.063707,97.0148938 228.330845,96.6006193 229.584784,96.2210651 C231.274301,95.708199 232.829425,95.1300395 234.250156,94.4861128 C235.669687,93.8408826 236.82163,93.0534529 237.705987,92.1253642 C238.589144,91.196446 239.030722,89.9928458 239.030722,88.5139711 C239.030722,86.3137894 238.195563,84.5316742 236.525245,83.1666776 L236.525245,83.1666776 Z M223.018705,112.971573 C223.671473,113.91957 224.564229,114.668131 225.696974,115.218918 C226.829718,115.767452 228.066858,116.042845 229.411992,116.042845 C231.90787,116.042845 233.875774,115.398563 235.315704,114.109406 C236.755633,112.820249 237.475598,111.09454 237.475598,108.93287 C237.475598,107.150755 236.890027,105.549233 235.718884,104.127238 C234.946122,103.189433 233.95857,102.374274 232.794627,101.659485 C232.349449,101.799314 231.903071,101.945543 231.456692,102.078855 C229.747976,102.591365 228.183252,103.169051 226.762522,103.814755 C225.341791,104.458208 224.199447,105.245045 223.335489,106.174556 C222.471531,107.103592 222.039552,108.308496 222.039552,109.786897 C222.039552,110.961702 222.364737,112.02405 223.018705,112.971573 L223.018705,112.971573 Z M244.704045,94.9688801 C243.840087,96.2774709 242.696543,97.3584241 241.277013,98.2115025 C239.856282,99.064581 238.290358,99.7945384 236.582842,100.400901 C236.377652,100.473659 236.172462,100.539308 235.967272,100.611119 C238.083969,101.327212 239.809484,102.203872 241.13302,103.245365 C243.302514,104.952114 244.387261,107.036403 244.387261,109.502735 C244.387261,111.39778 243.78249,113.065543 242.572949,114.507446 C241.363408,115.948045 239.664291,117.067274 237.475598,117.863473 C235.286905,118.659553 232.73343,119.057711 229.815173,119.057711 C226.973711,119.057711 224.439435,118.59343 222.212344,117.664393 C219.985253,116.734883 218.228539,115.454969 216.942201,113.82477 C215.655864,112.194453 215.012696,110.355339 215.012696,108.308496 C215.012696,106.296729 215.444675,104.638683 216.308632,103.33104 C217.17259,102.022449 218.314934,100.941614 219.735665,100.088536 C220.698018,99.5108504 221.757566,99.0104267 222.861512,98.5451974 C220.514427,97.6906969 218.595721,96.6612911 217.114993,95.4525954 C214.790707,93.5557726 213.630363,91.2805807 213.630363,88.6273751 C213.630363,86.4271935 214.292731,84.5409172 215.617466,82.9671243 C216.942201,81.3938054 218.81411,80.1704157 221.233192,79.2987328 C223.652274,78.4271684 226.512934,77.99109 229.815173,77.99109 C233.117411,77.99109 235.978071,78.4840482 238.397153,79.4699647 C240.816235,80.4550517 242.688144,81.8483698 244.012879,83.6503929 C245.337614,85.45052 245.999982,87.5650264 245.999982,89.9928458 C245.999982,92.0017691 245.568003,93.6612372 244.704045,94.9688801" id="path21" fill-rule="nonzero" transform="translate(229.8152, 98.5244) scale(-1, 1) rotate(-180) translate(-229.8152, -98.5244)"></path>
            <polyline id="path22" transform="translate(198.0233, 73.6297) scale(-1, 1) rotate(-180) translate(-198.0233, -73.6297)" points="201.42096 8.26416059 194.625692 8.26416059 194.625692 138.995265 201.42096 138.995265 201.42096 8.26416059"></polyline>
        </g>
    </g>
</svg>