<?xml version="1.0" encoding="UTF-8"?>
<svg width="88px" height="51px" viewBox="0 0 88 51" version="1.1" xmlns="http://www.w3.org/2000/svg" xmlns:xlink="http://www.w3.org/1999/xlink">
    <title>svg1</title>
    <g id="Symbols" stroke="none" stroke-width="1" fill="none" fill-rule="evenodd">
        <g id="Header-UMA" transform="translate(-46, -116)">
            <g id="Group" transform="translate(24, 91)">
                <g id="svg1" transform="translate(22, 25)">
                    <path d="M17.963315,6.77792678 L17.963315,14.5707577 L17.4482181,14.5707577 L14.2132813,13.4437628 L14.2132813,13.0894029 L15.6762421,11.9454508 L15.6762421,6.95915035 C15.3420731,6.63200876 15.002195,6.37947841 14.6564363,6.20216802 C14.1961973,5.96520342 13.6914882,5.84719939 13.141837,5.84719939 C12.441477,5.84719939 11.9434642,6.04164081 11.6483567,6.43143671 C11.352734,6.82071085 11.2052017,7.47512447 11.2052017,8.3931123 L11.2052017,14.5707577 L10.6901049,14.5707577 L7.53779816,13.4437628 L7.53779816,13.0685326 L8.91812887,11.9624079 L8.91812887,7.76726487 C8.91812887,6.54270137 9.18606507,5.62093081 9.72176577,5.0016923 C10.2575094,4.38280163 11.0472387,4.07318238 12.0913829,4.07318238 C12.7642281,4.07318238 13.3720423,4.21923083 13.9148256,4.51137123 C14.4572655,4.80351163 15.0513438,5.2906152 15.6968889,5.97233409 L15.8620204,5.97233409 L16.479922,4.09387873 L16.8918706,4.09387873 L19.2820916,5.36705258 L19.2820916,5.72202121 L17.963315,6.77792678" id="path2" fill="#DB2730" transform="translate(13.4099, 9.322) scale(-1, 1) rotate(-180) translate(-13.4099, -9.322)"></path>
                    <path d="M22.9865392,9.99986274 L22.8627872,12.1290223 C23.1511985,12.545993 23.4772977,12.9181796 23.8416858,13.2451473 C24.2050437,13.572115 24.5760851,13.8299499 24.9542091,14.0173476 C25.331818,14.2051801 25.678564,14.2995311 25.9946188,14.2995311 C26.2280006,14.2995311 26.4133067,14.278226 26.5507946,14.2364855 C26.6745466,14.1951797 26.7360578,14.1043071 26.7360578,13.9651719 C26.7637442,13.6312474 26.7737886,13.2729744 26.7670923,12.8907874 C26.7600527,12.5077309 26.7360578,12.1494578 26.6949788,11.8159681 C26.6673353,11.6346576 26.5641871,11.5655248 26.3861353,11.6068306 C26.3034623,11.6203093 26.2003571,11.6346576 26.0771201,11.6485711 C25.9535398,11.6624847 25.8227482,11.6694414 25.6856036,11.6694414 C25.3834564,11.6694414 25.0707497,11.6033522 24.7479557,11.4716086 C24.4251617,11.3389954 24.1161465,11.1481193 23.8206956,10.897676 C23.5251158,10.6467978 23.247264,10.3475268 22.9865392,9.99986274 Z M21.0083098,3.7805637 C20.8570431,3.7805637 20.7816243,3.86430569 20.7816243,4.03109398 L20.7816243,11.4816089 C20.7816243,11.8990145 20.771537,12.2955497 20.7509331,12.6716495 C20.730458,13.0468797 20.692255,13.4155879 20.6373972,13.7773394 C20.6097537,13.9582151 20.692255,14.0490878 20.8847295,14.0490878 L22.6154549,14.0490878 C22.7663782,14.0490878 22.8557475,13.9786506 22.8833911,13.8399502 C22.9382489,13.5895069 22.9793278,13.3042798 23.0069714,12.9842689 C23.0343144,12.6642579 23.0480503,12.3794656 23.0480503,12.1290223 L23.2128813,10.9181114 L23.2128813,4.03109398 C23.2128813,3.86430569 23.1307234,3.7805637 22.9658924,3.7805637 L21.0083098,3.7805637" id="path3" fill="#244789" fill-rule="nonzero" transform="translate(23.7006, 9.04) scale(-1, 1) rotate(-180) translate(-23.7006, -9.04)"></path>
                    <path d="M32.7153446,0.0447841359 C32.1930364,0.0447841359 31.7089742,0.0762199905 31.2629433,0.138700382 C30.8164402,0.201572091 30.3628974,0.267791741 29.9031306,0.336924533 C29.4428486,0.406579082 28.9309282,0.462276633 28.3680562,0.504234586 L28.3680562,14.2991833 C28.3680562,14.4661455 28.4435179,14.5500614 28.5947417,14.5500614 L30.5520238,14.5500614 C30.7166831,14.5500614 30.7993561,14.4661455 30.7993561,14.2991833 L30.7993561,2.29912188 C31.060081,2.24307649 31.338405,2.19807496 31.6338559,2.16324768 C31.9289635,2.12842041 32.206987,2.11094155 32.4680552,2.11094155 C33.2100093,2.11094155 33.7591454,2.30929614 34.1162792,2.70587488 C34.473413,3.1024971 34.6519799,3.69725651 34.6519799,4.490414 L34.6519799,6.70261987 C34.6519799,7.38416485 34.5354822,7.8846167 34.3020575,8.2054972 C34.0681606,8.52507332 33.7042876,8.68507878 33.2100093,8.68507878 C32.8114531,8.68507878 32.4026379,8.56681387 31.9839501,8.33071887 C31.56479,8.09375426 31.0466455,7.697219 30.4282718,7.14067828 L30.490298,9.14422487 C31.0944637,9.72902742 31.6849793,10.1529549 32.262317,10.4177466 C32.8390966,10.6816686 33.4363514,10.8142818 34.0547251,10.8142818 C35.0569319,10.8142818 35.8127935,10.511228 36.3211941,9.90598997 C36.8292513,9.30075194 37.0832798,8.37202462 37.0832798,7.1202428 L37.0832798,4.28153731 C37.0832798,2.86248892 36.726146,1.80149621 36.0118355,1.09868964 C35.2975679,0.396013504 34.1989522,0.0447841359 32.7153446,0.0447841359" id="path4" fill="#244789" transform="translate(32.7257, 7.2974) scale(-1, 1) rotate(-180) translate(-32.7257, -7.2974)"></path>
                    <path d="M39.4367572,0 C39.2853617,0 39.2099,0.0837419861 39.2099,0.250530282 L39.2099,9.58284852 C39.2099,9.74981074 39.2853617,9.83372664 39.4367572,9.83372664 L41.3938676,9.83372664 C41.5586986,9.83372664 41.6411999,9.74981074 41.6411999,9.58284852 L41.6411999,0.250530282 C41.6411999,0.0837419861 41.5586986,0 41.3938676,0 L39.4367572,0 Z M40.4250563,11.3155163 C39.9582498,11.3155163 39.6042925,11.4403032 39.3641715,11.6907465 C39.1235354,11.9411898 39.0031745,12.2616355 39.0031745,12.6507792 L39.0031745,12.9642682 C39.0031745,13.3673254 39.1235354,13.6908147 39.3641715,13.9343013 C39.6042925,14.1777878 39.9582498,14.2995311 40.4250563,14.2995311 C40.8920345,14.2995311 41.2421287,14.1777878 41.4760256,13.9343013 C41.7091069,13.6908147 41.825948,13.3673254 41.825948,12.9642682 L41.825948,12.6507792 C41.825948,12.2616355 41.7091069,11.9411898 41.4760256,11.6907465 C41.2421287,11.4403032 40.8920345,11.3155163 40.4250563,11.3155163" id="path5" fill="#244789" fill-rule="nonzero" transform="translate(40.4146, 7.1498) scale(-1, 1) rotate(-180) translate(-40.4146, -7.1498)"></path>
                    <path d="M50.6756548,3.7805637 C50.5108239,3.7805637 50.4279791,3.86430569 50.4279791,4.03109398 L50.4279791,10.4593132 C50.4279791,11.0437679 50.3112238,11.4746522 50.0777133,11.7529225 C49.8442027,12.0311929 49.4870689,12.1703281 49.0067411,12.1703281 C48.5255549,12.1703281 48.0550998,12.0277145 47.5953758,11.7424874 C47.1347934,11.4572603 46.6093947,11.0155061 46.0191796,10.4171813 L45.9367641,12.2333737 C46.3346764,12.6642579 46.7364519,13.0329662 47.1416614,13.3394984 C47.5468709,13.645161 47.9692503,13.8821256 48.4087996,14.0490878 C48.8483489,14.2156152 49.3291059,14.2995311 49.8514999,14.2995311 C50.8400566,14.2995311 51.5890932,14.0173476 52.0968928,13.4538501 C52.6051217,12.8907874 52.8592361,12.0242361 52.8592361,10.8559354 L52.8592361,4.03109398 C52.8592361,3.86430569 52.7768206,3.7805637 52.6119897,3.7805637 L50.6756548,3.7805637 Z M44.2056095,3.7805637 C44.0545144,3.7805637 43.9789669,3.86430569 43.9789669,4.03109398 L43.9789669,11.4403032 C43.9789669,11.8294469 43.961797,12.2398956 43.9278864,12.6716495 C43.8931174,13.1025338 43.8626408,13.46472 43.8347398,13.7569039 C43.8072679,13.9512584 43.8896834,14.0490878 44.0819862,14.0490878 L45.8127116,14.0490878 C45.9500707,14.0490878 46.0397834,13.9721286 46.0805619,13.8190799 C46.1080338,13.707337 46.1355056,13.544288 46.1634067,13.3286284 C46.1904492,13.1129689 46.2179211,12.8868742 46.2453929,12.6507792 C46.2728647,12.4138146 46.2870299,12.2051119 46.2870299,12.0242361 L46.4102239,11.189425 L46.4102239,4.03109398 C46.4102239,3.86430569 46.3282376,3.7805637 46.1634067,3.7805637 L44.2056095,3.7805637" id="path6" fill="#244789" fill-rule="nonzero" transform="translate(48.3444, 9.04) scale(-1, 1) rotate(-180) translate(-48.3444, -9.04)"></path>
                    <path d="M59.4838105,5.88885299 C60.22555,5.88885299 60.7612507,6.07990298 61.0904834,6.46239428 C61.4205746,6.84505951 61.5854056,7.44664524 61.5854056,8.26780368 L61.5854056,10.0627344 C61.5854056,10.8834146 61.4205746,11.4851743 61.0904834,11.8682308 C60.7612507,12.2504177 60.22555,12.4417286 59.4838105,12.4417286 C58.7420711,12.4417286 58.2029364,12.2504177 57.8664065,11.8682308 C57.5294473,11.4851743 57.3616116,10.8834146 57.3616116,10.0627344 L57.3616116,8.26780368 C57.3616116,7.44664524 57.5294473,6.84505951 57.8664065,6.46239428 C58.2029364,6.07990298 58.7420711,5.88885299 59.4838105,5.88885299 L59.4838105,5.88885299 Z M59.4838105,3.7805637 C58.0278035,3.7805637 56.9044632,4.13179307 56.1146481,4.83446921 C55.3252622,5.53727578 54.9303546,6.60505132 54.9303546,8.03818715 L54.9303546,10.292351 C54.9303546,11.7112689 55.3218282,12.7760878 56.1047754,13.4852425 C56.8872933,14.1948319 58.0136384,14.5500614 59.4838105,14.5500614 C60.9393883,14.5500614 62.0592947,14.1948319 62.8418126,13.4852425 C63.625189,12.7760878 64.0166626,11.7112689 64.0166626,10.292351 L64.0166626,8.03818715 C64.0166626,6.60505132 63.6281937,5.53727578 62.8525438,4.83446921 C62.0760353,4.13179307 60.9535535,3.7805637 59.4838105,3.7805637" id="path7" fill="#244789" fill-rule="nonzero" transform="translate(59.4735, 9.1653) scale(-1, 1) rotate(-180) translate(-59.4735, -9.1653)"></path>
                    <path d="M17.5957934,22.7763419 L17.5957934,28.0076942 C17.5957934,29.2042133 17.3174694,30.1188097 16.7612507,30.7520052 C16.2049461,31.3850268 15.3980898,31.7017767 14.3403814,31.7017767 C13.6260709,31.7017767 12.9666182,31.5518151 12.3621521,31.2528918 C11.757686,30.9536208 11.1394839,30.4562994 10.5081898,29.7607975 L10.427706,29.7607975 C10.292536,30.1436366 10.1086035,30.4759958 9.86934101,30.7520052 C9.31968977,31.3850268 8.53682845,31.7017767 7.52054241,31.7017767 C6.79198088,31.7017767 6.14308765,31.5556848 5.57351934,31.2635878 C5.00343593,30.9709257 4.39557875,30.4703869 3.75004653,29.7607975 L3.64692415,29.7607975 L3.75004653,31.5344666 L3.2347823,31.5344666 L0,30.2199001 L0,29.8649315 L1.48341876,28.584453 L1.48341876,22.7936903 L0.0410803024,21.6210851 L0.0410803024,21.3082484 L5.17157212,21.3082484 L5.17157212,21.6210851 L3.77067187,22.7841683 L3.77067187,28.7750247 C4.56161163,29.5563122 5.45414565,29.9484995 6.44909809,29.9484995 C7.13572216,29.9484995 7.63390664,29.7431447 7.94275011,29.3327829 C8.25159358,28.9222906 8.40638018,28.2717902 8.40638018,27.381325 L8.40638018,22.7948643 L7.04652456,21.6210851 L7.04652456,21.3082484 L12.0737408,21.3082484 L12.0737408,21.6210851 L10.693453,22.7670372 L10.693453,27.4234134 L10.693453,28.0076942 L10.693453,28.9307692 C10.9795034,29.1767341 11.2866728,29.3869586 11.6207131,29.5518773 C12.1564138,29.8160167 12.7125896,29.9484995 13.2895839,29.9484995 C13.9899439,29.9484995 14.5018643,29.7431447 14.8244437,29.3327829 C15.1474094,28.9222906 15.3087206,28.2717902 15.3087206,27.381325 L15.3087206,22.7770376 L13.96934,21.6210851 L13.96934,21.3082484 L19.0381074,21.3082484 L19.0381074,21.6210851 L17.5957934,22.7763419" id="path8" fill="#DB2730" transform="translate(9.5191, 26.505) scale(-1, 1) rotate(-180) translate(-9.5191, -26.505)"></path>
                    <path d="M27.0403941,21.6839568 C26.8757348,21.6839568 26.7793259,21.7603942 26.7519828,21.9135734 C26.7109039,22.1637558 26.6728725,22.4281996 26.6384898,22.706383 C26.6041071,22.9849577 26.5802839,23.2629672 26.5663763,23.5414984 L26.3811131,24.6055782 L26.3811131,31.7016028 C26.3811131,31.868565 26.4637862,31.952307 26.6284454,31.952307 L28.5855129,31.952307 C28.7369514,31.952307 28.8123701,31.868565 28.8123701,31.7016028 L28.8123701,24.2927414 C28.8123701,23.8888581 28.8229725,23.4893662 28.8434047,23.0927875 C28.8640515,22.6962087 28.9017824,22.3101521 28.9565972,21.9344436 C28.9839403,21.7675249 28.9017824,21.6839568 28.7092649,21.6839568 L27.0403941,21.6839568 Z M22.9608702,21.4334265 C22.0542569,21.4334265 21.3671177,21.7221755 20.9006546,22.29963 C20.4331613,22.8765627 20.1997795,23.7359833 20.1997795,24.8769788 L20.1997795,31.7016028 C20.1997795,31.868565 20.2752412,31.952307 20.4264651,31.952307 L22.3842622,31.952307 C22.5489215,31.952307 22.6310795,31.868565 22.6310795,31.7016028 L22.6310795,25.2735575 C22.6310795,24.6893202 22.7308365,24.2579142 22.9298785,23.9797308 C23.1290493,23.701156 23.4414126,23.5624122 23.8676552,23.5624122 C24.3208975,23.5624122 24.7773162,23.7113738 25.2375552,24.0107753 C25.6978372,24.3100464 26.2164538,24.758453 26.7931047,25.3571256 L26.8757348,23.5202803 C26.477007,23.1169187 26.0751027,22.7585587 25.6701507,22.4456785 C25.2648983,22.1326678 24.8388274,21.8855289 24.3928394,21.7046532 C23.9464651,21.5242992 23.4689274,21.4334265 22.9608702,21.4334265" id="path9" fill="#244789" fill-rule="nonzero" transform="translate(24.5807, 26.6929) scale(-1, 1) rotate(-180) translate(-24.5807, -26.6929)"></path>
                    <path d="M34.665587,21.1830702 C33.3055597,21.1830702 32.3067441,21.4542968 31.6678952,21.9969675 C31.0290464,22.5395947 30.7300756,23.3811886 30.7716697,24.522184 C30.7716697,24.6753632 30.8538276,24.7518006 31.019002,24.7518006 L32.8729642,24.7518006 C33.0101088,24.7518006 33.0793893,24.6753632 33.0793893,24.522184 C33.0793893,24.0214713 33.2096659,23.6525892 33.4709058,23.4160159 C33.731459,23.179573 34.1301868,23.0615255 34.665587,23.0615255 C35.2289742,23.0615255 35.6476621,23.1518764 35.9226379,23.3327522 C36.1971416,23.5133236 36.3348012,23.7918548 36.3348012,24.1675633 C36.3348012,24.4316592 36.2450885,24.6580582 36.0668221,24.8457168 C35.8882552,25.0337667 35.5995434,25.211251 35.201116,25.3781698 L32.8525321,26.3797691 C32.1382216,26.6854752 31.6268163,27.0477484 31.3174577,27.465067 C31.0086142,27.882516 30.8538276,28.4251867 30.8538276,29.0929921 C30.8538276,30.0390243 31.159323,30.7520052 31.7710004,31.232152 C32.3818623,31.711951 33.3265499,31.952307 34.6038613,31.952307 C35.908902,31.952307 36.890977,31.7019506 37.5504297,31.2007161 C38.2097107,30.6996991 38.539201,29.9693698 38.539201,29.009424 C38.539201,28.856071 38.456528,28.7801553 38.2918687,28.7801553 L36.4379064,28.7801553 C36.2725604,28.7801553 36.1904024,28.8908548 36.1904024,29.1138624 C36.1904024,29.4196119 36.0596108,29.6599245 35.7988859,29.8340174 C35.5378177,30.0075885 35.1736442,30.0947219 34.7070094,30.0947219 C34.2257802,30.0947219 33.8689469,30.0109799 33.6355651,29.8441916 C33.4016682,29.6772294 33.2851276,29.4267426 33.2851276,29.0929921 C33.2851276,28.8424618 33.3571982,28.6476726 33.5014253,28.5087113 C33.6456095,28.3694457 33.9306727,28.2094837 34.3565719,28.0285645 L36.7056709,27.0268347 C37.433374,26.7207808 37.9587298,26.3551161 38.2818243,25.9310147 C38.6042749,25.506435 38.7658865,24.9535901 38.7658865,24.2720016 C38.7658865,23.2560104 38.415449,22.4874625 37.715089,21.9655316 C37.0145573,21.4441226 35.9975845,21.1830702 34.665587,21.1830702" id="path10" fill="#244789" transform="translate(34.7669, 26.5677) scale(-1, 1) rotate(-180) translate(-34.7669, -26.5677)"></path>
                    <path d="M40.8443881,17.402376 C40.6931642,17.402376 40.6177026,17.4859441 40.6177026,17.6528628 L40.6177026,26.9852246 C40.6177026,27.1521868 40.6931642,27.2357548 40.8443881,27.2357548 L42.8016702,27.2357548 C42.9663724,27.2357548 43.0487879,27.1521868 43.0487879,26.9852246 L43.0487879,17.6528628 C43.0487879,17.4859441 42.9663724,17.402376 42.8016702,17.402376 L40.8443881,17.402376 Z M41.8333311,28.7178054 C41.3663529,28.7178054 41.0125672,28.8426357 40.7722745,29.0929921 C40.5318531,29.3434789 40.4114492,29.6636637 40.4114492,30.0531118 L40.4114492,30.3664703 C40.4114492,30.7698319 40.5318531,31.0928864 40.7722745,31.3365903 C41.0125672,31.5799899 41.3663529,31.7017767 41.8333311,31.7017767 C42.3003093,31.7017767 42.6502317,31.5799899 42.8841715,31.3365903 C43.1174674,31.0928864 43.2342227,30.7698319 43.2342227,30.3664703 L43.2342227,30.0531118 C43.2342227,29.6636637 43.1174674,29.3434789 42.8841715,29.0929921 C42.6502317,28.8426357 42.3003093,28.7178054 41.8333311,28.7178054" id="path11" fill="#244789" fill-rule="nonzero" transform="translate(41.8228, 24.5521) scale(-1, 1) rotate(-180) translate(-41.8228, -24.5521)"></path>
                    <path d="M46.2672845,22.2683681 C45.4912053,22.9919145 45.1031657,24.0350805 45.1031657,25.3989096 L45.1031657,27.7571639 C45.1031657,29.1065578 45.4946393,30.1434627 46.2780157,30.8670091 C47.0605336,31.5902077 48.1800107,31.952307 49.6360178,31.952307 C50.5558948,31.952307 51.3324033,31.8024758 51.9646846,31.5035526 C52.5956783,31.204151 53.0768645,30.800746 53.4065265,30.2929461 C53.7366177,29.7847548 53.8872835,29.2042568 53.860241,28.5503214 C53.8460758,28.2582245 53.7636603,28.1121326 53.6125652,28.1121326 L51.7582167,28.1121326 C51.6071216,28.1121326 51.5315741,28.2233972 51.5315741,28.4458831 C51.5315741,28.8908548 51.3633091,29.2353013 51.0267792,29.4790487 C50.6902493,29.7222744 50.2335301,29.8441916 49.6570509,29.8441916 C48.942354,29.8441916 48.4100873,29.6599245 48.0598215,29.2913467 C47.7095556,28.9222906 47.5344227,28.3274877 47.5344227,27.5066771 L47.5344227,25.6287 C47.5344227,24.8214551 47.7095556,24.2334351 48.0598215,23.8649008 C48.4100873,23.496323 48.9354861,23.3120558 49.6360178,23.3120558 C50.240398,23.3120558 50.7039852,23.4402776 51.0267792,23.6979385 C51.3495732,23.9552517 51.5109702,24.2856108 51.5109702,24.6894941 C51.5109702,24.8978925 51.5865177,25.0023309 51.7376128,25.0023309 L53.5923906,25.0023309 C53.7430564,25.0023309 53.8254719,24.9258935 53.8392078,24.7727143 C53.8666797,23.6874165 53.5228525,22.8178216 52.8090142,22.1639297 C52.0947466,21.5100379 51.0302132,21.1830702 49.6154139,21.1830702 C48.1594069,21.1830702 47.0433637,21.5448216 46.2672845,22.2683681 Z" id="path12" fill="#244789" transform="translate(49.4832, 26.5677) scale(-1, 1) rotate(-180) translate(-49.4832, -26.5677)"></path>
                    <path d="M62.0743183,21.4336005 C61.9919028,21.4336005 61.9335252,21.4576882 61.8991854,21.506603 C61.8648456,21.5550394 61.8339398,21.621259 61.806468,21.7048271 C61.7789961,21.8437449 61.7446564,22.0835792 61.7034486,22.4249821 C61.6622409,22.7655154 61.6279011,23.0822654 61.6004292,23.3743623 L61.4562021,24.2300437 L61.4562021,28.404273 C61.4562021,28.9885537 61.3394469,29.4026113 61.1059363,29.645837 C60.8724257,29.8891932 60.4672162,30.0109799 59.8903078,30.0109799 C58.8463782,30.0109799 58.3377201,29.6284886 58.3660504,28.8633756 C58.3660504,28.6964133 58.2900737,28.6128453 58.1389786,28.6128453 L56.28463,28.6128453 C56.119799,28.6128453 56.0300863,28.7380235 56.0167797,28.9885537 C55.9347934,29.920629 56.2468563,30.6479147 56.9546851,31.1693238 C57.6616555,31.6912546 58.6746793,31.952307 59.9937564,31.952307 C61.3394469,31.952307 62.3245695,31.6598187 62.9499829,31.0755814 C63.5749671,30.4913006 63.8874591,29.5868785 63.8874591,28.362315 L63.8874591,24.0214713 C63.8874591,23.5761518 63.8977611,23.1587028 63.918365,22.7693851 C63.9389688,22.3796327 63.9698746,22.0246641 64.0110824,21.7048271 C64.0385542,21.5239514 63.9630067,21.4336005 63.784869,21.4336005 L62.0743183,21.4336005 Z M58.1389786,21.1830702 C57.3148237,21.1830702 56.6829716,21.4336005 56.2434223,21.9346175 C55.803873,22.4351564 55.5840983,23.1518764 55.5840983,24.0839952 C55.5840983,24.8074981 55.7214575,25.3951703 55.9961758,25.8477945 C56.2708941,26.2995925 56.7207453,26.6545611 57.3461587,26.9118742 C57.9707136,27.1691874 58.8051705,27.3398888 59.8491,27.4234134 L61.7656895,27.5903756 L61.7656895,26.0876287 L60.0551388,25.9415368 C59.2584557,25.8715779 58.7085898,25.7187031 58.4068289,25.4821298 C58.1046388,25.2457305 57.953973,24.8630652 57.953973,24.3345255 C57.953973,23.9305987 58.0359592,23.628284 58.2007902,23.4267119 C58.3660504,23.2249224 58.6193064,23.1238755 58.9631335,23.1238755 C59.375211,23.1238755 59.7941564,23.2597497 60.2199698,23.5311503 C60.6457831,23.8023769 61.1810546,24.2856108 61.8270719,24.981591 L61.9099166,23.3120558 C61.4978391,22.8526054 61.0922004,22.4631573 60.6938588,22.143016 C60.2955173,21.8228746 59.8903078,21.5830403 59.4782303,21.4229044 C59.0661529,21.2632468 58.6193064,21.1830702 58.1389786,21.1830702" id="path13" fill="#244789" fill-rule="nonzero" transform="translate(59.8003, 26.5677) scale(-1, 1) rotate(-180) translate(-59.8003, -26.5677)"></path>
                    <path d="M13.2870514,41.1873393 C12.7784791,41.1873393 12.3732267,41.3194742 12.0714229,41.5837485 C11.7691039,41.8481966 11.6181806,42.2099611 11.6181806,42.6695551 C11.6181806,43.2395267 11.8344783,43.6843679 12.2670738,44.0046832 C12.6996693,44.3248245 13.4584069,44.6169649 14.5437588,44.8812348 L15.9861158,45.2504648 L15.9861158,42.142024 C15.2538627,41.5059632 14.3541174,41.1873393 13.2870514,41.1873393 L13.2870514,41.1873393 Z M18.2731886,42.2707632 L18.2731886,46.5927715 C18.2731886,47.803204 17.8951076,48.7110176 17.1397181,49.3165165 C16.3843286,49.9216676 15.2580694,50.2243301 13.7610692,50.2243301 C13.238761,50.2243301 12.7203161,50.1823721 12.2055627,50.0991519 C11.6902941,50.0154099 11.2023687,49.897058 10.7426018,49.7441833 C10.2823199,49.5908302 9.87354763,49.4031282 9.51637091,49.1806423 L10.608462,46.7595597 L10.9999785,46.7595597 L12.5277986,48.7898464 C12.8620106,48.9223292 13.2107741,48.9929837 13.5754627,48.9929837 C14.3718882,48.9929837 14.9730062,48.7560191 15.3783015,48.2835248 C15.7785318,47.8156392 15.9795912,47.1289636 15.9844417,46.226585 L13.5958948,45.821006 C10.7115672,45.3330328 9.26908151,44.1579058 9.26908151,42.2933553 C9.26908151,41.4864321 9.55410175,40.8289706 10.1241852,40.3211402 C10.6943115,39.8133098 11.4253627,39.5593925 12.3187123,39.5593925 C13.0741018,39.5593925 13.7506814,39.6954406 14.3479362,39.9663368 C14.9457061,40.237746 15.5054017,40.6516515 16.0271948,41.208227 L16.212973,41.208227 L16.7897956,39.5802845 L17.1813121,39.5802845 L19.6125691,40.8534279 L19.6125691,41.208227 L18.2731886,42.2707632" id="path14" fill="#DB2730" fill-rule="nonzero" transform="translate(14.4408, 44.8919) scale(-1, 1) rotate(-180) translate(-14.4408, -44.8919)"></path>
                    <path d="M27.7878855,39.4340404 C27.6230545,39.4340404 27.5405961,39.5181128 27.5405961,39.6845576 L27.5405961,46.1129594 C27.5405961,46.6971968 27.423712,47.128081 27.1901585,47.4066122 C26.9565621,47.6848391 26.5996,47.8241047 26.1190147,47.8241047 C25.6377855,47.8241047 25.1674591,47.6814477 24.7076923,47.3960901 C24.2469382,47.1107761 23.721797,46.6691523 23.1315819,46.0708276 L23.0490805,47.886933 C23.4471216,48.3178172 23.8488971,48.686395 24.2541496,48.9929707 C24.6591015,49.2986768 25.0816097,49.5355979 25.5214594,49.7025601 C25.9607512,49.8693484 26.4414653,49.9530904 26.9637735,49.9530904 C27.9525448,49.9530904 28.7014097,49.6711242 29.2094239,49.1076268 C29.7174811,48.5442163 29.9718531,47.6780563 29.9718531,46.5095382 L29.9718531,39.6845576 C29.9718531,39.5181128 29.88918,39.4340404 29.7245208,39.4340404 L27.7878855,39.4340404 Z M21.3181835,39.4340404 C21.166745,39.4340404 21.0912834,39.5181128 21.0912834,39.6845576 L21.0912834,47.0937755 C21.0912834,47.4830496 21.0741993,47.8937593 21.0403317,48.3251218 C21.0054339,48.7560496 20.9749573,49.1183228 20.9470992,49.4104197 C20.9195844,49.6049046 21.0020858,49.7025601 21.1946032,49.7025601 L22.9253285,49.7025601 C23.0623014,49.7025601 23.152014,49.6256444 23.193093,49.4727697 C23.2204361,49.3612006 23.2481225,49.1981516 23.2757661,48.9824486 C23.3031091,48.7667456 23.3302805,48.5403466 23.357924,48.3042516 C23.3852671,48.0673304 23.3995181,47.858932 23.3995181,47.6780563 L23.5225833,46.8432452 L23.5225833,39.6845576 C23.5225833,39.5181128 23.440597,39.4340404 23.2757661,39.4340404 L21.3181835,39.4340404" id="path15" fill="#244789" fill-rule="nonzero" transform="translate(25.4569, 44.6936) scale(-1, 1) rotate(-180) translate(-25.4569, -44.6936)"></path>
                    <path d="M36.5854388,36.9506079 C35.7890132,36.9506079 35.1535125,37.0757817 34.6798381,37.3262989 C34.2056485,37.576651 33.8624223,37.9662686 33.6494727,38.4949866 C33.4365231,39.023709 33.3300698,39.6981537 33.3300698,40.5193252 L33.3300698,45.4033613 L31.8260299,45.4033613 C31.661199,45.4033613 31.579041,45.4865816 31.579041,45.6538481 L31.579041,47.218945 C31.579041,47.3857333 31.661199,47.4693013 31.8260299,47.4693013 L33.4125282,47.4693013 L33.6805073,49.9738215 C33.7076357,50.1266528 33.797005,50.2034381 33.9482718,50.2034381 L35.5143378,50.2034381 C35.6791688,50.2034381 35.7613268,50.11987 35.7613268,49.9529078 L35.7613268,47.4693013 L38.5841432,47.4693013 C38.7488025,47.4693013 38.8314755,47.3857333 38.8314755,47.218945 L38.8314755,45.6538481 C38.8314755,45.4865816 38.7488025,45.4033613 38.5841432,45.4033613 L35.7613268,45.4033613 L35.7613268,40.6446773 C35.7613268,40.0881149 35.8644749,39.6845663 36.0706853,39.4342186 C36.2764236,39.1837014 36.6198215,39.0588667 37.1005356,39.0588667 C37.3478679,39.0588667 37.5985484,39.0863807 37.8525769,39.1419217 C38.1066055,39.197628 38.3438505,39.2742262 38.5634964,39.3715469 C38.7560139,39.4411841 38.8519077,39.3785124 38.8519077,39.1837014 L38.8519077,37.576651 C38.8519077,37.4375462 38.7903966,37.347191 38.6666446,37.3054113 C38.3916687,37.1945031 38.0794342,37.1072045 37.7289966,37.0445328 C37.3789025,36.9818611 36.9979455,36.9506079 36.5854388,36.9506079" id="path16" fill="#244789" transform="translate(35.2155, 43.577) scale(-1, 1) rotate(-180) translate(-35.2155, -43.577)"></path>
                    <path d="M40.8443881,35.6533462 C40.6929925,35.6533462 40.6175309,35.7374187 40.6175309,35.9038635 L40.6175309,45.2365382 C40.6175309,45.4033265 40.6929925,45.4868946 40.8443881,45.4868946 L42.8014985,45.4868946 C42.9663724,45.4868946 43.0487879,45.4033265 43.0487879,45.2365382 L43.0487879,35.9038635 C43.0487879,35.7374187 42.9663724,35.6533462 42.8014985,35.6533462 L40.8443881,35.6533462 Z M41.8331594,46.9689451 C41.3661812,46.9689451 41.0123955,47.0937755 40.7722745,47.3443058 C40.5316814,47.5948361 40.4112775,47.9149774 40.4112775,48.3042516 L40.4112775,48.6176101 C40.4112775,49.0209716 40.5316814,49.3440261 40.7722745,49.5879475 C41.0123955,49.8311297 41.3661812,49.9530904 41.8331594,49.9530904 C42.3001376,49.9530904 42.6502317,49.8311297 42.8841715,49.5879475 C43.1170382,49.3440261 43.2342227,49.0209716 43.2342227,48.6176101 L43.2342227,48.3042516 C43.2342227,47.9149774 43.1170382,47.5948361 42.8841715,47.3443058 C42.6502317,47.0937755 42.3001376,46.9689451 41.8331594,46.9689451" id="path17" fill="#244789" fill-rule="nonzero" transform="translate(41.8228, 42.8032) scale(-1, 1) rotate(-180) translate(-41.8228, -42.8032)"></path>
                    <path d="M49.6149846,39.4340404 C48.1589776,39.4340404 47.0429345,39.7958049 46.2668553,40.5193383 C45.4907761,41.2428673 45.1027365,42.2863811 45.1027365,43.6498667 L45.1027365,46.0081646 C45.1027365,47.3577323 45.49421,48.3945938 46.2775865,49.1181402 C47.0601044,49.8411648 48.1795815,50.2034381 49.6355885,50.2034381 C50.5554656,50.2034381 51.3319741,50.0534764 51.9642554,49.7545532 C52.595249,49.4552821 53.0764353,49.051877 53.4060973,48.5440771 C53.7361885,48.035712 53.8868543,47.4553878 53.8598117,46.801496 C53.8456466,46.5093556 53.7632311,46.3633071 53.612136,46.3633071 L51.7577874,46.3633071 C51.6066924,46.3633071 51.5311448,46.4743544 51.5311448,46.6970141 C51.5311448,47.1420293 51.3628799,47.4863019 51.0263499,47.7300059 C50.68982,47.9734055 50.2331008,48.0951922 49.6566216,48.0951922 C48.9419248,48.0951922 48.4096581,47.9108816 48.0593922,47.5423473 C47.7095556,47.1734217 47.5339935,46.5784884 47.5339935,45.7578082 L47.5339935,43.8798311 C47.5339935,43.0724123 47.7095556,42.4845879 48.0593922,42.1158579 C48.4096581,41.7471279 48.9350568,41.5631912 49.6355885,41.5631912 C50.2399688,41.5631912 50.7035559,41.6910826 51.0263499,41.9489044 C51.3491439,42.2062132 51.5105409,42.5367288 51.5105409,42.9406165 C51.5105409,43.1490236 51.5860885,43.253288 51.7371836,43.253288 L53.5919614,43.253288 C53.7426272,43.253288 53.8250427,43.1766767 53.8387786,43.0236715 C53.8662504,41.9385432 53.5224233,41.0689483 52.8085849,40.4148825 C52.0943174,39.7609863 51.0297839,39.4340404 49.6149846,39.4340404" id="path18" fill="#244789" transform="translate(49.4828, 44.8187) scale(-1, 1) rotate(-180) translate(-49.4828, -44.8187)"></path>
                    <path d="M62.0738891,39.684388 C61.9919028,39.684388 61.9330959,39.7088454 61.8991854,39.7575905 C61.8644164,39.8061661 61.8339398,39.8722336 61.8060387,39.9557973 C61.7785669,40.0948977 61.7446564,40.3345493 61.7034486,40.675761 C61.6618116,41.0166378 61.6274718,41.3332225 61.6004292,41.6253542 L61.4562021,42.4810182 L61.4562021,46.655404 C61.4562021,47.2396848 61.3390176,47.6535685 61.1059363,47.8969681 C60.8724257,48.1401938 60.4672162,48.262111 59.8898785,48.262111 C58.8463782,48.262111 58.3377201,47.8794892 58.3656212,47.1143327 C58.3656212,46.9473705 58.2900737,46.8638024 58.1385493,46.8638024 L56.28463,46.8638024 C56.1193698,46.8638024 56.0300863,46.9889806 56.0167797,47.2396848 C55.9343642,48.1715862 56.246427,48.8990457 56.9542559,49.4202809 C57.6612263,49.9422118 58.67425,50.2034381 59.9933272,50.2034381 C61.3390176,50.2034381 62.3245695,49.9107759 62.9495537,49.3265386 C63.5745378,48.7422578 63.8874591,47.8378791 63.8874591,46.6133156 L63.8874591,42.2724546 C63.8874591,41.8271263 63.8973318,41.4098208 63.918365,41.0202032 C63.9389688,40.6305812 63.9694454,40.2757821 64.0110824,39.9557973 C64.0385542,39.7749172 63.9625774,39.684388 63.7844398,39.684388 L62.0738891,39.684388 Z M58.1385493,39.4340404 C57.3143944,39.4340404 56.6829716,39.684388 56.242993,40.185766 C55.8034437,40.6862918 55.5840983,41.4028597 55.5840983,42.3349567 C55.5840983,43.0584988 55.7214575,43.6463014 55.9961758,44.0989255 C56.2708941,44.5507236 56.7207453,44.9055183 57.3457295,45.1628314 C57.9707136,45.4203184 58.8047412,45.590846 59.8491,45.6747619 L61.7652602,45.8412023 L61.7652602,44.3385859 L60.0551388,44.1925374 C59.2584557,44.1223611 58.7090191,43.9698777 58.4063997,43.7332609 C58.1042096,43.4968615 57.9535437,43.1141963 57.9535437,42.5854739 C57.9535437,42.1815862 58.0359592,41.8792672 58.2007902,41.6776647 C58.3656212,41.4758926 58.6197356,41.3750022 58.9627043,41.3750022 C59.3747817,41.3750022 59.7941564,41.5105373 60.2199698,41.7819465 C60.6453539,42.0531862 61.1810546,42.5367288 61.8270719,43.2324177 L61.9094873,41.5631912 C61.4974099,41.1035973 61.0917711,40.7141449 60.6938588,40.3939905 C60.295088,40.07401 59.8898785,39.8340192 59.4782303,39.6740268 C59.0661529,39.5145475 58.6197356,39.4340404 58.1385493,39.4340404" id="path19" fill="#244789" fill-rule="nonzero" transform="translate(59.8003, 44.8187) scale(-1, 1) rotate(-180) translate(-59.8003, -44.8187)"></path>
                    <path d="M83.5392615,11.9648428 C83.0104288,11.6654413 82.4026145,11.5161318 81.7158187,11.5161318 C81.11058,11.5161318 80.5954831,11.5787861 80.1537876,11.6930944 L78.2337642,14.542235 L77.8422906,14.542235 L76.4206234,11.9125367 C77.2173065,11.3699095 78.0448954,10.9733307 78.9033901,10.7229744 C79.7614555,10.4722702 80.7474367,10.3476137 81.8600459,10.3476137 C83.0413346,10.3476137 84.0818302,10.5526207 84.9815326,10.963113 C85.8812351,11.3733009 86.5817667,11.9470161 87.0831277,12.6849978 C87.5844886,13.4221099 87.835169,14.270791 87.835169,15.2309107 C87.835169,16.1214193 87.6218331,16.9038808 87.196449,17.5789908 C86.7706356,18.2537964 86.1731233,18.7789447 85.403912,19.1546532 C84.6342715,19.5299703 83.7349983,19.7181941 82.7048046,19.7181941 C82.004273,19.7181941 81.3106092,19.6171037 80.6238135,19.4153577 C80.1907029,19.2883099 79.8030925,19.1254348 79.4519682,18.9343413 L79.727545,23.0572645 L86.8873909,23.0572645 L87.2170528,26.2924618 L86.8461831,26.2924618 L85.1154578,25.0818118 L78.110141,25.0818118 L77.5950441,17.735257 L78.110141,17.2138479 C78.590898,17.5475984 79.1094288,17.7942155 79.6657334,17.9543514 C80.2220379,18.1145308 80.8431589,18.1946639 81.5303839,18.1946639 C82.6567289,18.1946639 83.5525682,17.902567 84.2191893,17.3178079 C84.8853812,16.7337011 85.2184771,15.9405436 85.2184771,14.9388138 C85.2184771,14.2845741 85.0708161,13.7001194 84.7754939,13.1854931 C84.4801717,12.6709103 84.0680942,12.263766 83.5392615,11.9648428" id="path20" fill="#DB2730" transform="translate(82.1279, 18.32) scale(-1, 1) rotate(-180) translate(-82.1279, -18.32)"></path>
                    <path d="M84.6106629,30.5154319 C84.0131506,30.0147192 83.2336374,29.7641889 82.2721233,29.7641889 C81.2419297,29.7641889 80.4280767,30.035459 79.8305644,30.5780862 C79.233052,31.1207569 78.9342959,31.843912 78.9342959,32.748682 C78.9342959,33.4441839 79.1643725,34.0980758 79.6245256,34.7103576 C79.9387347,35.1285023 80.3241988,35.4732966 80.7701868,35.7552628 C81.2260475,35.5966052 81.6793327,35.4446 82.1278962,35.3053344 C82.7322765,35.117154 83.288581,34.9050164 83.7968099,34.6687474 C84.3046095,34.4320002 84.716687,34.1430773 85.0330423,33.802544 C85.3489683,33.4617063 85.5069314,33.0200825 85.5069314,32.4774553 C85.5069314,31.6701669 85.2081752,31.0162751 84.6106629,30.5154319 L84.6106629,30.5154319 Z M79.7790547,41.4514135 C80.0125652,41.7992515 80.3319253,42.073913 80.7371348,42.2760069 C81.1423443,42.4772746 81.5848983,42.5783215 82.0660846,42.5783215 C82.9589191,42.5783215 83.6628847,42.3419221 84.1779816,41.868906 C84.6930784,41.3958899 84.9506268,40.7626944 84.9506268,39.9695369 C84.9506268,39.315645 84.7411541,38.7280163 84.3222087,38.2062594 C84.0457734,37.8621607 83.6925028,37.5630635 83.2761329,37.3007937 C83.1168821,37.3520998 82.9572021,37.4057538 82.7975221,37.4546685 C82.1862738,37.6427184 81.6265353,37.8546822 81.1183064,38.0916033 C80.6100776,38.3276983 80.2014341,38.6164038 79.892376,38.9574589 C79.5833179,39.2983401 79.4287888,39.7404421 79.4287888,40.2828954 C79.4287888,40.7139536 79.5451149,41.1037495 79.7790547,41.4514135 L79.7790547,41.4514135 Z M87.5364129,34.8458839 C87.2273548,35.3260307 86.818282,35.7226529 86.3104824,36.0356636 C85.8022535,36.3486743 85.2420858,36.6165095 84.6312668,36.8389954 C84.5578655,36.8656919 84.4844642,36.8897797 84.4110629,36.9161284 C85.1682552,37.1788765 85.7855129,37.5005397 86.2589727,37.8826831 C87.0350519,38.5089219 87.4230916,39.2736871 87.4230916,40.178631 C87.4230916,40.873959 87.2067509,41.485893 86.7740696,42.0149545 C86.3413882,42.5435377 85.733574,42.9542039 84.9506268,43.2463443 C84.1676796,43.5384412 83.2542413,43.6845331 82.2103117,43.6845331 C81.193854,43.6845331 80.2872835,43.5141795 79.4906005,43.1732983 C78.6939174,42.8322432 78.0654992,42.3626185 77.6053461,41.7644677 C77.1451929,41.1662734 76.9151163,40.4914677 76.9151163,39.7404421 C76.9151163,39.0022865 77.0696454,38.393918 77.3787035,37.914119 C77.6877616,37.4339722 78.0964051,37.0373934 78.6046339,36.7243828 C78.9488903,36.512419 79.3279157,36.3288041 79.7228233,36.1581026 C78.8832155,35.8445701 78.1968489,35.4668616 77.6671577,35.0233682 C76.8357056,34.327388 76.4206234,33.4925769 76.4206234,32.5190654 C76.4206234,31.711777 76.6575679,31.0196665 77.131457,30.442212 C77.6053461,29.8649315 78.274972,29.4160466 79.1403346,29.0962096 C80.0056973,28.7764161 81.029023,28.6164106 82.2103117,28.6164106 C83.3916004,28.6164106 84.4149261,28.7972864 85.2802888,29.1590378 C86.1456514,29.5204849 86.8152773,30.0317198 87.2891664,30.6929162 C87.7630555,31.353417 88,32.1292695 88,33.0200825 C88,33.7571946 87.845471,34.3660849 87.5364129,34.8458839" id="path21" fill="#DB2730" fill-rule="nonzero" transform="translate(82.2103, 36.1505) scale(-1, 1) rotate(-180) translate(-82.2103, -36.1505)"></path>
                    <polyline id="path22" fill="#FAB220" transform="translate(70.8376, 27.0161) scale(-1, 1) rotate(-180) translate(-70.8376, -27.0161)" points="72.0530316 3.03227732 69.6222038 3.03227732 69.6222038 51 72.0530316 51 72.0530316 3.03227732"></polyline>
                </g>
            </g>
        </g>
    </g>
</svg>