<?xml version="1.0" encoding="UTF-8"?>
<svg width="274px" height="157px" viewBox="0 0 274 157" version="1.1" xmlns="http://www.w3.org/2000/svg" xmlns:xlink="http://www.w3.org/1999/xlink">
    <title>Frame 2</title>
    <g id="Frame-2" stroke="none" fill="none" fill-rule="evenodd" stroke-width="1">
        <g id="Group" transform="translate(-0.7115, -0.0013)">
            <path d="M271.15146,54.7679986 C269.780793,56.8799986 267.86346,58.5253319 265.40346,59.7026652 C262.942127,60.8773318 260.05546,61.4653318 256.746127,61.4653318 C254.480794,61.4653318 252.25946,61.1399985 250.082127,60.4866652 C248.694127,60.0693318 247.444794,59.5453318 246.304794,58.9346652 L247.164794,70.8639982 L270.074127,70.8639982 L271.11946,81.3826646 L269.94346,81.3826646 L264.324793,77.4613314 L242.046127,77.4613314 L240.412794,54.4639986 L242.111461,52.765332 C243.591461,53.7679987 245.203461,54.5186653 246.946127,55.0199986 C248.688794,55.5199986 250.64746,55.7719986 252.826127,55.7719986 C256.354127,55.7719986 259.16346,54.8666653 261.254127,53.0599987 C263.344793,51.2519987 264.390127,48.8226654 264.390127,45.7746655 C264.390127,43.6839989 263.920793,42.2199989 262.984793,40.607999 C262.048793,38.995999 260.76346,37.7333324 259.13146,36.8199991 C257.496794,35.9039991 255.612794,35.4466658 253.47946,35.4466658 C251.634127,35.4466658 250.048794,35.6413324 248.67546,35.9933324 L242.503461,44.5986656 L241.262127,44.5986656 L236.623461,36.2359991 C239.148794,34.5386658 241.795461,33.2959992 244.562127,32.5119992 C247.326127,31.7279992 250.49546,31.3373325 254.06746,31.3373325 C257.856794,31.3373325 261.188793,31.9799992 264.06346,33.2639992 C266.938127,34.5493325 269.180793,36.3346658 270.792793,38.6213324 C272.40346,40.907999 273.210127,43.5759989 273.210127,46.6239988 C273.210127,49.4546654 272.524793,52.6559987 271.15146,54.7679986" id="path51" fill="#DB2730" transform="translate(254.9168, 56.36) scale(-1, 1) rotate(-180) translate(-254.9168, -56.36)"></path>
            <path d="M262.642127,93.8279977 C260.790127,92.261331 258.36346,91.477331 255.358127,91.477331 C252.178127,91.477331 249.65146,92.3159977 247.77946,93.993331 C245.906127,95.6679976 244.986127,97.5866642 244.986127,100.418664 C244.986127,102.594664 245.694127,104.631997 247.108794,106.526664 C248.058127,107.795997 249.226127,108.847997 250.576794,109.717331 C251.968794,109.238664 253.360794,108.778664 254.754127,108.355997 C256.69146,107.769331 258.466127,107.102664 260.078127,106.363997 C261.690127,105.622664 262.984793,104.718664 263.966127,103.651997 C264.946127,102.585331 265.43546,101.222664 265.43546,99.5693308 C265.43546,97.0866642 264.494127,95.3959976 262.642127,93.8279977 L262.642127,93.8279977 Z M247.631461,127.351997 C248.350127,128.418663 249.33946,129.267997 250.60346,129.899997 C251.86746,130.530663 253.260794,130.847997 254.784794,130.847997 C257.530127,130.847997 259.70746,130.106663 261.31946,128.626663 C262.930127,127.143997 263.736793,125.59333 263.736793,123.154664 C263.736793,121.14933 263.092793,119.342664 261.810127,117.730664 C260.96346,116.670664 259.884794,115.74533 258.614127,114.92933 C258.176794,115.067997 257.73946,115.21333 257.302127,115.346664 C255.36346,115.935997 253.588794,116.59733 251.976794,117.338664 C250.366127,118.079997 249.058127,118.982664 248.056794,120.050664 C247.054127,121.11733 246.554127,122.478664 246.554127,124.134664 C246.554127,125.482664 246.912794,126.282664 247.631461,127.351997 L247.631461,127.351997 Z M272.32746,107.049331 C271.348793,108.551997 270.05146,109.815997 268.440793,110.838664 C266.828793,111.861331 265.054127,112.721331 263.116793,113.419997 C262.882127,113.503997 262.64746,113.579997 262.412793,113.662664 C264.820793,114.478664 266.77946,115.474664 268.276793,116.654664 C270.738127,118.591997 271.968793,120.975997 271.968793,123.807997 C271.968793,125.983997 271.25946,127.890663 269.846127,129.523997 C268.428793,131.15733 266.470127,132.430663 263.966127,133.346663 C261.460793,134.259997 258.552794,134.71733 255.24346,134.71733 C251.932794,134.71733 249.004794,134.183997 246.456794,133.11733 C243.908794,132.04933 241.892794,130.591997 240.412794,128.739997 C238.931461,126.887997 238.191461,124.763997 238.191461,122.370664 C238.191461,120.06133 238.682127,118.155997 239.660794,116.654664 C240.642127,115.150664 241.948794,113.886664 243.582127,112.863997 C244.659461,112.187997 245.827461,111.610664 247.038127,111.077331 C244.411461,110.129331 242.267461,108.982664 240.608794,107.637331 C237.951461,105.481331 236.623461,102.857331 236.623461,99.7639975 C236.623461,97.2386642 237.384794,95.0706643 238.910127,93.2639977 C240.434127,91.4559977 242.579461,90.0506644 245.346127,89.0493311 C248.11146,88.0479978 251.410127,87.5466645 255.24346,87.5466645 C258.988794,87.5466645 262.25546,88.1133311 265.04346,89.2466644 C267.830127,90.3773311 269.986127,91.9786644 271.51146,94.0479976 C273.03546,96.1159976 273.798127,98.5439975 273.798127,101.331997 C273.798127,103.641331 273.308793,105.547997 272.32746,107.049331" id="path52" fill="#DB2730" fill-rule="nonzero" transform="translate(255.2108, 111.132) scale(-1, 1) rotate(-180) translate(-255.2108, -111.132)"></path>
            <path d="M63.9359984,38.8586657 C63.9994651,37.7066657 64.0307984,36.4893324 64.0307984,35.2093325 L64.0307984,12.361333 C64.0307984,11.8506664 64.2650651,11.593333 64.7354651,11.593333 L70.8161316,11.593333 C71.3275982,11.593333 71.5827982,11.8506664 71.5827982,12.361333 L71.5827982,31.4986659 C72.1874649,32.2066659 72.8103982,32.8653325 73.4707982,33.4173325 C74.3890648,34.1866658 75.3483981,34.7719991 76.3514648,35.1786658 C77.3541314,35.5839991 78.3247981,35.7853324 79.2634647,35.7853324 C79.6901314,35.7853324 80.0954647,35.7639991 80.480798,35.7213324 C80.8634647,35.6786658 81.1834647,35.6359991 81.4394647,35.5946658 C81.992798,35.4666658 82.3141313,35.6786658 82.3994646,36.2346658 C82.5274646,37.2586657 82.600798,38.355999 82.6234646,39.5293323 C82.644798,40.7026656 82.612798,41.8026656 82.5274646,42.8253323 C82.5274646,43.2506656 82.3354646,43.5293322 81.9514646,43.6573322 C81.524798,43.7853322 80.948798,43.8506656 80.2234647,43.8506656 C79.2421314,43.8506656 78.1647981,43.5613322 76.9914648,42.9853323 C75.8171981,42.4106656 74.6650648,41.619999 73.5359982,40.6173323 C72.6250649,39.8093323 71.8109316,38.887999 71.0531982,37.8999991 C71.0354649,38.491999 71.0041316,39.1173324 70.9437316,39.8173323 C70.8578649,40.7986656 70.7302649,41.6733323 70.5593316,42.4413323 C70.4734649,42.8679989 70.1963983,43.0826656 69.7275983,43.0826656 L64.3510651,43.0826656 C63.7535984,43.0826656 63.4969318,42.8039989 63.5827984,42.2506656 C63.7535984,41.139999 63.8718651,40.0093323 63.9359984,38.8586657" id="path53" fill="#244789" transform="translate(73.0983, 27.722) scale(-1, 1) rotate(-180) translate(-73.0983, -27.722)"></path>
            <path d="M107.115464,13.7706663 C107.115464,11.3386664 106.560797,9.5133331 105.451464,8.29733313 C104.342131,7.08133316 102.636797,6.47333317 100.331464,6.47333317 C99.5207975,6.47333317 98.6567976,6.5266665 97.7407976,6.63333317 C96.8221309,6.73999983 95.958131,6.87866649 95.1474643,7.05066649 L95.1474643,22.8879994 C96.5661309,24.0773327 97.7967976,24.9719994 98.8274642,25.546666 C100.128798,26.270666 101.398131,26.6333327 102.636797,26.6333327 C104.171464,26.6333327 105.302131,26.142666 106.028797,25.162666 C106.754131,24.1799994 107.115464,22.6439994 107.115464,20.5533328 L107.115464,13.7706663 Z M112.300797,30.3773326 C110.720797,32.2346659 108.372797,33.1626658 105.259464,33.1626658 C103.339464,33.1626658 101.483464,32.7559992 99.6927975,31.9466659 C98.2061309,31.2746659 96.6914643,30.2466659 95.1474643,28.8999993 L95.1474643,43.8493322 C95.1474643,44.3613322 94.8914643,44.6186656 94.3794643,44.6186656 L88.3007978,44.6186656 C87.8301312,44.6186656 87.5954645,44.3613322 87.5954645,43.8493322 L87.5954645,1.54666663 C89.3447978,1.4173333 90.9341311,1.24666664 92.3647977,1.03333331 C93.7927977,0.821333313 95.202131,0.618666651 96.5887976,0.425333323 C97.9741309,0.234666661 99.4781309,0.13733333 101.099464,0.13733333 C105.707464,0.13733333 109.120797,1.21466664 111.339464,3.36933325 C113.558131,5.52399986 114.667464,8.77866645 114.667464,13.129333 L114.667464,21.8346661 C114.667464,25.674666 113.878131,28.5213326 112.300797,30.3773326" id="path54" fill="#244789" fill-rule="nonzero" transform="translate(101.1315, 22.378) scale(-1, 1) rotate(-180) translate(-101.1315, -22.378)"></path>
            <path d="M125.047464,0 C126.49813,0 127.58613,0.382666657 128.312797,1.15066664 C129.036797,1.91866662 129.399463,2.90133326 129.399463,4.09466656 L129.399463,5.05599987 C129.399463,6.29333318 129.036797,7.28399982 128.312797,8.03066647 C127.58613,8.77733311 126.49813,9.15066644 125.047464,9.15066644 C123.596797,9.15066644 122.49813,8.77733311 121.752797,8.03066647 C121.004797,7.28399982 120.631464,6.29333318 120.631464,5.05599987 L120.631464,4.09466656 C120.631464,2.90133326 121.004797,1.91866662 121.752797,1.15066664 C122.49813,0.382666657 123.596797,0 125.047464,0" id="path55" fill="#244789" transform="translate(125.0155, 4.5753) scale(-1, 1) rotate(-180) translate(-125.0155, -4.5753)"></path>
            <path d="M128.824797,14.4626663 L128.824797,43.0813323 C128.824797,43.5933322 128.568797,43.8506656 128.056797,43.8506656 L121.97813,43.8506656 C121.507464,43.8506656 121.272797,43.5933322 121.272797,43.0813323 L121.272797,14.4626663 C121.272797,13.9519997 121.507464,13.6946663 121.97813,13.6946663 L128.056797,13.6946663 C128.568797,13.6946663 128.824797,13.9519997 128.824797,14.4626663" id="path56" fill="#244789" transform="translate(125.0488, 28.7727) scale(-1, 1) rotate(-180) translate(-125.0488, -28.7727)"></path>
            <path d="M143.639463,12.361333 L143.639463,33.1133325 C144.984796,34.3626658 146.21413,35.3333324 147.319463,36.0093324 C148.748796,36.8839991 150.208796,37.3213324 151.703463,37.3213324 C153.196796,37.3213324 154.30613,36.8946657 155.031463,36.0413324 C155.756796,35.1879991 156.119463,33.8653325 156.119463,32.0746659 L156.119463,12.361333 C156.119463,11.8506664 156.375463,11.593333 156.887463,11.593333 L162.903463,11.593333 C163.415463,11.593333 163.671463,11.8506664 163.671463,12.361333 L163.671463,33.2906658 C163.671463,36.8733324 162.880796,39.5293323 161.303463,41.2586656 C159.724796,42.9853323 157.399463,43.8506656 154.327463,43.8506656 C152.704796,43.8506656 151.211463,43.5946656 149.847463,43.0826656 C148.480796,42.5706656 147.168796,41.843999 145.911463,40.9066656 C144.98613,40.215999 144.068796,39.3866657 143.155463,38.4893324 C143.144796,38.5946657 143.139463,38.6866657 143.127463,38.7946657 C143.040796,39.5186657 142.956796,40.211999 142.871463,40.8733323 C142.78613,41.5346656 142.700796,42.0346656 142.615463,42.3773323 C142.487463,42.8466656 142.208796,43.0826656 141.783463,43.0826656 L136.407463,43.0826656 C135.81013,43.0826656 135.552797,42.7826656 135.639463,42.1866656 C135.724797,41.2906656 135.819463,40.179999 135.927463,38.8586657 C136.03413,37.5346657 136.087463,36.2759991 136.087463,35.0826658 L136.087463,12.361333 C136.087463,11.8506664 136.320797,11.593333 136.791463,11.593333 L142.871463,11.593333 C143.383463,11.593333 143.639463,11.8506664 143.639463,12.361333" id="path57" fill="#244789" transform="translate(149.6473, 27.722) scale(-1, 1) rotate(-180) translate(-149.6473, -27.722)"></path>
            <path d="M190.775462,25.3533327 C190.775462,22.8359994 190.263462,20.9906661 189.239462,19.8173328 C188.215462,18.6439995 186.551462,18.0586662 184.248795,18.0586662 C181.943462,18.0586662 180.268796,18.6439995 179.223462,19.8173328 C178.178129,20.9906661 177.655462,22.8359994 177.655462,25.3533327 L177.655462,30.8573326 C177.655462,33.3746658 178.178129,35.2199991 179.223462,36.3946658 C180.268796,37.5666657 181.943462,38.1533324 184.248795,38.1533324 C186.551462,38.1533324 188.215462,37.5666657 189.239462,36.3946658 C190.263462,35.2199991 190.775462,33.3746658 190.775462,30.8573326 L190.775462,25.3533327 Z M194.679462,41.3546656 C192.248795,43.5293322 188.768795,44.6186656 184.248795,44.6186656 C179.682129,44.6186656 176.183462,43.5293322 173.752796,41.3546656 C171.319462,39.1786657 170.103462,35.9146658 170.103462,31.5626659 L170.103462,24.6493327 C170.103462,20.2546662 171.330129,16.9799996 173.783462,14.825333 C176.236796,12.6706663 179.724796,11.593333 184.248795,11.593333 C188.814129,11.593333 192.300795,12.6706663 194.711462,14.825333 C197.122128,16.9799996 198.327462,20.2546662 198.327462,24.6493327 L198.327462,31.5626659 C198.327462,35.9146658 197.111462,39.1786657 194.679462,41.3546656" id="path58" fill="#244789" fill-rule="nonzero" transform="translate(184.2155, 28.106) scale(-1, 1) rotate(-180) translate(-184.2155, -28.106)"></path>
            <path d="M70.8005316,65.726665 C72.3786649,65.726665 73.8619982,66.0053317 75.2483981,66.558665 C76.6341314,67.1133317 77.9567981,67.8719983 79.2154647,68.8306649 C80.1754647,69.5626649 81.128798,70.4026649 82.0781313,71.2973316 C82.120798,70.7413316 82.1541313,70.1866649 82.2234646,69.6306649 C82.3301313,68.7773316 82.448798,67.966665 82.576798,67.1999983 C82.660798,66.7293317 82.960798,66.494665 83.4727979,66.494665 L88.6554645,66.494665 C89.2541311,66.494665 89.5087978,66.7519983 89.4247978,67.262665 C89.2541311,68.4159983 89.1367978,69.5986649 89.0727978,70.8159982 C89.0087978,72.0319982 88.9767978,73.2573315 88.9767978,74.4946648 L88.9767978,97.2159976 C88.9767978,97.726665 88.7421311,97.9839976 88.2714645,97.9839976 L82.192798,97.9839976 C81.680798,97.9839976 81.424798,97.726665 81.424798,97.2159976 L81.424798,76.4986648 C80.136798,75.2813315 78.9527981,74.3239981 77.8727981,73.6306648 C76.4421314,72.7133315 75.0245315,72.2559982 73.6171982,72.2559982 C72.2926649,72.2559982 71.3229316,72.6813315 70.7041316,73.5359982 C70.0859983,74.3879981 69.7754649,75.7106648 69.7754649,77.5026647 L69.7754649,97.2159976 C69.7754649,97.726665 69.520265,97.9839976 69.0087983,97.9839976 L62.9281318,97.9839976 C62.4583985,97.9839976 62.2239985,97.726665 62.2239985,97.2159976 L62.2239985,76.2866648 C62.2239985,72.7879982 62.9489318,70.1533316 64.4010651,68.382665 C65.8499984,66.6119983 67.9843983,65.726665 70.8005316,65.726665" id="path59" fill="#244789" transform="translate(75.8322, 81.8553) scale(-1, 1) rotate(-180) translate(-75.8322, -81.8553)"></path>
            <path d="M107.156797,64.958665 C111.295464,64.958665 114.45413,65.7599984 116.63013,67.358665 C118.80613,68.958665 119.89413,71.3159982 119.89413,74.4319981 C119.89413,76.5213314 119.391464,78.215998 118.39013,79.5186647 C117.38613,80.819998 115.755464,81.939998 113.494131,82.8799979 L106.198131,85.9506645 C104.874131,86.5053312 103.988797,86.9973312 103.540797,87.4239978 C103.094131,87.8493311 102.870131,88.4479978 102.870131,89.2159978 C102.870131,90.2386644 103.231464,91.0066644 103.958131,91.5186644 C104.683464,92.0306644 105.791464,92.2866644 107.286131,92.2866644 C108.735464,92.2866644 109.867464,92.0199977 110.678131,91.4879977 C111.487464,90.9533311 111.894131,90.2159977 111.894131,89.2786644 C111.894131,88.5959978 112.150131,88.2559978 112.662131,88.2559978 L118.42213,88.2559978 C118.932797,88.2559978 119.19013,88.4893311 119.19013,88.958665 C119.19013,91.9026644 118.16613,94.1426643 116.11813,95.6786643 C114.070131,97.2159976 111.019464,97.9839976 106.966131,97.9839976 C102.998131,97.9839976 100.063464,97.2466642 98.1661309,95.7759976 C96.266131,94.3026643 95.3167976,92.1159977 95.3167976,89.2159978 C95.3167976,87.1666645 95.798131,85.5026645 96.7581309,84.2239979 C97.7181309,82.9426646 99.3074642,81.8333313 101.526131,80.8946646 L108.820797,77.8239981 C110.058131,77.3119981 110.955464,76.7679981 111.510131,76.1906648 C112.063464,75.6146648 112.342131,74.9213315 112.342131,74.1119981 C112.342131,72.958665 111.915464,72.1053315 111.062131,71.5519982 C110.207464,70.9973316 108.907464,70.7186649 107.156797,70.7186649 C105.494131,70.7186649 104.256797,71.0813316 103.446131,71.8066649 C102.635464,72.5319982 102.230131,73.6639982 102.230131,75.1986648 C102.230131,75.6693314 102.015464,75.9026648 101.590131,75.9026648 L95.830131,75.9026648 C95.3167976,75.9026648 95.062131,75.6693314 95.062131,75.1986648 C94.9327977,71.6999982 95.862131,69.1186649 97.8461309,67.454665 C99.8301309,65.790665 102.932797,64.958665 107.156797,64.958665" id="path60" fill="#244789" transform="translate(107.4722, 81.4713) scale(-1, 1) rotate(-180) translate(-107.4722, -81.4713)"></path>
            <path d="M132.43013,67.0599983 C132.940797,67.0599983 133.19813,67.3173317 133.19813,67.8279983 L133.19813,96.4479976 C133.19813,96.9586642 132.940797,97.2159976 132.43013,97.2159976 L126.35013,97.2159976 C125.879464,97.2159976 125.64613,96.9586642 125.64613,96.4479976 L125.64613,67.8279983 C125.64613,67.3173317 125.879464,67.0599983 126.35013,67.0599983 L132.43013,67.0599983" id="path61" fill="#244789" transform="translate(129.4221, 82.138) scale(-1, 1) rotate(-180) translate(-129.4221, -82.138)"></path>
            <path d="M129.42213,62.5159984 C127.971463,62.5159984 126.872797,62.1426651 126.12613,61.3959985 C125.379464,60.6493318 125.004797,59.6573318 125.004797,58.4213319 L125.004797,57.4599986 C125.004797,56.2666653 125.379464,55.2839986 126.12613,54.5159986 C126.872797,53.7479987 127.971463,53.365332 129.42213,53.365332 C130.872797,53.365332 131.959463,53.7479987 132.68613,54.5159986 C133.41013,55.2839986 133.77413,56.2666653 133.77413,57.4599986 L133.77413,58.4213319 C133.77413,59.6573318 133.41013,60.6493318 132.68613,61.3959985 C131.959463,62.1426651 130.872797,62.5159984 129.42213,62.5159984" id="path62" fill="#244789" transform="translate(129.3895, 57.9407) scale(-1, 1) rotate(-180) translate(-129.3895, -57.9407)"></path>
            <path d="M160.891463,96.6066643 C158.928796,97.5239976 156.516796,97.9839976 153.65813,97.9839976 C149.136796,97.9839976 145.65813,96.8733309 143.227463,94.6559976 C140.795463,92.437331 139.579463,89.2573311 139.579463,85.1186645 L139.579463,77.8879981 C139.579463,73.7053315 140.783463,70.5053316 143.195463,68.286665 C145.604796,66.0679983 149.072796,64.958665 153.595463,64.958665 C157.988796,64.958665 161.296796,65.9613317 163.515463,67.966665 C165.732796,69.9719983 166.800796,72.6386649 166.714129,75.9666648 C166.671463,76.4373314 166.416796,76.6719981 165.947463,76.6719981 L160.187463,76.6719981 C159.716796,76.6719981 159.483463,76.3506648 159.483463,75.7119981 C159.483463,74.4733315 158.982129,73.4599982 157.979463,72.6719982 C156.976796,71.8813315 155.536796,71.4879982 153.65813,71.4879982 C151.483463,71.4879982 149.851463,72.0519982 148.76213,73.1826648 C147.675463,74.3133315 147.131463,76.1159981 147.131463,78.591998 L147.131463,84.3506646 C147.131463,86.8679978 147.675463,88.6919978 148.76213,89.8239978 C149.851463,90.9533311 151.503463,91.5186644 153.723463,91.5186644 C155.515463,91.5186644 156.932796,91.1453311 157.979463,90.3986644 C159.024796,89.6519978 159.546129,88.5959978 159.546129,87.2306645 C159.546129,86.5493312 159.780796,86.2079978 160.251463,86.2079978 L166.011463,86.2079978 C166.480796,86.2079978 166.736796,86.6559978 166.779463,87.5519978 C166.864796,89.5573311 166.395463,91.3359977 165.371463,92.8946643 C164.347463,94.4519976 162.852796,95.6893309 160.891463,96.6066643" id="path63" fill="#244789" transform="translate(153.1844, 81.4713) scale(-1, 1) rotate(-180) translate(-153.1844, -81.4713)"></path>
            <path d="M190.374129,75.4253314 C188.879462,73.9266648 187.592795,72.8253315 186.535462,72.1599982 C185.211462,71.3279982 183.911462,70.9106649 182.631462,70.9106649 C181.563462,70.9106649 180.775462,71.2213316 180.262129,71.8386649 C179.751462,72.4573315 179.495462,73.3853315 179.495462,74.6226648 C179.495462,76.2439981 179.964796,77.4173314 180.903462,78.1426647 C181.840795,78.867998 183.547462,79.335998 186.023462,79.551998 L190.374129,79.9186647 L190.374129,75.4253314 Z M198.311462,66.5599983 C198.183462,67.5399983 198.087462,68.6279983 198.023462,69.8239983 C197.959462,71.0173316 197.927462,72.2973315 197.927462,73.6639982 L197.927462,86.9746645 C197.927462,90.7293311 196.956795,93.5026643 195.015462,95.2946643 C193.072795,97.0866642 190.012795,97.9839976 185.831462,97.9839976 C181.735462,97.9839976 178.588796,97.1826642 176.391462,95.5826643 C174.194129,93.9839977 173.223462,91.753331 173.479462,88.8946644 C173.520796,88.1266645 173.799462,87.7426645 174.311462,87.7426645 L180.071462,87.7426645 C180.539462,87.7426645 180.775462,87.9999978 180.775462,88.5106645 C180.688796,90.8573311 182.267462,92.0306644 185.511462,92.0306644 C187.303462,92.0306644 188.560795,91.657331 189.287462,90.9106644 C190.012795,90.1639977 190.374129,88.8946644 190.374129,87.1039978 L190.374129,84.5253312 L185.382129,84.0959979 C182.140795,83.8386646 179.547462,83.3159979 177.607462,82.5266646 C175.664796,81.7373313 174.267462,80.6493313 173.415462,79.263998 C172.560796,77.8759981 172.135462,76.0733314 172.135462,73.8546648 C172.135462,70.9973316 172.816796,68.7986649 174.183462,67.2639983 C175.547462,65.726665 177.511462,64.958665 180.071462,64.958665 C181.563462,64.958665 182.951462,65.2053317 184.231462,65.694665 C185.511462,66.1853317 186.768795,66.9213317 188.007462,67.902665 C188.970129,68.666665 189.946129,69.5639983 190.935462,70.5853316 C190.998129,70.0039982 191.064795,69.4039983 191.143462,68.7679983 C191.270129,67.7213316 191.376795,66.9853317 191.463462,66.5599983 C191.547462,66.302665 191.644795,66.0999983 191.751462,65.950665 C191.858129,65.8013317 192.039462,65.726665 192.295462,65.726665 L197.607462,65.726665 C198.160795,65.726665 198.395462,66.0053317 198.311462,66.5599983" id="path64" fill="#244789" fill-rule="nonzero" transform="translate(185.2318, 81.4713) scale(-1, 1) rotate(-180) translate(-185.2318, -81.4713)"></path>
            <path d="M83.2341313,153.183996 C81.6114647,153.183996 80.1181314,152.926664 78.7541314,152.415996 C77.3874648,151.903996 76.0754648,151.17733 74.8177315,150.239996 C73.8921315,149.54933 72.9754649,148.719996 72.0619982,147.822663 C72.0515982,147.926664 72.0463982,148.019996 72.0338649,148.127996 C71.9478649,148.850663 71.8630649,149.54533 71.7786649,150.206663 C71.6921316,150.867996 71.6067982,151.367996 71.5218649,151.710663 C71.3942649,152.179996 71.1155982,152.415996 70.6901316,152.415996 L65.3135984,152.415996 C64.7155984,152.415996 64.4593317,152.115996 64.5453317,151.519996 C64.6311984,150.623996 64.7259984,149.51333 64.8343984,148.191996 C64.9401317,146.867996 64.9931984,145.60933 64.9931984,144.415996 L64.9931984,121.694664 C64.9931984,121.183997 65.2275984,120.926664 65.697865,120.926664 L71.7786649,120.926664 C72.2901316,120.926664 72.5453315,121.183997 72.5453315,121.694664 L72.5453315,142.446663 C73.8917315,143.695996 75.1202648,144.666663 76.2261315,145.342663 C77.6541314,146.21733 79.1154647,146.654663 80.6101313,146.654663 C82.1021313,146.654663 83.2114646,146.227996 83.9367979,145.374663 C84.6621312,144.52133 85.0261312,143.198663 85.0261312,141.407996 L85.0261312,121.694664 C85.0261312,121.183997 85.2821312,120.926664 85.7941312,120.926664 L91.8101311,120.926664 C92.3207977,120.926664 92.578131,121.183997 92.578131,121.694664 L92.578131,142.623996 C92.578131,146.206663 91.7874644,148.862663 90.2087978,150.590663 C88.6314645,152.318663 86.3061312,153.183996 83.2341313,153.183996" id="path65" fill="#244789" transform="translate(78.5536, 137.0553) scale(-1, 1) rotate(-180) translate(-78.5536, -137.0553)"></path>
            <path d="M119.264797,120.735997 C118.583464,120.43733 117.84613,120.202664 117.056797,120.031997 C116.267464,119.86133 115.488797,119.77733 114.720797,119.77733 C113.227464,119.77733 112.160797,120.159997 111.522131,120.927997 C110.880797,121.695997 110.560797,122.93333 110.560797,124.639997 L110.560797,139.23333 L119.328797,139.23333 C119.840797,139.23333 120.09813,139.487997 120.09813,140.00133 L120.09813,144.799996 C120.09813,145.311997 119.840797,145.56933 119.328797,145.56933 L110.560797,145.56933 L110.560797,153.183996 C110.560797,153.695996 110.306131,153.951996 109.794131,153.951996 L104.930131,153.951996 C104.459464,153.951996 104.182131,153.717329 104.098131,153.247996 L103.264797,145.56933 L98.3367976,145.56933 C97.8247976,145.56933 97.5701309,145.311997 97.5701309,144.799996 L97.5701309,140.00133 C97.5701309,139.487997 97.8247976,139.23333 98.3367976,139.23333 L103.008797,139.23333 L103.008797,124.255997 C103.008797,121.73733 103.339464,119.66933 104.000797,118.047997 C104.662131,116.426664 105.728797,115.231997 107.202131,114.463997 C108.672797,113.695997 110.647464,113.311997 113.120797,113.311997 C114.40213,113.311997 115.58613,113.407997 116.672797,113.599997 C117.76213,113.791997 118.731464,114.059997 119.58613,114.399997 C119.97013,114.527997 120.160797,114.80533 120.160797,115.231997 L120.160797,120.159997 C120.160797,120.75733 119.863464,120.94933 119.264797,120.735997" id="path66" fill="#244789" transform="translate(108.8655, 133.632) scale(-1, 1) rotate(-180) translate(-108.8655, -133.632)"></path>
            <path d="M132.43013,153.183996 L126.35013,153.183996 C125.879464,153.183996 125.64613,152.926663 125.64613,152.414663 L125.64613,123.795997 C125.64613,123.28533 125.879464,123.027997 126.35013,123.027997 L132.43013,123.027997 C132.940797,123.027997 133.19813,123.28533 133.19813,123.795997 L133.19813,152.414663 C133.19813,152.926663 132.940797,153.183996 132.43013,153.183996" id="path67" fill="#244789" transform="translate(129.4221, 138.106) scale(-1, 1) rotate(-180) translate(-129.4221, -138.106)"></path>
            <path d="M129.42213,118.483997 C127.971463,118.483997 126.872797,118.110664 126.12613,117.363997 C125.379464,116.61733 125.004797,115.62533 125.004797,114.38933 L125.004797,113.427997 C125.004797,112.234664 125.379464,111.251997 126.12613,110.483997 C126.872797,109.715997 127.971463,109.333331 129.42213,109.333331 C130.872797,109.333331 131.959463,109.715997 132.68613,110.483997 C133.41013,111.251997 133.772797,112.234664 133.772797,113.427997 L133.772797,114.38933 C133.772797,115.62533 133.41013,116.61733 132.68613,117.363997 C131.959463,118.110664 130.872797,118.483997 129.42213,118.483997" id="path68" fill="#244789" transform="translate(129.3888, 113.9087) scale(-1, 1) rotate(-180) translate(-129.3888, -113.9087)"></path>
            <path d="M148.76213,145.790663 C149.85013,146.92133 151.50213,147.486663 153.72213,147.486663 C155.514129,147.486663 156.931463,147.11333 157.978129,146.366663 C159.023463,145.618663 159.544796,144.563996 159.544796,143.198663 C159.544796,142.51733 159.779463,142.175996 160.250129,142.175996 L166.010129,142.175996 C166.479463,142.175996 166.735463,142.623996 166.778129,143.518663 C166.863463,145.523996 166.394129,147.303996 165.370129,148.862663 C164.346129,150.419996 162.851463,151.65733 160.890129,152.574663 C158.927463,153.491996 156.515463,153.951996 153.656796,153.951996 C149.135463,153.951996 145.656796,152.84133 143.22613,150.623996 C140.79413,148.40533 139.57813,145.22533 139.57813,141.086663 L139.57813,133.854663 C139.57813,129.67333 140.78213,126.47333 143.19413,124.254664 C145.603463,122.035997 149.071463,120.926664 153.59413,120.926664 C157.987463,120.926664 161.295463,121.92933 163.514129,123.934664 C165.731463,125.939997 166.799463,128.606663 166.712796,131.934663 C166.670129,132.403997 166.415463,132.638663 165.946129,132.638663 L160.186129,132.638663 C159.715463,132.638663 159.482129,132.318663 159.482129,131.678663 C159.482129,130.44133 158.980796,129.427997 157.978129,128.638663 C156.975463,127.847997 155.535463,127.454663 153.656796,127.454663 C151.48213,127.454663 149.85013,128.019997 148.76213,129.150663 C147.67413,130.28133 147.13013,132.083997 147.13013,134.559997 L147.13013,140.318663 C147.13013,142.835996 147.67413,144.659996 148.76213,145.790663" id="path69" fill="#244789" transform="translate(153.1831, 137.4393) scale(-1, 1) rotate(-180) translate(-153.1831, -137.4393)"></path>
            <path d="M190.375462,131.39333 C188.879462,129.89333 187.592795,128.79333 186.535462,128.126663 C185.211462,127.294663 183.910129,126.878663 182.630129,126.878663 C181.563462,126.878663 180.774129,127.187997 180.263462,127.806663 C179.751462,128.42533 179.494129,129.351997 179.494129,130.590663 C179.494129,132.211997 179.963462,133.38533 180.902129,134.110663 C181.840795,134.835997 183.547462,135.303997 186.023462,135.518663 L190.375462,135.886663 L190.375462,131.39333 Z M198.311462,122.526664 C198.182128,123.507997 198.087462,124.595997 198.023462,125.790664 C197.958128,126.98533 197.927462,128.26533 197.927462,129.630663 L197.927462,142.942663 C197.927462,146.69733 196.955462,149.470663 195.014128,151.262663 C193.072795,153.054663 190.011462,153.951996 185.830129,153.951996 C181.734129,153.951996 178.587462,153.150663 176.390129,151.550663 C174.192796,149.951996 173.222129,147.72133 173.479462,144.862663 C173.520796,144.094663 173.798129,143.710663 174.311462,143.710663 L180.070129,143.710663 C180.540796,143.710663 180.774129,143.966663 180.774129,144.478663 C180.688796,146.82533 182.267462,147.998663 185.510129,147.998663 C187.303462,147.998663 188.560795,147.623996 189.286129,146.878663 C190.011462,146.131996 190.375462,144.862663 190.375462,143.071996 L190.375462,140.491996 L185.382129,140.063996 C182.139462,139.806663 179.547462,139.283997 177.606129,138.494663 C175.664796,137.70533 174.267462,136.61733 173.415462,135.231997 C172.560796,133.843997 172.135462,132.04133 172.135462,129.822663 C172.135462,126.963997 172.816796,124.766664 174.182129,123.231997 C175.547462,121.694664 177.510129,120.926664 180.070129,120.926664 C181.563462,120.926664 182.950129,121.17333 184.230129,121.662664 C185.510129,122.15333 186.767462,122.88933 188.006129,123.870664 C188.968795,124.634664 189.946129,125.531997 190.934129,126.554664 C190.996795,125.971997 191.064795,125.371997 191.143462,124.734664 C191.270129,123.687997 191.376795,122.95333 191.462129,122.526664 C191.547462,122.270664 191.643462,122.067997 191.751462,121.918664 C191.856795,121.76933 192.039462,121.694664 192.294129,121.694664 L197.606128,121.694664 C198.159462,121.694664 198.395462,121.971997 198.311462,122.526664" id="path70" fill="#244789" fill-rule="nonzero" transform="translate(185.2317, 137.4393) scale(-1, 1) rotate(-180) translate(-185.2317, -137.4393)"></path>
            <polyline id="path71" fill="#FAB220" transform="translate(219.5141, 82.8467) scale(-1, 1) rotate(-180) translate(-219.5141, -82.8467)" points="215.738128 9.29866643 223.290128 9.29866643 223.290128 156.394663 215.738128 156.394663 215.738128 9.29866643"></polyline>
            <path d="M55.538532,20.7946661 L55.538532,44.5853322 L53.8811987,44.5853322 L43.6843989,41.143999 L43.6843989,39.9973323 L48.1453322,36.4439991 L48.1453322,22.1319994 C48.0911988,22.0813328 48.0359988,22.0373328 47.9811988,21.9879995 C47.1150655,21.1186661 46.2401322,20.4306662 45.3546656,19.9439995 C44.0822656,19.2426662 42.7130656,18.8919995 41.2474657,18.8919995 C39.281199,18.8919995 37.8838657,19.4866662 37.0551991,20.6759995 C36.4619991,21.5266661 36.0906658,22.7973328 35.9213325,24.4519994 C35.8474658,25.1119994 35.7999991,25.8159994 35.7999991,26.6039993 L35.7999991,44.5853322 L34.1437325,44.5853322 L24.2010661,41.079999 L24.2010661,39.9973323 L28.407866,36.5226658 L28.407866,23.6813327 C28.407866,19.9853328 29.2453326,17.1906662 30.9250659,15.2999996 C32.1655992,13.901333 33.8327992,13.0239997 35.9213325,12.6599997 C36.5895991,12.5319997 37.3031991,12.4639997 38.0666657,12.4639997 C39.9562657,12.4639997 41.6718656,12.9106663 43.2150656,13.801333 C44.6791989,14.6506663 46.2713322,16.0533329 47.9811988,17.9759996 C48.0797322,18.0759995 48.1739988,18.1613329 48.2729322,18.2639995 L48.7198655,18.2639995 L50.7587988,12.5279997 L52.0333321,12.5279997 L59.6182652,16.4159996 L59.6182652,17.5626662 L55.538532,20.7946661" id="path72" fill="#DB2730" transform="translate(41.9097, 28.5247) scale(-1, 1) rotate(-180) translate(-41.9097, -28.5247)"></path>
            <path d="M54.6614653,69.9919983 L54.6614653,85.9999978 C54.6614653,89.6106644 53.7906653,92.3826644 52.0483987,94.317331 C50.7578654,95.7479976 49.0573321,96.6466643 46.9515989,97.0186642 L46.9515989,97.0186642 C46.2442655,97.1479976 45.4917322,97.2159976 44.6890656,97.2159976 C42.5297323,97.2159976 40.555199,96.7599976 38.7630657,95.8466643 C37.2286658,95.0639976 35.6630658,93.8106643 34.0687992,92.1399977 L34.0687992,92.137331 C33.7906658,91.8586644 33.5130659,91.593331 33.2333325,91.2893311 L32.9901325,91.2893311 C32.5713325,92.4559977 32.0010659,93.4719977 31.2578659,94.317331 C29.9931993,95.7546643 28.327066,96.6546643 26.2641327,97.0226642 C26.2641327,97.0226642 24.8770661,97.2159976 24.1177328,97.2159976 C21.9583995,97.2159976 20.0239995,96.7599976 18.3141329,95.8466643 C16.7395996,95.005331 15.0931996,93.6279977 13.3811997,91.7626644 C13.226533,91.5999977 13.074533,91.4586644 12.9182664,91.2893311 L12.600533,91.2893311 L12.9182664,96.7066642 L11.2619997,96.7066642 L1,92.6919977 L1,91.545331 L5.59013322,87.5933311 L5.59013322,70.0013316 L1.1276,66.3693317 L1.1276,65.4133317 L17.1890663,65.4133317 L17.1890663,66.3693317 L12.9822664,70.0053316 L12.9822664,87.0506645 C13.1130664,87.1773312 13.2483997,87.2866645 13.3811997,87.4079978 C15.5598663,89.4613311 18.0166662,90.5039977 20.7578662,90.5039977 C22.7526661,90.5039977 24.1989328,89.8773311 25.0953327,88.6239978 C25.6593327,87.8333311 26.0239994,86.7333312 26.2311994,85.3906645 C26.2311994,85.3906645 26.4141327,83.6879979 26.4141327,82.7919979 L26.4141327,69.9906649 L22.3349328,66.3693317 L22.3349328,65.4133317 L37.9494657,65.4133317 L37.9494657,66.3693317 L33.8073325,69.9506649 L33.8073325,84.0879979 L33.8073325,85.9999978 L33.8073325,87.5226645 C33.8926658,87.5933311 33.9854658,87.6506645 34.0713325,87.7199978 L34.0713325,87.7226645 C34.8343992,88.3666645 35.6365325,88.9293311 36.5031991,89.3559978 C38.0505324,90.1213311 39.6593324,90.5039977 41.329199,90.5039977 C43.3661323,90.5039977 44.8625322,89.8773311 45.8198655,88.6239978 C46.3469322,87.9319978 46.7145322,87.0106645 46.9515989,85.8986645 L46.9515989,85.8986645 C47.1526655,84.9946645 47.2682655,83.9733312 47.2682655,82.7919979 L47.2682655,69.9906649 L43.1890656,66.3693317 L43.1890656,65.4133317 L59.0587985,65.4133317 L59.0587985,66.3693317 L54.6614653,69.9919983" id="path73" fill="#DB2730" transform="translate(30.0294, 81.3147) scale(-1, 1) rotate(-180) translate(-30.0294, -81.3147)"></path>
            <path d="M49.0843988,137.959997 L49.0843988,129.714663 C48.8223988,129.494663 48.5531988,129.283997 48.2765322,129.079997 C48.1010655,128.94933 47.9177322,128.82933 47.7365322,128.706663 C47.6369322,128.639997 47.5417322,128.56933 47.4406655,128.50533 C47.1969322,128.34933 46.9453322,128.203997 46.6917322,128.062663 C46.6505322,128.039997 46.6114655,128.014663 46.5707989,127.99333 C46.2822655,127.835997 45.9865322,127.691997 45.6854655,127.55733 C45.6786655,127.554663 45.6718655,127.550663 45.6650656,127.547997 C44.4155989,126.98933 43.0541323,126.63733 41.5833323,126.566664 C41.4098657,126.558664 41.239599,126.538664 41.0630657,126.538664 C41.0614657,126.538664 41.060399,126.538664 41.0593323,126.538664 C41.0578657,126.538664 41.0562657,126.538664 41.0546657,126.538664 C39.4817324,126.538664 38.2395991,126.942663 37.3265324,127.74933 C36.4125324,128.555997 35.9557325,129.243997 35.9557325,130.64533 C35.9557325,132.34533 36.6026658,133.51733 37.8994657,134.494663 C39.1953324,135.471997 41.458399,136.363997 44.6874656,137.171997 L49.0843988,138.215997 L49.0843988,137.959997 Z M56.4775986,129.651997 L56.4775986,142.798663 C56.4775986,146.535996 55.2994653,149.330663 52.9411987,151.178663 C50.5833321,153.027996 47.0661322,153.951996 42.393199,153.951996 C40.7770657,153.951996 39.1521324,153.823996 37.5166658,153.569329 C35.8811991,153.314663 34.3411992,152.95333 32.8969325,152.486663 C31.4515992,152.01733 30.1770659,151.46533 29.0729326,150.82933 L32.5141325,143.243996 L33.7250658,143.243996 L38.6026657,149.558663 C39.582799,149.930663 40.6109323,150.127996 41.691199,150.127996 C44.1130656,150.127996 45.9515989,149.415996 47.2041322,147.991996 C48.4583988,146.56933 49.0843988,144.475996 49.0843988,141.714663 L49.0843988,141.698663 L41.818799,140.503996 C41.7406656,140.490663 41.6693323,140.474663 41.5917323,140.46133 C32.8750659,138.907997 28.511466,135.31333 28.511466,129.66933 C28.511466,127.20533 29.3781326,125.19733 31.1155992,123.646664 C32.8515992,122.095997 35.1005325,121.319997 37.8625324,121.319997 C39.1797324,121.319997 40.4166657,121.474664 41.5917323,121.74933 C42.444799,121.94533 43.2702656,122.194664 44.0505323,122.530664 C45.9193322,123.33733 47.6406655,124.591997 49.2119988,126.291997 L49.7865321,126.291997 L51.6338654,121.383997 L52.9087987,121.383997 L60.5573318,125.271997 L60.5573318,126.418664 L56.4775986,129.651997" id="path74" fill="#DB2730" fill-rule="nonzero" transform="translate(44.5344, 137.636) scale(-1, 1) rotate(-180) translate(-44.5344, -137.636)"></path>
        </g>
    </g>
</svg>