<?xml version="1.0" encoding="UTF-8"?>
<svg width="274px" height="157px" viewBox="0 0 274 157" version="1.1" xmlns="http://www.w3.org/2000/svg" xmlns:xlink="http://www.w3.org/1999/xlink">
    <title>Frame</title>
    <g id="Frame" stroke="none" fill="none" fill-rule="evenodd" stroke-width="1">
        <g id="Group" transform="translate(0.2885, 0.16)" fill="#FFFFFF">
            <path d="M270.15146,54.7691986 C268.780793,56.8810652 266.86346,58.5269319 264.40346,59.7039985 C261.942127,60.8786651 259.05546,61.4666651 255.746127,61.4666651 C253.480794,61.4666651 251.25946,61.1413318 249.082127,60.4879985 C247.694127,60.0706652 246.444794,59.5467985 245.304794,58.9358652 L246.164794,70.8653316 L269.074127,70.8653316 L270.11946,81.383998 L268.94346,81.383998 L263.324793,77.4626647 L241.046127,77.4626647 L239.412794,54.4654653 L241.111461,52.768132 C242.591461,53.7691987 244.203461,54.520132 245.946127,55.0211986 C247.688794,55.5211986 249.64746,55.7733319 251.826127,55.7733319 C255.354127,55.7733319 258.16346,54.868132 260.254127,53.061332 C262.344793,51.2534654 263.390127,48.8253321 263.390127,45.7758655 C263.390127,43.6853322 262.920793,42.2201323 261.984793,40.609199 C261.048793,38.9973324 259.76346,37.7347991 258.13146,36.8211991 C256.496794,35.9055991 254.612794,35.4482658 252.47946,35.4482658 C250.634127,35.4482658 249.048794,35.6425324 247.67546,35.9946658 L241.503461,44.6014656 L240.262127,44.6014656 L235.623461,36.2373324 C238.148794,34.5399991 240.795461,33.2973325 243.562127,32.5134659 C246.326127,31.7295992 249.49546,31.3373325 253.06746,31.3373325 C256.856794,31.3373325 260.188793,31.9815992 263.06346,33.2654658 C265.938127,34.5509325 268.180793,36.3358658 269.792793,38.622799 C271.40346,40.909199 272.210127,43.5774656 272.210127,46.6253322 C272.210127,49.4561321 271.524793,52.6571987 270.15146,54.7691986" id="path3" transform="translate(253.9168, 56.3607) scale(-1, 1) rotate(-180) translate(-253.9168, -56.3607)"></path>
            <path d="M261.642127,93.827731 C259.790127,92.2610644 257.36346,91.4771977 254.358127,91.4771977 C251.178127,91.4771977 248.65146,92.315731 246.77946,93.991731 C244.906127,95.6677309 243.986127,97.5865309 243.986127,100.418264 C243.986127,102.595864 244.694127,104.631864 246.108794,106.526664 C247.058127,107.795864 248.226127,108.847997 249.576794,109.717331 C250.968794,109.238664 252.360794,108.778797 253.754127,108.355864 C255.69146,107.767731 257.466127,107.102664 259.078127,106.363597 C260.690127,105.622531 261.984793,104.718264 262.966127,103.651597 C263.946127,102.584931 264.43546,101.222531 264.43546,99.5693308 C264.43546,97.0865309 263.494127,95.3958643 261.642127,93.827731 L261.642127,93.827731 Z M246.631461,127.351597 C247.350127,128.418263 248.33946,129.26773 249.60346,129.899597 C250.86746,130.530263 252.260794,130.847997 253.784794,130.847997 C256.530127,130.847997 258.70746,130.106397 260.31946,128.626663 C261.930127,127.143863 262.736793,125.59333 262.736793,123.153197 C262.736793,121.150664 262.092793,119.342264 260.810127,117.730264 C259.96346,116.670397 258.884794,115.74493 257.614127,114.929197 C257.176794,115.06773 256.73946,115.213064 256.302127,115.346397 C254.36346,115.934397 252.588794,116.59693 250.976794,117.338664 C249.366127,118.07973 248.058127,118.983997 247.056794,120.050664 C246.054127,121.11733 245.554127,122.478264 245.554127,124.134397 C245.554127,125.483997 245.912794,126.283997 246.631461,127.351597 L246.631461,127.351597 Z M271.32746,107.049064 C270.348793,108.551597 269.05146,109.815731 267.440793,110.838664 C265.828793,111.861064 264.054127,112.720931 262.116793,113.419864 C261.882127,113.50373 261.64746,113.57973 261.412793,113.66253 C263.820793,114.478264 265.77946,115.47453 267.276793,116.653197 C269.738127,118.59173 270.968793,120.975597 270.968793,123.807864 C270.968793,125.983997 270.25946,127.890663 268.846127,129.523997 C267.428793,131.15733 265.470127,132.430263 262.966127,133.346397 C260.460793,134.261063 257.552794,134.71733 254.24346,134.71733 C250.932794,134.71733 248.004794,134.183997 245.456794,133.11733 C242.908794,132.049063 240.892794,130.59173 239.412794,128.73973 C237.931461,126.887597 237.191461,124.763597 237.191461,122.370397 C237.191461,120.061064 237.682127,118.155864 238.660794,116.653197 C239.642127,115.150664 240.948794,113.88653 242.582127,112.863597 C243.659461,112.187597 244.827461,111.610531 246.038127,111.077197 C243.411461,110.129197 241.267461,108.983997 239.608794,107.637064 C236.951461,105.481331 235.623461,102.857331 235.623461,99.7635975 C235.623461,97.2386642 236.384794,95.0703976 237.910127,93.2635977 C239.434127,91.4558644 241.579461,90.0506644 244.346127,89.0490644 C247.11146,88.0479978 250.410127,87.5463978 254.24346,87.5463978 C257.988794,87.5463978 261.25546,88.1130645 264.04346,89.2463978 C266.830127,90.3771977 268.986127,91.979731 270.51146,94.0479976 C272.03546,96.1157309 272.798127,98.5438642 272.798127,101.331864 C272.798127,103.641197 272.308793,105.546398 271.32746,107.049064" id="path4" fill-rule="nonzero" transform="translate(254.2108, 111.1319) scale(-1, 1) rotate(-180) translate(-254.2108, -111.1319)"></path>
            <path d="M62.9359984,38.8586657 C62.9994651,37.7053324 63.0307984,36.4893324 63.0307984,35.2093325 L63.0307984,12.3626664 C63.0307984,11.8506664 63.2650651,11.593333 63.7354651,11.593333 L69.8161316,11.593333 C70.3275982,11.593333 70.5827982,11.8506664 70.5827982,12.3626664 L70.5827982,31.4986659 C71.1874649,32.2066659 71.8103982,32.8653325 72.4707982,33.4186658 C73.3890648,34.1866658 74.3483981,34.7719991 75.3514648,35.1786658 C76.3541314,35.5839991 77.3247981,35.7853324 78.2634647,35.7853324 C78.6901314,35.7853324 79.0954647,35.7639991 79.480798,35.7213324 C79.8634647,35.6786658 80.1834647,35.6359991 80.4394647,35.593333 C80.992798,35.4666658 81.3141313,35.6786658 81.3994646,36.2346658 C81.5274646,37.2573324 81.600798,38.355999 81.6234646,39.5306657 C81.644798,40.7026656 81.612798,41.8026656 81.5274646,42.8253323 C81.5274646,43.2519989 81.3354646,43.5306656 80.9514646,43.6573322 C80.524798,43.7853322 79.948798,43.8506656 79.2234647,43.8506656 C78.2421314,43.8506656 77.1647981,43.5613322 75.9914648,42.9853323 C74.8171981,42.4106656 73.6650648,41.619999 72.5359982,40.6173323 C71.6250649,39.8093323 70.8109316,38.887999 70.0531982,37.8999991 C70.0354649,38.491999 70.0041316,39.1173324 69.9437316,39.8173323 C69.8578649,40.7986656 69.7302649,41.6733323 69.5593316,42.4413323 C69.4734649,42.8666656 69.1963983,43.0826656 68.7275983,43.0826656 L63.3510651,43.0826656 C62.7535984,43.0826656 62.4969318,42.8039989 62.5827984,42.2506656 C62.7535984,41.139999 62.8718651,40.0093323 62.9359984,38.8586657" id="path5" transform="translate(72.0983, 27.722) scale(-1, 1) rotate(-180) translate(-72.0983, -27.722)"></path>
            <path d="M106.115464,13.7706663 C106.115464,11.3386664 105.560797,9.5133331 104.451464,8.29733313 C103.342131,7.08133316 101.636797,6.47333317 99.3314642,6.47333317 C98.5207975,6.47333317 97.6567976,6.5266665 96.7407976,6.63333317 C95.8221309,6.73999983 94.958131,6.87866649 94.1474643,7.05066649 L94.1474643,22.8879994 C95.5661309,24.0773327 96.7967976,24.9719994 97.8274642,25.546666 C99.1287975,26.270666 100.398131,26.6333327 101.636797,26.6333327 C103.171464,26.6333327 104.302131,26.142666 105.028797,25.162666 C105.754131,24.1799994 106.115464,22.6439994 106.115464,20.5546662 L106.115464,13.7706663 Z M111.300797,30.3773326 C109.720797,32.2346659 107.372797,33.1626658 104.259464,33.1626658 C102.339464,33.1626658 100.483464,32.7559992 98.6927975,31.9466659 C97.2061309,31.2746659 95.6914643,30.2453326 94.1474643,28.8999993 L94.1474643,43.8493322 C94.1474643,44.3613322 93.8914643,44.6186656 93.3794643,44.6186656 L87.3007978,44.6186656 C86.8301312,44.6186656 86.5954645,44.3613322 86.5954645,43.8493322 L86.5954645,1.54666663 C88.3447978,1.4173333 89.9341311,1.24666664 91.3647977,1.03333331 C92.7927977,0.821333313 94.202131,0.618666651 95.5887976,0.425333323 C96.9741309,0.233333328 98.4781309,0.13733333 100.099464,0.13733333 C104.707464,0.13733333 108.120797,1.21466664 110.339464,3.36933325 C112.558131,5.52399986 113.667464,8.77866645 113.667464,13.129333 L113.667464,21.8346661 C113.667464,25.674666 112.878131,28.5213326 111.300797,30.3773326" id="path6" fill-rule="nonzero" transform="translate(100.1315, 22.378) scale(-1, 1) rotate(-180) translate(-100.1315, -22.378)"></path>
            <path d="M124.047464,0 C125.49813,0 126.58613,0.382666657 127.312797,1.15066664 C128.036797,1.91866662 128.399463,2.90133326 128.399463,4.09466656 L128.399463,5.05599987 C128.399463,6.29333318 128.036797,7.28399982 127.312797,8.03066647 C126.58613,8.77733311 125.49813,9.15066644 124.047464,9.15066644 C122.596797,9.15066644 121.49813,8.77733311 120.752797,8.03066647 C120.004797,7.28399982 119.631464,6.29333318 119.631464,5.05599987 L119.631464,4.09466656 C119.631464,2.90133326 120.004797,1.91866662 120.752797,1.15066664 C121.49813,0.382666657 122.596797,0 124.047464,0" id="path7" transform="translate(124.0155, 4.5753) scale(-1, 1) rotate(-180) translate(-124.0155, -4.5753)"></path>
            <path d="M127.824797,14.4639996 L127.824797,43.0813323 C127.824797,43.5933322 127.568797,43.8506656 127.056797,43.8506656 L120.97813,43.8506656 C120.507464,43.8506656 120.272797,43.5933322 120.272797,43.0813323 L120.272797,14.4639996 C120.272797,13.9519997 120.507464,13.6946663 120.97813,13.6946663 L127.056797,13.6946663 C127.568797,13.6946663 127.824797,13.9519997 127.824797,14.4639996" id="path8" transform="translate(124.0488, 28.7727) scale(-1, 1) rotate(-180) translate(-124.0488, -28.7727)"></path>
            <path d="M142.639463,12.3626664 L142.639463,33.1133325 C143.984796,34.3626658 145.21413,35.3333325 146.319463,36.0093324 C147.748796,36.8839991 149.208796,37.3213324 150.703463,37.3213324 C152.196796,37.3213324 153.30613,36.8946657 154.031463,36.0413324 C154.756796,35.1879991 155.119463,33.8653325 155.119463,32.0746659 L155.119463,12.3626664 C155.119463,11.8506664 155.375463,11.593333 155.887463,11.593333 L161.903463,11.593333 C162.415463,11.593333 162.671463,11.8506664 162.671463,12.3626664 L162.671463,33.2906658 C162.671463,36.8733324 161.880796,39.5306657 160.303463,41.2573323 C158.724796,42.9853323 156.399463,43.8506656 153.327463,43.8506656 C151.704796,43.8506656 150.211463,43.593333 148.847463,43.0826656 C147.480796,42.5706656 146.168796,41.843999 144.911463,40.9066656 C143.98613,40.215999 143.068796,39.3866657 142.155463,38.4893324 C142.144796,38.593333 142.139463,38.6866657 142.127463,38.7946657 C142.040796,39.5186657 141.956796,40.211999 141.871463,40.8733323 C141.78613,41.5346656 141.700796,42.0346656 141.615463,42.3773323 C141.487463,42.8466656 141.208796,43.0826656 140.783463,43.0826656 L135.407463,43.0826656 C134.81013,43.0826656 134.552797,42.7826656 134.639463,42.1866656 C134.724797,41.2906656 134.819463,40.179999 134.927463,38.8586657 C135.03413,37.5346657 135.087463,36.2759991 135.087463,35.0826658 L135.087463,12.3626664 C135.087463,11.8506664 135.320797,11.593333 135.791463,11.593333 L141.871463,11.593333 C142.383463,11.593333 142.639463,11.8506664 142.639463,12.3626664" id="path9" transform="translate(148.6473, 27.722) scale(-1, 1) rotate(-180) translate(-148.6473, -27.722)"></path>
            <path d="M189.775462,25.354666 C189.775462,22.8359994 189.263462,20.9906661 188.239462,19.8173328 C187.215462,18.6439995 185.551462,18.0586662 183.248795,18.0586662 C180.943462,18.0586662 179.268796,18.6439995 178.223462,19.8173328 C177.178129,20.9906661 176.655462,22.8359994 176.655462,25.354666 L176.655462,30.8573326 C176.655462,33.3746658 177.178129,35.2199991 178.223462,36.3946658 C179.268796,37.5666657 180.943462,38.1533324 183.248795,38.1533324 C185.551462,38.1533324 187.215462,37.5666657 188.239462,36.3946658 C189.263462,35.2199991 189.775462,33.3746658 189.775462,30.8573326 L189.775462,25.354666 Z M193.679462,41.3546656 C191.248795,43.5293322 187.768795,44.6186656 183.248795,44.6186656 C178.682129,44.6186656 175.183462,43.5293322 172.752796,41.3546656 C170.319462,39.1786657 169.103462,35.9133324 169.103462,31.5626659 L169.103462,24.6493327 C169.103462,20.2546662 170.330129,16.9799996 172.783462,14.825333 C175.236796,12.6706663 178.724796,11.593333 183.248795,11.593333 C187.814129,11.593333 191.300795,12.6706663 193.711462,14.825333 C196.122128,16.9799996 197.327462,20.2546662 197.327462,24.6493327 L197.327462,31.5626659 C197.327462,35.9133324 196.111462,39.1786657 193.679462,41.3546656" id="path10" fill-rule="nonzero" transform="translate(183.2155, 28.106) scale(-1, 1) rotate(-180) translate(-183.2155, -28.106)"></path>
            <path d="M69.8005316,65.726665 C71.3786649,65.726665 72.8619982,66.0053317 74.2483981,66.559065 C75.6341314,67.1131983 76.9567981,67.8719983 78.2154647,68.8309316 C79.1754647,69.5642649 80.128798,70.4027982 81.0781313,71.2975982 C81.120798,70.7427982 81.1541313,70.1866649 81.2234646,69.6309316 C81.3301313,68.7771983 81.448798,67.9667983 81.576798,67.2001317 C81.660798,66.7293317 81.960798,66.4949317 82.4727979,66.4949317 L87.6554645,66.4949317 C88.2541311,66.4949317 88.5087978,66.752265 88.4247978,67.264265 C88.2541311,68.416265 88.1367978,69.6001316 88.0727978,70.8162649 C88.0087978,72.0318649 87.9767978,73.2574648 87.9767978,74.4949315 L87.9767978,97.2146642 C87.9767978,97.726665 87.7421311,97.9839976 87.2714645,97.9839976 L81.192798,97.9839976 C80.680798,97.9839976 80.424798,97.726665 80.424798,97.2146642 L80.424798,76.4985314 C79.136798,75.2813315 77.9527981,74.3241315 76.8727981,73.6309315 C75.4421314,72.7121315 74.0245315,72.2558649 72.6171982,72.2558649 C71.2926649,72.2558649 70.3229316,72.6813315 69.7041316,73.5361315 C69.0859983,74.3881315 68.7754649,75.7121314 68.7754649,77.5027981 L68.7754649,97.2146642 C68.7754649,97.726665 68.520265,97.9839976 68.0087983,97.9839976 L61.9281318,97.9839976 C61.4583985,97.9839976 61.2239985,97.726665 61.2239985,97.2146642 L61.2239985,76.2866648 C61.2239985,72.7881315 61.9489318,70.1533316 63.4010651,68.3829316 C64.8499984,66.6121317 66.9843983,65.726665 69.8005316,65.726665" id="path11" transform="translate(74.8322, 81.8553) scale(-1, 1) rotate(-180) translate(-74.8322, -81.8553)"></path>
            <path d="M106.156797,64.9583984 C110.295464,64.9583984 113.45413,65.7599984 115.63013,67.3583983 C117.80613,68.9583984 118.89413,71.3157316 118.89413,74.4318648 C118.89413,76.5209314 118.391464,78.2173314 117.39013,79.518398 C116.38613,80.8198646 114.755464,81.941198 112.494131,82.8797313 L105.198131,85.9506645 C103.874131,86.5053312 102.988797,86.9969312 102.540797,87.4235978 C102.094131,87.8490645 101.870131,88.4463978 101.870131,89.2157311 C101.870131,90.2386644 102.231464,91.0063977 102.958131,91.5183977 C103.683464,92.0302644 104.791464,92.286531 106.286131,92.286531 C107.735464,92.286531 108.867464,92.0198644 109.678131,91.4875977 C110.487464,90.9531977 110.894131,90.2173311 110.894131,89.2782644 C110.894131,88.5959978 111.150131,88.2558645 111.662131,88.2558645 L117.42213,88.2558645 C117.932797,88.2558645 118.19013,88.4891978 118.19013,88.9583984 C118.19013,91.9026644 117.16613,94.1422643 115.11813,95.6782643 C113.070131,97.2157309 110.019464,97.9839976 105.966131,97.9839976 C101.998131,97.9839976 99.0634642,97.2463976 97.1661309,95.7755976 C95.266131,94.302131 94.3167976,92.115731 94.3167976,89.2157311 C94.3167976,87.1662645 94.798131,85.5026645 95.7581309,84.2225312 C96.7181309,82.9438646 98.3074642,81.8329313 100.526131,80.894398 L107.820797,77.8235981 C109.058131,77.3115981 109.955464,76.7678647 110.510131,76.1902648 C111.063464,75.6146648 111.342131,74.9209315 111.342131,74.1105315 C111.342131,72.9583984 110.915464,72.1053315 110.062131,71.5517315 C109.207464,70.9969316 107.907464,70.7198649 106.156797,70.7198649 C104.494131,70.7198649 103.256797,71.0813316 102.446131,71.8063982 C101.635464,72.5318649 101.230131,73.6635982 101.230131,75.1985315 C101.230131,75.6678648 101.015464,75.9026648 100.590131,75.9026648 L94.830131,75.9026648 C94.3167976,75.9026648 94.062131,75.6678648 94.062131,75.1985315 C93.9327977,71.6995982 94.862131,69.1183983 96.8461309,67.454265 C98.8301309,65.7907984 101.932797,64.9583984 106.156797,64.9583984" id="path12" transform="translate(106.4722, 81.4712) scale(-1, 1) rotate(-180) translate(-106.4722, -81.4712)"></path>
            <path d="M131.43013,67.0599983 C131.940797,67.0599983 132.19813,67.3173317 132.19813,67.8293316 L132.19813,96.4463976 C132.19813,96.9583976 131.940797,97.2157309 131.43013,97.2157309 L125.35013,97.2157309 C124.879464,97.2157309 124.64613,96.9583976 124.64613,96.4463976 L124.64613,67.8293316 C124.64613,67.3173317 124.879464,67.0599983 125.35013,67.0599983 L131.43013,67.0599983" id="path13" transform="translate(128.4221, 82.1379) scale(-1, 1) rotate(-180) translate(-128.4221, -82.1379)"></path>
            <path d="M128.42213,62.5157318 C126.971463,62.5157318 125.872797,62.1422651 125.12613,61.3954651 C124.379464,60.6490652 124.004797,59.6583985 124.004797,58.4209319 L124.004797,57.4594652 C124.004797,56.2662653 124.379464,55.2834653 125.12613,54.515732 C125.872797,53.7474653 126.971463,53.3651987 128.42213,53.3651987 C129.872797,53.3651987 130.959463,53.7474653 131.68613,54.515732 C132.41013,55.2834653 132.77413,56.2662653 132.77413,57.4594652 L132.77413,58.4209319 C132.77413,59.6583985 132.41013,60.6490652 131.68613,61.3954651 C130.959463,62.1422651 129.872797,62.5157318 128.42213,62.5157318" id="path14" transform="translate(128.3895, 57.9405) scale(-1, 1) rotate(-180) translate(-128.3895, -57.9405)"></path>
            <path d="M159.891463,96.6078643 C157.928796,97.5235976 155.516796,97.9839976 152.65813,97.9839976 C148.136796,97.9839976 144.65813,96.8730642 142.227463,94.6558643 C139.795463,92.4370644 138.579463,89.2569311 138.579463,85.1183979 L138.579463,77.8875981 C138.579463,73.7053315 139.783463,70.5053316 142.195463,68.2865316 C144.604796,66.067865 148.072796,64.9583984 152.595463,64.9583984 C156.988796,64.9583984 160.296796,65.961065 162.515463,67.966265 C164.732796,69.9719983 165.800796,72.6386649 165.714129,75.9662648 C165.671463,76.4370648 165.416796,76.6703981 164.947463,76.6703981 L159.187463,76.6703981 C158.716796,76.6703981 158.483463,76.3506648 158.483463,75.7115981 C158.483463,74.4730648 157.982129,73.4599982 156.979463,72.6703982 C155.976796,71.8813315 154.536796,71.4875982 152.65813,71.4875982 C150.483463,71.4875982 148.851463,72.0531982 147.76213,73.1823982 C146.675463,74.3130648 146.131463,76.1157314 146.131463,78.5917314 L146.131463,84.3506646 C146.131463,86.8678645 146.675463,88.6917311 147.76213,89.8235978 C148.851463,90.9531977 150.503463,91.5183977 152.723463,91.5183977 C154.515463,91.5183977 155.932796,91.1449311 156.979463,90.3985311 C158.024796,89.6517311 158.546129,88.5959978 158.546129,87.2302645 C158.546129,86.5490645 158.780796,86.2078645 159.251463,86.2078645 L165.011463,86.2078645 C165.480796,86.2078645 165.736796,86.6558645 165.779463,87.5517311 C165.864796,89.5558644 165.395463,91.3359977 164.371463,92.8943977 C163.347463,94.451731 161.852796,95.6891976 159.891463,96.6078643" id="path15" transform="translate(152.1844, 81.4712) scale(-1, 1) rotate(-180) translate(-152.1844, -81.4712)"></path>
            <path d="M189.374129,75.4250648 C187.879462,73.9266648 186.592795,72.8250648 185.535462,72.1599982 C184.211462,71.3277316 182.911462,70.9105316 181.631462,70.9105316 C180.563462,70.9105316 179.775462,71.2209316 179.262129,71.8386649 C178.751462,72.4574649 178.495462,73.3850648 178.495462,74.6225315 C178.495462,76.2438648 178.964796,77.4173314 179.903462,78.1422647 C180.840795,78.8678647 182.547462,79.335998 185.023462,79.5517313 L189.374129,79.918398 L189.374129,75.4250648 Z M197.311462,66.5583983 C197.183462,67.5397316 197.087462,68.6277316 197.023462,69.8235983 C196.959462,71.0173316 196.927462,72.2969315 196.927462,73.6635982 L196.927462,86.9745312 C196.927462,90.7293311 195.956795,93.5026643 194.015462,95.2943976 C192.072795,97.0865309 189.012795,97.9839976 184.831462,97.9839976 C180.735462,97.9839976 177.588796,97.1823976 175.391462,95.5823976 C173.194129,93.9839977 172.223462,91.7531977 172.479462,88.8943978 C172.520796,88.1266645 172.799462,87.7422645 173.311462,87.7422645 L179.071462,87.7422645 C179.539462,87.7422645 179.775462,87.9995978 179.775462,88.5105311 C179.688796,90.8569311 181.267462,92.0302644 184.511462,92.0302644 C186.303462,92.0302644 187.560795,91.656931 188.287462,90.9105311 C189.012795,90.1651977 189.374129,88.8943978 189.374129,87.1037312 L189.374129,84.5250646 L184.382129,84.0959979 C181.140795,83.8386646 178.547462,83.3157313 176.607462,82.5266646 C174.664796,81.7370646 173.267462,80.6490647 172.415462,79.263598 C171.560796,77.8755981 171.135462,76.0730648 171.135462,73.8542648 C171.135462,70.9969316 171.816796,68.7985316 173.183462,67.2635983 C174.547462,65.726665 176.511462,64.9583984 179.071462,64.9583984 C180.563462,64.9583984 181.951462,65.2053317 183.231462,65.6943984 C184.511462,66.185065 185.768795,66.9209317 187.007462,67.902665 C187.970129,68.666265 188.946129,69.5635983 189.935462,70.5865316 C189.998129,70.0037316 190.064795,69.4037316 190.143462,68.7678649 C190.270129,67.7209316 190.376795,66.985065 190.463462,66.5583983 C190.547462,66.3021317 190.644795,66.0995983 190.751462,65.950665 C190.858129,65.8011984 191.039462,65.726665 191.295462,65.726665 L196.607462,65.726665 C197.160795,65.726665 197.395462,66.0037317 197.311462,66.5583983" id="path16" fill-rule="nonzero" transform="translate(184.2318, 81.4712) scale(-1, 1) rotate(-180) translate(-184.2318, -81.4712)"></path>
            <path d="M82.2341313,153.183996 C80.6114647,153.183996 79.1181314,152.926664 77.7541314,152.416263 C76.3874648,151.904263 75.0754648,151.177196 73.8177315,150.240263 C72.8921315,149.549596 71.9754649,148.719996 71.0619982,147.82253 C71.0515982,147.926664 71.0463982,148.019996 71.0338649,148.128263 C70.9478649,148.852263 70.8630649,149.545463 70.7786649,150.20693 C70.6921316,150.867863 70.6067982,151.367863 70.5218649,151.71053 C70.3942649,152.179863 70.1155982,152.416263 69.6901316,152.416263 L64.3135984,152.416263 C63.7155984,152.416263 63.4593317,152.116263 63.5453317,151.519996 C63.6311984,150.62413 63.7259984,149.513196 63.8343984,148.191863 C63.9401317,146.867863 63.9931984,145.609463 63.9931984,144.416263 L63.9931984,121.69493 C63.9931984,121.183997 64.2275984,120.926664 64.697865,120.926664 L70.7786649,120.926664 C71.2901316,120.926664 71.5453315,121.183997 71.5453315,121.69493 L71.5453315,142.44653 C72.8917315,143.695996 74.1202648,144.666796 75.2261315,145.342796 C76.6541314,146.21733 78.1154647,146.654796 79.6101313,146.654796 C81.1021313,146.654796 82.2114646,146.228263 82.9367979,145.374663 C83.6621312,144.521463 84.0261312,143.19853 84.0261312,141.407996 L84.0261312,121.69493 C84.0261312,121.183997 84.2821312,120.926664 84.7941312,120.926664 L90.8101311,120.926664 C91.3207977,120.926664 91.578131,121.183997 91.578131,121.69493 L91.578131,142.62413 C91.578131,146.20693 90.7874644,148.862663 89.2087978,150.590796 C87.6314645,152.31893 85.3061312,153.183996 82.2341313,153.183996" id="path17" transform="translate(77.5536, 137.0553) scale(-1, 1) rotate(-180) translate(-77.5536, -137.0553)"></path>
            <path d="M118.264797,120.73493 C117.583464,120.435997 116.84613,120.201597 116.056797,120.030797 C115.267464,119.859997 114.488797,119.77613 113.720797,119.77613 C112.227464,119.77613 111.160797,120.15893 110.522131,120.926664 C109.880797,121.694797 109.560797,122.931864 109.560797,124.638664 L109.560797,139.231863 L118.328797,139.231863 C118.840797,139.231863 119.09813,139.48653 119.09813,139.999997 L119.09813,144.79853 C119.09813,145.310531 118.840797,145.568263 118.328797,145.568263 L109.560797,145.568263 L109.560797,153.18293 C109.560797,153.694796 109.306131,153.952129 108.794131,153.952129 L103.930131,153.952129 C103.459464,153.952129 103.182131,153.716263 103.098131,153.24693 L102.264797,145.568263 L97.3367976,145.568263 C96.8247976,145.568263 96.5701309,145.310531 96.5701309,144.79853 L96.5701309,139.999997 C96.5701309,139.48653 96.8247976,139.231863 97.3367976,139.231863 L102.008797,139.231863 L102.008797,124.254797 C102.008797,121.735997 102.339464,119.668264 103.000797,118.04693 C103.662131,116.425597 104.728797,115.231864 106.202131,114.46253 C107.672797,113.694797 109.647464,113.310531 112.120797,113.310531 C113.40213,113.310531 114.58613,113.406797 115.672797,113.59853 C116.76213,113.790664 117.731464,114.05893 118.58613,114.399997 C118.97013,114.526664 119.160797,114.804264 119.160797,115.231864 L119.160797,120.15893 C119.160797,120.75573 118.863464,120.947997 118.264797,120.73493" id="path18" transform="translate(107.8655, 133.6313) scale(-1, 1) rotate(-180) translate(-107.8655, -133.6313)"></path>
            <path d="M131.43013,153.183996 L125.35013,153.183996 C124.879464,153.183996 124.64613,152.926263 124.64613,152.414263 L124.64613,123.795997 C124.64613,123.285064 124.879464,123.02773 125.35013,123.02773 L131.43013,123.02773 C131.940797,123.02773 132.19813,123.285064 132.19813,123.795997 L132.19813,152.414263 C132.19813,152.926263 131.940797,153.183996 131.43013,153.183996" id="path19" transform="translate(128.4221, 138.1059) scale(-1, 1) rotate(-180) translate(-128.4221, -138.1059)"></path>
            <path d="M128.42213,118.483997 C126.971463,118.483997 125.872797,118.111064 125.12613,117.364264 C124.379464,116.61733 124.004797,115.62573 124.004797,114.38973 L124.004797,113.428264 C124.004797,112.235064 124.379464,111.252264 125.12613,110.483997 C125.872797,109.716264 126.971463,109.333464 128.42213,109.333464 C129.872797,109.333464 130.959463,109.716264 131.68613,110.483997 C132.41013,111.252264 132.772797,112.235064 132.772797,113.428264 L132.772797,114.38973 C132.772797,115.62573 132.41013,116.61733 131.68613,117.364264 C130.959463,118.111064 129.872797,118.483997 128.42213,118.483997" id="path20" transform="translate(128.3888, 113.9087) scale(-1, 1) rotate(-180) translate(-128.3888, -113.9087)"></path>
            <path d="M147.76213,145.792263 C148.85013,146.921463 150.50213,147.487063 152.72213,147.487063 C154.514129,147.487063 155.931463,147.113596 156.978129,146.366663 C158.023463,145.620396 158.544796,144.56413 158.544796,143.199063 C158.544796,142.51613 158.779463,142.17613 159.250129,142.17613 L165.010129,142.17613 C165.479463,142.17613 165.735463,142.623996 165.778129,143.518796 C165.863463,145.523996 165.394129,147.304263 164.370129,148.863063 C163.346129,150.420396 161.851463,151.65733 159.890129,152.575063 C157.927463,153.492263 155.515463,153.952129 152.656796,153.952129 C148.135463,153.952129 144.656796,152.84173 142.22613,150.623996 C139.79413,148.405196 138.57813,145.225596 138.57813,141.087063 L138.57813,133.854797 C138.57813,129.673463 139.78213,126.473464 142.19413,124.254797 C144.603463,122.035997 148.071463,120.926664 152.59413,120.926664 C156.987463,120.926664 160.295463,121.92973 162.514129,123.93493 C164.731463,125.94013 165.799463,128.606797 165.712796,131.93493 C165.670129,132.404263 165.415463,132.639063 164.946129,132.639063 L159.186129,132.639063 C158.715463,132.639063 158.482129,132.318797 158.482129,131.680263 C158.482129,130.44173 157.980796,129.42813 156.978129,128.639063 C155.975463,127.849463 154.535463,127.456263 152.656796,127.456263 C150.48213,127.456263 148.85013,128.020397 147.76213,129.151063 C146.67413,130.28133 146.13013,132.084397 146.13013,134.56053 L146.13013,140.318796 C146.13013,142.835996 146.67413,144.659996 147.76213,145.792263" id="path21" transform="translate(152.1831, 137.4394) scale(-1, 1) rotate(-180) translate(-152.1831, -137.4394)"></path>
            <path d="M189.375462,131.393863 C187.879462,129.894797 186.592795,128.79333 185.535462,128.12813 C184.211462,127.294797 182.910129,126.878663 181.630129,126.878663 C180.563462,126.878663 179.774129,127.18813 179.263462,127.806797 C178.751462,128.425597 178.494129,129.35213 178.494129,130.590663 C178.494129,132.211997 178.963462,133.385463 179.902129,134.11093 C180.840795,134.835997 182.547462,135.304263 185.023462,135.518797 L189.375462,135.887063 L189.375462,131.393863 Z M197.311462,122.526664 C197.182128,123.508397 197.087462,124.596397 197.023462,125.792264 C196.958128,126.985463 196.927462,128.26573 196.927462,129.630797 L196.927462,142.942796 C196.927462,146.697463 195.955462,149.47093 194.014128,151.263063 C192.072795,153.054796 189.011462,153.952129 184.830129,153.952129 C180.734129,153.952129 177.587462,153.151063 175.390129,151.551063 C173.192796,149.95213 172.222129,147.721463 172.479462,144.863063 C172.520796,144.094796 172.798129,143.71093 173.311462,143.71093 L179.070129,143.71093 C179.540796,143.71093 179.774129,143.966663 179.774129,144.478663 C179.688796,146.825596 181.267462,147.999063 184.510129,147.999063 C186.303462,147.999063 187.560795,147.625596 188.286129,146.878663 C189.011462,146.132396 189.375462,144.863063 189.375462,143.071863 L189.375462,140.49333 L184.382129,140.06413 C181.139462,139.806797 178.547462,139.284397 176.606129,138.494797 C174.664796,137.705197 173.267462,136.61773 172.415462,135.232397 C171.560796,133.844263 171.135462,132.04173 171.135462,129.82293 C171.135462,126.96413 171.816796,124.766664 173.182129,123.232397 C174.547462,121.694797 176.510129,120.926664 179.070129,120.926664 C180.563462,120.926664 181.950129,121.173464 183.230129,121.663064 C184.510129,122.15373 185.767462,122.889597 187.006129,123.87093 C187.968795,124.63493 188.946129,125.532397 189.934129,126.554797 C189.996795,125.972397 190.064795,125.371864 190.143462,124.735997 C190.270129,123.68813 190.376795,122.95373 190.462129,122.526664 C190.547462,122.27093 190.643462,122.068264 190.751462,121.918797 C190.856795,121.76933 191.039462,121.694797 191.294129,121.694797 L196.606128,121.694797 C197.159462,121.694797 197.395462,121.972397 197.311462,122.526664" id="path22" fill-rule="nonzero" transform="translate(184.2317, 137.4394) scale(-1, 1) rotate(-180) translate(-184.2317, -137.4394)"></path>
            <polyline id="path23" transform="translate(218.5141, 82.8465) scale(-1, 1) rotate(-180) translate(-218.5141, -82.8465)" points="214.738128 9.29866643 222.290128 9.29866643 222.290128 156.394396 214.738128 156.394396 214.738128 9.29866643"></polyline>
            <path d="M54.538532,20.7946661 L54.538532,44.5853322 L52.8811987,44.5853322 L42.6843989,41.143999 L42.6843989,39.9973323 L47.1453322,36.4439991 L47.1453322,22.1319994 C47.0911988,22.0813328 47.0359988,22.0373328 46.9811988,21.9879995 C46.1150655,21.1186661 45.2401322,20.4306662 44.3546656,19.9439995 C43.0822656,19.2426662 41.7130656,18.8919995 40.2474657,18.8919995 C38.281199,18.8919995 36.8838657,19.4866662 36.0551991,20.6759995 C35.4619991,21.5266661 35.0906658,22.7973328 34.9213325,24.4519994 C34.8474658,25.1119994 34.7999991,25.8173327 34.7999991,26.6039993 L34.7999991,44.5853322 L33.1437325,44.5853322 L23.2010661,41.079999 L23.2010661,39.9973323 L27.407866,36.5226658 L27.407866,23.6813327 C27.407866,19.9839995 28.2453326,17.1906662 29.9250659,15.2999996 C31.1655992,13.9026663 32.8327992,13.0239997 34.9213325,12.6599997 C35.5895991,12.5319997 36.3031991,12.4639997 37.0666657,12.4639997 C38.9562657,12.4639997 40.6718656,12.9106663 42.2150656,13.8026663 C43.6791989,14.6506663 45.2713322,16.0533329 46.9811988,17.9759996 C47.0797322,18.0759995 47.1739988,18.1599995 47.2729322,18.2639995 L47.7198655,18.2639995 L49.7587988,12.5279997 L51.0333321,12.5279997 L58.6182652,16.4159996 L58.6182652,17.5626662 L54.538532,20.7946661" id="path24" transform="translate(40.9097, 28.5247) scale(-1, 1) rotate(-180) translate(-40.9097, -28.5247)"></path>
            <path d="M53.6614653,69.9917316 L53.6614653,85.9994645 C53.6614653,89.6099978 52.7906653,92.3823977 51.0483987,94.3166643 C49.7578654,95.7474643 48.0573321,96.6463976 45.9515989,97.0182642 L45.9515989,97.0182642 C45.2442655,97.1474642 44.4917322,97.2157309 43.6890656,97.2157309 C41.5297323,97.2157309 39.555199,96.7594642 37.7630657,95.8463976 C36.2286658,95.0635976 34.6630658,93.810531 33.0687992,92.1395977 L33.0687992,92.1370644 C32.7906658,91.8583977 32.5130659,91.5927977 32.2333325,91.2885311 L31.9901325,91.2885311 C31.5713325,92.4551977 31.0010659,93.4714643 30.2578659,94.3166643 C28.9931993,95.7542643 27.327066,96.6542643 25.2641327,97.0223976 C25.2641327,97.0223976 23.8770661,97.2157309 23.1177328,97.2157309 C20.9583995,97.2157309 19.0239995,96.7594642 17.3141329,95.8463976 C15.7395996,95.0047976 14.0931996,93.6275977 12.3811997,91.7619977 C12.226533,91.5994644 12.074533,91.4583977 11.9182664,91.2885311 L11.600533,91.2885311 L11.9182664,96.7062642 L10.2619997,96.7062642 L0,92.691731 L0,91.5447977 L4.59013322,87.5927978 L4.59013322,70.0010649 L0.127599997,66.3687983 L0.127599997,65.413065 L16.1890663,65.413065 L16.1890663,66.3687983 L11.9822664,70.0047982 L11.9822664,87.0499978 C12.1130664,87.1766645 12.2483997,87.2875978 12.3811997,87.4073311 C14.5598663,89.4609311 17.0166662,90.5037311 19.7578662,90.5037311 C21.7526661,90.5037311 23.1989328,89.8766644 24.0953327,88.6234645 C24.6593327,87.8327978 25.0239994,86.7327978 25.2311994,85.3901312 C25.2311994,85.3901312 25.4141327,83.6875979 25.4141327,82.7917313 L25.4141327,69.9901316 L21.3349328,66.3687983 L21.3349328,65.413065 L36.9494657,65.413065 L36.9494657,66.3687983 L32.8073325,69.9490649 L32.8073325,84.0875979 L32.8073325,85.9994645 L32.8073325,87.5223978 C32.8926658,87.5942645 32.9854658,87.6499978 33.0713325,87.7193311 L33.0713325,87.7223978 C33.8343992,88.3661311 34.6365325,88.9286644 35.5031991,89.3557311 C37.0505324,90.1209311 38.6593324,90.5037311 40.329199,90.5037311 C42.3661323,90.5037311 43.8625322,89.8766644 44.8198655,88.6234645 C45.3469322,87.9327978 45.7145322,87.0099978 45.9515989,85.8979979 L45.9515989,85.8979979 C46.1526655,84.9942645 46.2682655,83.9729312 46.2682655,82.7917313 L46.2682655,69.9901316 L42.1890656,66.3687983 L42.1890656,65.413065 L58.0587985,65.413065 L58.0587985,66.3687983 L53.6614653,69.9917316" id="path25" transform="translate(29.0294, 81.3144) scale(-1, 1) rotate(-180) translate(-29.0294, -81.3144)"></path>
            <path d="M48.0843988,137.959863 L48.0843988,129.714663 C47.8223988,129.495863 47.5531988,129.283863 47.2765322,129.080263 C47.1010655,128.95053 46.9177322,128.830797 46.7365322,128.706797 C46.6369322,128.64013 46.5417322,128.56933 46.4406655,128.505197 C46.1969322,128.349463 45.9453322,128.20413 45.6917322,128.06253 C45.6505322,128.04013 45.6114655,128.014663 45.5707989,127.993197 C45.2822655,127.835997 44.9865322,127.692263 44.6854655,127.55733 C44.6786655,127.554663 44.6718655,127.55053 44.6650656,127.547997 C43.4155989,126.990663 42.0541323,126.637464 40.5833323,126.566664 C40.4098657,126.55893 40.239599,126.53853 40.0630657,126.53853 C40.0614657,126.53853 40.060399,126.54013 40.0593323,126.54013 C40.0578657,126.54013 40.0562657,126.53853 40.0546657,126.53853 C38.4817324,126.53853 37.2395991,126.942663 36.3265324,127.75053 C35.4125324,128.55733 34.9557325,129.244263 34.9557325,130.64533 C34.9557325,132.34533 35.6026658,133.517197 36.8994657,134.494797 C38.1953324,135.471863 40.458399,136.36413 43.6874656,137.171863 L48.0843988,138.217197 L48.0843988,137.959863 Z M55.4775986,129.65213 L55.4775986,142.798396 C55.4775986,146.537463 54.2994653,149.330796 51.9411987,151.180263 C49.5833321,153.02813 46.0661322,153.952129 41.393199,153.952129 C39.7770657,153.952129 38.1521324,153.825596 36.5166658,153.569329 C34.8811991,153.314663 33.3411992,152.95373 31.8969325,152.48653 C30.4515992,152.018796 29.1770659,151.466663 28.0729326,150.82813 L31.5141325,143.244263 L32.7250658,143.244263 L37.6026657,149.559863 C38.582799,149.930796 39.6109323,150.12813 40.691199,150.12813 C43.1130656,150.12813 44.9515989,149.41613 46.2041322,147.993196 C47.4583988,146.56933 48.0843988,144.475996 48.0843988,141.71613 L48.0843988,141.69893 L40.818799,140.50413 C40.7406656,140.490663 40.6693323,140.47453 40.5917323,140.461463 C31.8750659,138.907863 27.511466,135.313597 27.511466,129.66933 C27.511466,127.205197 28.3781326,125.197464 30.1155992,123.64693 C31.8515992,122.095864 34.1005325,121.319864 36.8625324,121.319864 C38.1797324,121.319864 39.4166657,121.47453 40.5917323,121.749464 C41.444799,121.94533 42.2702656,122.194797 43.0505323,122.530797 C44.9193322,123.337464 46.6406655,124.592264 48.2119988,126.292264 L48.7865321,126.292264 L50.6338654,121.383864 L51.9087987,121.383864 L59.5573318,125.271864 L59.5573318,126.418797 L55.4775986,129.65213" id="path26" fill-rule="nonzero" transform="translate(43.5344, 137.636) scale(-1, 1) rotate(-180) translate(-43.5344, -137.636)"></path>
        </g>
    </g>
</svg>