<?xml version="1.0" encoding="UTF-8"?>
<svg width="70px" height="66px" viewBox="0 0 70 66" version="1.1" xmlns="http://www.w3.org/2000/svg" xmlns:xlink="http://www.w3.org/1999/xlink">
    <title>svg1</title>
    <g id="Page-1" stroke="none" stroke-width="1" fill="none" fill-rule="evenodd">
        <g id="Homepage" transform="translate(-23, -21)" fill="#FBF9F5">
            <g id="svg1" transform="translate(23, 21)">
                <path d="M36.5818846,0.633658199 C36.4444514,0.678808244 36.3991078,0.770386165 36.4444514,0.908391964 L39.7516879,10.8865519 C39.7968616,11.0241318 39.8883137,11.0705597 40.0257469,11.0241318 L46.3405782,8.92209902 C46.4782664,8.87567115 46.5245874,8.78409322 46.4782664,8.64736526 L45.958111,7.07648444 C45.9156146,6.94955319 45.8259473,6.90866258 45.689109,6.95466451 L41.431144,8.37220555 L40.637482,5.97627155 L44.2939536,4.75892411 C44.4307919,4.71377407 44.476688,4.62219614 44.4316418,4.48419035 L43.9310347,2.97720111 C43.8859886,2.84004719 43.7946214,2.79361932 43.6577831,2.84004719 L40.001354,4.05696869 L38.7075524,0.154897343 C38.6622088,0.0168915451 38.5709266,-0.0282585 38.4333234,0.0168915451 L36.5818846,0.633658199" id="path2" transform="translate(41.4616, 5.5208) scale(-1, 1) rotate(-180) translate(-41.4616, -5.5208)"></path>
                <path d="M44.0487496,5.31599274 C43.927635,5.39479235 43.9059619,5.4944632 43.9845801,5.61628313 L49.691416,14.4397094 C49.7700343,14.5602515 49.8694757,14.5819746 49.9910153,14.503175 L51.6288249,13.4391674 C51.7499396,13.3603678 51.7707628,13.2606969 51.6929944,13.1393029 L45.9861586,4.3154507 C45.9071154,4.19405671 45.8068239,4.17318547 45.6857093,4.25198507 L44.0487496,5.31599274" id="path3" transform="translate(47.8386, 9.3775) scale(-1, 1) rotate(-180) translate(-47.8386, -9.3775)"></path>
                <path d="M47.3613407,17.2476982 C47.2725233,17.3622771 47.2861222,17.4636517 47.4004374,17.552674 L55.8236404,23.8238449 C55.9375307,23.9128671 56.038672,23.9000888 56.1274894,23.785084 L57.5987133,21.8832448 C57.6675574,21.7955004 57.671382,21.6992371 57.6106123,21.5957328 L54.7059862,15.9110865 L60.9015302,17.3422578 C61.0226448,17.3656847 61.1186866,17.3341648 61.1866808,17.2459944 L62.6477055,15.3569336 C62.7292985,15.2517255 62.7131499,15.1537584 62.5988347,15.0647361 L54.451858,8.43713546 C54.3375428,8.34828358 54.2364015,8.36174341 54.1475841,8.47606673 L52.9823339,9.98152257 C52.8943665,10.0969533 52.9071154,10.198328 53.0210056,10.2864983 L56.5584024,13.1620451 C56.9111222,13.4512609 57.2846652,13.7370692 57.6764816,14.0211738 C58.069148,14.3048524 58.4520401,14.5787342 58.826858,14.8411156 L58.7958357,14.8798765 C58.3279508,14.7567788 57.8447672,14.6358107 57.3471348,14.5161205 C56.8486526,14.3964303 56.3599444,14.2912222 55.8805855,14.201348 L51.8910275,13.3852396 C51.7932859,13.3656462 51.7065933,13.4044071 51.6322247,13.5015223 L51.5808041,13.5675436 C51.5128099,13.655714 51.500061,13.7443103 51.5434073,13.8341844 L53.3422781,17.5381919 C53.5551848,17.9718027 53.7795656,18.4135065 54.0145705,18.864155 C54.2500003,19.3148036 54.4841552,19.743729 54.7178852,20.1509313 L54.6868628,20.19097 C54.3405175,19.8932353 53.9814233,19.5933708 53.61128,19.2913767 C53.2394369,18.9885306 52.8748182,18.705278 52.5169988,18.4403409 L48.8308648,15.7036519 C48.7169745,15.6146296 48.6154082,15.6274079 48.5270158,15.7415609 L47.3613407,17.2476982" id="path4" transform="translate(55.0011, 16.1307) scale(-1, 1) rotate(-180) translate(-55.0011, -16.1307)"></path>
                <path d="M63.0369722,30.7869522 C62.6766031,30.621899 62.3192087,30.4515214 61.9673388,30.2754789 L59.5395219,29.0587277 L59.0520887,31.8245088 L61.7467827,31.5261777 C62.1385992,31.4826036 62.5312655,31.4444817 62.9264816,31.4127063 C63.3221227,31.3809309 63.7147891,31.3483036 64.1036307,31.3157189 L64.1100052,31.2830916 C63.7543107,31.1180383 63.3969163,30.9529851 63.0369722,30.7869522 L63.0369722,30.7869522 Z M65.8761538,32.8855348 C65.8553306,33.0061621 65.7856366,33.0787003 65.6691966,33.1033625 L54.6906875,34.7588783 C54.5296263,34.775192 54.4624821,34.7072965 54.4896797,34.5538716 L54.8581232,32.4629134 C54.8789464,32.3422861 54.95289,32.2762648 55.0786793,32.2644235 L57.0832325,32.0424642 L57.765299,28.16957 L55.944755,27.2572835 C55.840639,27.2045091 55.7998425,27.118511 55.8206657,26.9968615 L56.1954835,24.8738297 C56.2226812,24.7205751 56.3085239,24.67879 56.4542864,24.7495393 L66.1965764,30.1077422 C66.3006924,30.159324 66.3414889,30.2465147 66.3206657,30.367142 L65.8761538,32.8855348" id="path5" fill-rule="nonzero" transform="translate(60.4049, 29.7387) scale(-1, 1) rotate(-180) translate(-60.4049, -29.7387)"></path>
                <path d="M59.9921081,21.2259893 C59.4175574,21.2259893 58.8557555,21.2289709 58.3126521,21.2336137 C53.564959,11.4677016 43.5693907,4.7181617 32.0210055,4.7181617 C30.1946395,4.7181617 28.4094951,4.89535859 26.6747512,5.21781084 L26.6692692,5.21481646 C26.6237981,5.22330126 26.5793044,5.23445247 26.5340033,5.2432695 C26.2303668,5.30133843 25.9290676,5.36472738 25.6291284,5.43211596 C25.4674297,5.46821895 25.306241,5.50532292 25.1457323,5.54409233 C24.8876094,5.6066507 24.6308039,5.67187547 24.3754858,5.74125746 C24.1540373,5.80082145 23.9344161,5.86487914 23.7153049,5.92960556 C23.5227114,5.98700575 23.3299904,6.04374573 23.1390968,6.10463866 C22.815742,6.20763613 22.4961694,6.31761483 22.1781266,6.43125664 C22.0907966,6.46286167 22.0023192,6.49182585 21.9151592,6.52411239 C13.3425389,9.6774171 6.78862315,16.6770371 4.1063763,25.2917509 C4.09027443,25.3433327 4.07633137,25.3960645 4.06056097,25.4478167 C3.94485614,25.8266511 3.83579349,26.2080412 3.73536185,26.5928815 C3.70249516,26.7184923 3.67294745,26.8452958 3.64173812,26.9715455 C3.56355332,27.2878514 3.48935043,27.6054777 3.421454,27.9254467 C3.38891879,28.0791699 3.35837241,28.2334041 3.32832748,28.3879791 C3.26956352,28.689164 3.21561439,28.9914563 3.16614438,29.2956228 C3.1397499,29.4575241 3.11385262,29.6193827 3.09028414,29.7823062 C3.04513176,30.0920952 3.00661731,30.4037583 2.97142607,30.7163584 C2.95399407,30.8705927 2.9349047,31.024188 2.91996298,31.1791038 C2.88593615,31.5299963 2.86086755,31.8832315 2.83945363,32.2374464 C2.83231425,32.3537717 2.82185589,32.469245 2.81621238,32.5860388 C2.79297537,33.0640756 2.77869659,33.5442421 2.77869659,34.0272624 C2.77869659,34.6786582 2.80824431,35.3238779 2.85074067,35.9658179 C3.64738164,48.1167173 11.8601385,58.2639769 22.9885322,61.8942961 C23.1618323,61.9509467 23.3384897,61.9995043 23.5132772,62.0531732 C23.7670655,62.130695 24.0195788,62.2111983 24.2762143,62.281905 C24.583463,62.3670938 24.8950463,62.441208 25.2065021,62.5161741 C25.3367959,62.547694 25.4654324,62.5834732 25.5964062,62.6128634 C25.9696092,62.6976262 26.3465944,62.7704626 26.7248969,62.8403174 C26.7992656,62.8539476 26.8724868,62.8709853 26.9470254,62.8841896 C27.3382894,62.9531925 27.7333355,63.0106949 28.129954,63.0639379 C28.1966733,63.0728827 28.2622452,63.0848091 28.3287945,63.093328 C28.7082869,63.1414596 29.0910941,63.1780908 29.4750487,63.2117404 C29.5540495,63.2185555 29.6320728,63.22963 29.7114135,63.2360192 L29.3283088,65.9999686 C12.9283694,64.6237441 0,50.8146454 0,34.027092 C0,16.3298077 14.3646188,1.93205465 32.0210055,1.93205465 C45.1438808,1.93205465 56.4411125,9.88906858 61.3804641,21.2392788 C60.9168289,21.2349768 60.4451193,21.2259893 59.9921081,21.2259893" id="path6" transform="translate(30.6902, 33.966) scale(-1, 1) rotate(-180) translate(-30.6902, -33.966)"></path>
                <path d="M50.3573339,22.9324907 C49.9026229,22.6742835 49.1695607,22.5346591 48.7390726,22.5142138 C47.3451921,22.4476388 43.7011294,22.4855904 43.157601,22.4634413 C43.7223776,21.5596737 44.231059,20.605091 44.6326496,19.8192673 C44.9466977,19.2049711 45.0537885,18.5955307 44.8349322,17.9186633 C44.8119842,17.8484678 44.6415738,17.0476508 44.219585,17.090586 C43.7266272,17.1413159 43.3977054,17.5724136 43.3220619,17.8765801 C43.262992,18.1136604 43.2825403,18.4409557 43.3526593,18.6670466 C43.6773315,19.6505509 43.3513844,20.0134551 42.6833417,20.6452149 C42.0121117,21.3172265 41.3104543,21.6899273 40.515475,22.1786127 C40.1600354,22.3965681 39.7608246,22.5666049 39.447074,22.8369941 C38.922499,23.2489669 38.9429397,23.7085177 39.3966309,24.0219698 C40.1424419,24.3768662 41.0302333,24.5677316 41.7606607,24.5732263 C43.379007,24.5860046 49.3654689,24.6933424 49.749636,24.6745583 C50.390906,24.6434218 50.57874,24.5795302 50.6416346,23.8570869 C50.6845559,23.3661015 50.6811562,23.1160299 50.3573339,22.9324907 Z M38.6907664,27.0672977 C38.9007834,27.2929202 39.1547416,27.4947323 39.4322853,27.5910808 C40.8293531,28.0754216 42.3034667,28.3138649 43.7776229,28.4571098 C45.071212,28.582891 46.3609765,28.7358049 47.6562654,28.8434835 C48.3889026,28.9043508 49.201008,29.0036809 49.9085724,28.71668 C50.1032057,28.6377952 50.5723655,28.1719404 50.3998303,27.7696365 C50.2349444,27.3857759 49.3786428,26.7293965 47.5066783,26.4674836 C46.6363528,26.3458767 41.0011658,25.8799793 40.3889633,25.8530447 C39.4998545,25.8510577 39.3026714,26.0495476 38.8677212,26.3914527 C38.6554094,26.5585078 38.5201435,26.8839715 38.6907664,27.0672977 Z M38.322068,23.7622718 C37.9993931,23.342632 37.814109,23.1744268 37.7176848,23.1496368 C36.798531,22.9133658 36.3624334,23.6421131 36.4572428,24.0347907 C36.5556644,24.4424189 36.9992413,25.0733695 37.3919927,25.38384 C37.749897,25.6667092 38.322068,25.5678477 38.4487496,24.9103182 C38.5412217,24.4313018 38.5557979,24.0662253 38.322068,23.7622718 L38.322068,23.7622718 Z M27.4112981,30.9347398 C27.1015422,29.9019964 26.6528656,29.7244631 25.7931218,30.022283 C25.2237556,30.2489277 25.2529506,30.8031232 25.1862313,31.2705113 C25.224903,32.0293729 25.4896978,32.7706429 26.0333537,33.3042227 C26.5233792,33.7854115 26.9182979,34.1151772 27.4871966,34.5080251 C27.7239013,34.6714172 28.0577102,34.8010319 28.3387811,34.6537831 C28.5934193,34.5206757 28.4093251,33.6385034 28.2140968,33.2662711 C27.8284849,32.5313903 27.88543,32.0814658 27.4112981,30.9347398 L27.4112981,30.9347398 Z M18.5554821,43.7688105 C17.8642364,44.0473352 16.3388721,44.9852635 15.4074369,46.2860959 C14.6995751,47.0084966 14.4069452,47.9119235 14.4069452,47.9119235 C14.4069452,47.9119235 16.1028048,50.2141498 19.5138175,51.6133753 C20.0932978,51.8037722 20.9158573,52.03293 21.7679093,51.9098322 C22.7020217,51.7603259 22.9637993,51.4025331 23.2582991,51.1392998 C24.4340883,50.0872186 24.3356242,50.0369572 26.2848472,49.8448565 C26.5270339,49.8295226 26.7803547,49.796299 27.003928,49.7081286 C28.3658088,49.2131819 28.4795291,47.9711297 27.8618445,46.990607 C26.5452648,45.2979063 25.1017486,43.8313817 22.8958901,43.4139141 C20.7285759,43.0591881 18.9271553,43.6187079 18.5554821,43.7688105 L18.5554821,43.7688105 Z M69.9915011,30.3116266 C69.9915011,30.3116266 69.6982762,30.3713865 69.0837789,30.3339461 C68.3328683,30.2880293 67.752368,30.008312 67.5394613,29.2100081 C67.4948401,29.0434641 67.4242961,28.8837351 67.3622515,28.722345 C66.771977,27.1185388 65.1613651,27.2704729 65.1613651,27.2704729 L53.2840581,27.1523161 C53.2840581,27.1523161 52.5403718,27.3821128 52.6138905,28.8629491 C52.6568118,29.7253149 52.6075161,30.0718628 52.667011,30.6778531 C52.7498789,31.6042809 52.713757,32.0162538 52.6249396,32.9606564 C52.5467463,33.7958897 52.1668288,34.0985654 51.5884534,34.1707628 C50.9017123,34.2564627 50.2736161,33.7905654 50.0785578,33.297578 C49.761535,32.4664764 49.8388784,31.8851483 49.7606851,31.1086101 C49.7067147,30.5760099 49.7126642,30.3011484 49.4657603,29.9717234 C49.1789099,29.5878629 48.5112921,29.6421281 48.3472562,30.1174814 C48.2036185,30.5049625 48.1700464,30.9663449 48.1636719,31.4099228 C48.1555976,31.996277 48.1241503,33.3633011 48.0880284,33.6018723 C47.9613893,34.4382981 47.591246,34.7452759 47.101688,34.7484278 C46.1408453,34.7551152 45.829347,34.1046989 45.666586,33.5559555 C45.4898011,32.5992431 45.6474626,30.6652026 45.5152989,29.977857 C45.432856,29.5514447 45.2938929,29.4837196 44.7822368,29.5028445 C44.3037278,29.4331175 44.0500245,29.6778648 43.9552576,29.9883353 C43.8626156,30.2919906 43.8145947,30.6128115 43.7776229,30.9295859 C43.6960299,31.8976284 43.6611828,32.5872741 43.543043,33.5386622 C43.4125792,34.1684201 43.2663917,35.1708789 42.3685286,35.1074985 C41.501008,34.9953475 41.5649225,33.7503137 41.5519611,33.4562847 C41.5835359,32.5503448 41.5898254,31.7076149 41.4761051,30.8142829 C41.2863589,29.3063566 40.0727479,29.8639171 39.9527382,30.2567225 C39.7314597,30.5798434 39.6429397,31.7646914 39.7440386,32.9684512 C39.7224929,33.2548132 39.6965701,33.5551462 39.5734157,33.8102014 C39.4090823,34.2165092 39.0478632,34.5016786 38.4286488,34.3993669 C37.7977054,34.2952236 37.3863407,33.7634328 37.4367838,33.0824338 C37.5823764,31.8134193 37.7482396,30.7289238 37.9743203,29.4720488 C38.1195728,28.4954022 38.012142,27.8554642 37.4242049,27.1268873 C37.1985917,26.8230615 37.0196396,26.6643123 36.4278353,26.7044362 C35.9527685,26.8205485 35.5847076,26.9876036 35.4125973,27.5638204 C35.3104786,27.9682967 35.2557008,28.4018649 35.1864742,28.8311311 C35.1423205,29.439464 34.9653657,29.59783 34.3901775,29.585222 C33.8465216,29.5662249 33.6856728,29.2278126 33.4545776,28.7108445 C33.3941903,28.2220314 33.4356668,27.7604787 33.397675,27.2536481 C33.3968251,26.684289 32.9262204,26.1353752 32.3863892,26.1069222 C31.9530963,26.0839638 31.6096408,26.0651797 31.0719769,26.2348757 C29.7315142,26.6580083 28.865481,27.4162309 28.0591976,28.3990537 C27.4131255,29.1865386 27.5454591,30.0822133 28.5431036,30.3201455 C29.2017971,30.4773614 34.1688989,30.592494 34.1688989,30.592494 L30.0641757,59.9772082 C16.3640725,58.9724067 5.5583961,47.5217589 5.5583961,33.5335083 C5.5583961,20.5445644 14.8758925,9.74386433 27.1754433,7.46123139 L27.1757408,7.46774833 L27.1777381,7.4672372 C27.1777381,7.4672372 27.1800754,7.52346179 27.1842401,7.61929915 C27.1842401,7.61929915 27.639886,18.424642 27.6390786,18.4723903 C27.6960237,19.4924832 27.7466369,20.0565606 28.9539584,20.40494 C29.238004,20.4790117 29.6455441,20.6034298 29.914801,20.7214163 C30.7462848,21.0864501 30.9514572,21.8365372 30.8824006,22.522179 C30.8320849,22.8612729 30.685685,23.189207 30.6080016,23.5249785 C30.4348715,24.2750656 30.4267122,24.5543995 31.4001762,24.6434218 C33.7391333,24.6557316 33.8061925,23.7579272 33.910946,23.4520995 C34.092193,22.922694 34.2991928,22.1734588 34.3710966,21.5643165 C34.4462726,20.9267212 34.7377977,19.3341173 35.0790859,18.5737223 C35.9514086,17.0364911 37.6580624,15.1904506 40.0475051,14.7087933 C41.5806887,14.3636936 43.0751581,14.4638756 44.6114014,14.7407391 C45.6270644,14.9239375 46.4264208,15.4708068 47.2852722,16.0019161 C48.5661125,16.7945976 49.6455199,17.876069 50.3692329,19.1790311 C50.8783393,20.0956622 51.2438079,20.9731491 51.476263,22.0205449 C51.6024772,22.5904152 51.8136841,22.8186785 52.0070425,23.1863958 C52.1685287,23.4930327 52.4052334,23.6675845 52.4052334,23.6675845 C52.4052334,23.6675845 57.7151533,23.4431121 62.8189659,23.5449553 C63.6523194,23.5619078 65.7941359,23.2664306 66.4830018,22.1044133 C66.6198401,21.8611568 67.0583961,20.5633485 68.3898134,19.819608 C68.83815,19.5697068 69.5975599,19.5424038 69.9915011,19.6339391 C70.0123243,20.0390543 69.9915011,30.3116266 69.9915011,30.3116266" id="path7" fill-rule="nonzero" transform="translate(37.7796, 33.7192) scale(-1, 1) rotate(-180) translate(-37.7796, -33.7192)"></path>
                <path d="M23.334835,21.3577219 C22.7954712,21.6874024 22.3178972,21.9527654 21.7292376,22.1814973 C21.4264511,22.2990578 20.9052332,22.3169474 20.5786912,22.2679639 C19.3489741,22.0839561 18.3752126,21.4659117 17.5378643,20.5407617 C17.0051725,20.1131141 17.0981545,19.6650212 17.5194634,19.1066088 C17.7188138,18.8420977 17.9556885,18.6840726 18.2442388,18.5234917 C19.3798265,17.8913911 20.5992595,17.7623301 21.8936135,17.6196389 C22.57619,17.6196389 23.8909423,17.7968316 24.2576009,19.0516621 C24.4093554,19.6722622 24.0027927,20.9488159 23.334835,21.3577219" id="path8" transform="translate(20.7298, 19.9565) scale(-1, 1) rotate(-180) translate(-20.7298, -19.9565)"></path>
                <path d="M26.9961512,19.1883167 C26.9961512,19.6640959 26.6113467,20.0495751 26.1367473,20.0495751 C25.661978,20.0495751 25.277216,19.6640959 25.277216,19.1883167 C25.277216,18.7125374 25.661978,18.3270583 26.1367473,18.3270583 C26.6113467,18.3270583 26.9961512,18.7125374 26.9961512,19.1883167" id="path9" transform="translate(26.1367, 19.1883) scale(-1, 1) rotate(-180) translate(-26.1367, -19.1883)"></path>
            </g>
        </g>
    </g>
</svg>