<?xml version="1.0" encoding="UTF-8"?>
<svg width="329px" height="130px" viewBox="0 0 329 130" version="1.1" xmlns="http://www.w3.org/2000/svg" xmlns:xlink="http://www.w3.org/1999/xlink">
    <title>Festival</title>
    <defs>
        <path d="M0,0 L328.583208,0 L328.583208,130 L0,130 L0,0 Z" id="path-1"></path>
    </defs>
    <g id="Festival" stroke="none" fill="none" xlink:href="#path-1" fill-rule="evenodd" stroke-width="1">
        <g id="Group" fill="#FBBB21">
            <path d="M14.9533035,52.1176279 C14.4661171,57.3800578 9.02963303,59.1159343 4.54332376,59.5511123 C3.58185655,59.6429832 2.43325813,59.8702428 1.65408252,59.1401109 C0.915236909,58.4486614 0.707134106,57.2108219 0.457088102,56.2808305 C-0.144635507,54.0469169 -0.34951191,51.5325553 1.09591531,49.5645838 C2.59941773,47.5144121 5.31120698,47.7787424 7.35351821,46.5586323 C9.49746104,45.2756632 11.1606703,43.2883505 12.8480775,41.4831678 C14.7790779,39.4201019 16.6536163,37.2780592 18.6685032,35.2971936 C20.2994484,33.6934822 22.2836844,32.2654538 24.6728337,32.3073598 C26.1182609,32.3331481 27.4943205,32.8247381 28.8219841,33.3517869 C30.2916094,33.9368595 31.748329,34.5590028 33.192143,35.210158 C36.1814026,36.5575979 39.1029079,38.0500972 41.9550455,39.6683145 C42.8584375,40.1792457 42.0453847,41.5718152 41.1403795,41.0592722 C36.9315407,38.6738523 32.5613818,36.5189155 28.0460349,34.7701447 C25.8456301,33.9175183 23.7662153,33.519411 21.6819608,34.8716863 C19.9316388,36.0095961 18.5588056,37.7374138 17.1456424,39.2476425 C15.5211499,40.9851308 13.9111763,42.7371251 12.2689387,44.4568839 C10.8896527,45.9010301 9.40066904,47.3355056 7.61163021,48.2606617 C6.7614738,48.6990632 5.87421378,48.9859583 4.94339737,49.1922649 C3.78028015,49.4501482 2.81236014,49.759608 2.18321213,50.8378823 C1.05719851,52.7639478 1.76055372,55.1106853 2.37356973,57.0802685 C2.59941773,57.8039533 2.72040774,58.0618366 3.51087575,58.0279894 C4.08356176,58.0038128 4.66270057,57.932895 5.23216017,57.8668124 C6.46948459,57.7233648 7.71003541,57.4944935 8.88283183,57.0689861 C11.0445199,56.2824422 13.1158687,54.5401186 13.3401035,52.1176279 C13.4352823,51.092542 15.0500955,51.0828714 14.9533035,52.1176279 L14.9533035,52.1176279" id="path48" transform="translate(21.1744, 45.9822) scale(-1, 1) rotate(-180) translate(-21.1744, -45.9822)"></path>
            <path d="M13.3239715,45.2557352 C15.5421215,44.3515321 17.723168,43.3602934 19.8590448,42.2804073 C20.9302096,41.7388525 21.9916952,41.1763447 23.0402752,40.5912721 C23.9743181,40.0706703 24.9035213,39.3743856 25.9133845,39.0117373 C26.7345033,38.7167833 27.4491509,38.8844074 28.1960625,39.2857382 C29.2720669,39.8659755 30.320647,40.5074601 31.3789062,41.1167092 C33.5357546,42.3577723 35.6909898,43.5972236 37.8462251,44.8366749 C38.7447775,45.3540532 37.9333379,46.7482345 37.0315591,46.2292444 C35.103785,45.1187347 33.1743978,44.0098368 31.2466238,42.8993271 C30.2819302,42.3464899 29.3172365,41.7904292 28.3541561,41.2359802 C27.9605353,41.0103324 27.4120473,40.5590367 26.9442193,40.4752247 C26.3925049,40.3752949 25.7778757,40.8813908 25.3358589,41.1376622 C21.6158196,43.307105 17.7409132,45.1848173 13.7530827,46.8094817 C12.7916155,47.2011419 12.3737967,45.6425601 13.3239715,45.2557352 L13.3239715,45.2557352" id="path49" transform="translate(25.5123, 42.8672) scale(-1, 1) rotate(-180) translate(-25.5123, -42.8672)"></path>
            <path d="M29.3075573,37.942345 C28.8155313,40.1230702 28.8235973,42.3908309 29.3317553,44.5683325 C29.5688957,45.5773007 28.0137709,46.0092551 27.7766305,44.9970634 C27.2007181,42.5326667 27.1942653,39.9812344 27.7524325,37.5136141 C27.8492245,37.0897185 28.3380241,36.8398942 28.7445505,36.9511063 C29.1817277,37.0703773 29.4043493,37.5152259 29.3075573,37.942345 L29.3075573,37.942345" id="path51" transform="translate(28.3477, 41.2493) scale(-1, 1) rotate(-180) translate(-28.3477, -41.2493)"></path>
            <path d="M30.998191,80.4700829 C30.4868066,75.7733844 31.1014358,70.9171206 32.5904194,66.4331758 C33.950347,62.3376676 36.2427042,58.5870783 39.7901311,56.0453166 C40.6338347,55.439291 41.4404347,56.8366958 40.6031839,57.4362743 C37.2428883,59.8458708 35.1505678,63.5722836 33.9551866,67.4598735 C32.6614002,71.6665938 32.1338838,76.0925149 32.611391,80.4700829 C32.7227018,81.5000041 31.1078886,81.4919452 30.998191,80.4700829 L30.998191,80.4700829" id="path52" transform="translate(35.8886, 68.5678) scale(-1, 1) rotate(-180) translate(-35.8886, -68.5678)"></path>
            <path d="M45.8444708,129.859707 C42.3131759,127.459781 39.2045395,124.524747 36.6234195,121.125524 C35.313501,119.40093 34.1487706,117.566735 33.1534262,115.643893 C32.1645346,113.735557 31.1320866,111.661209 30.9691534,109.488543 C30.804607,107.307818 31.7789798,105.302775 32.8227202,103.455687 C33.9971298,101.376503 35.1457282,99.2892606 36.1910818,97.1423826 C37.2945107,94.8730101 38.3076003,92.5601198 39.2238979,90.208547 C39.6659147,89.0754725 40.1176107,87.9359509 40.4821939,86.7754764 C40.6386743,86.2790511 40.8209659,85.7439434 40.7096551,85.2201181 C40.5499483,84.4690331 39.8143291,84.0999378 39.2222847,83.7131129 C38.1720915,83.024887 37.1186719,82.3414964 36.0684786,81.6548823 C35.0424834,80.9859976 33.8664606,80.3815838 32.9453234,79.5708634 C31.433755,78.2395411 32.3032698,76.3843936 33.797093,75.4689081 C35.3715762,74.5034577 37.3800103,74.5888815 39.1496907,74.6968701 C41.6324055,74.8483765 44.1102808,75.0982009 46.5752504,75.4334491 C49.0127956,75.7670856 51.6165005,76.0314159 53.9749989,76.7551007 C55.8301789,77.3240556 56.8029386,78.9293788 56.257677,80.836103 C55.6559533,82.9442985 53.6862361,84.2256558 53.2167949,86.4337811 C52.7457405,88.6483534 53.2119553,90.9773614 53.3781149,93.1999926 C53.5700857,95.7707661 53.3361717,98.3705515 52.6424957,100.855901 C52.3004973,102.079235 51.8488013,103.273557 51.3035397,104.421137 C51.2228797,104.593596 51.0357485,104.869209 50.9841261,105.067457 C50.7276273,105.375305 50.7566649,105.687988 51.0696257,106.005507 C51.2373985,106.116719 51.4035581,106.227931 51.5713309,106.339144 C52.1827337,106.746921 52.7941365,107.153088 53.4055393,107.560865 C58.4096858,110.895618 63.4138323,114.228759 68.4163655,117.563512 C69.2762012,118.13569 68.4696011,119.533095 67.6033127,118.954469 C63.4331907,116.177389 59.2630686,113.398697 55.0929465,110.620005 C54.0927625,109.952733 53.0909653,109.287071 52.0907813,108.619799 C51.2599833,108.06535 50.0791209,107.536689 49.4790105,106.716298 C48.9740788,106.028072 49.1257196,105.249587 49.4580388,104.522679 C49.9726497,103.394439 50.5066189,102.306494 50.8808813,101.11862 C51.5664913,98.9475653 51.8891313,96.6814163 51.8294429,94.4055967 C51.7745941,92.3183542 51.3712941,90.2472295 51.4229165,88.1551517 C51.4729257,86.0888622 52.0391589,84.2869031 53.3022945,82.6445092 C53.8814333,81.8934243 54.6251185,81.0907627 54.7735329,80.1124182 C54.9767961,78.7730371 53.9491877,78.3765416 52.8505985,78.1363878 C48.088432,77.0935725 43.1552664,76.4553115 38.2834023,76.261899 C37.4122743,76.2264401 36.5169483,76.2248283 35.6651786,76.4408055 C34.9360122,76.6245473 33.184077,77.4046441 34.014875,78.3588121 C34.3488074,78.7424135 34.9618234,79.0115791 35.3877082,79.2888036 C35.886187,79.6143812 36.3846659,79.938347 36.8831447,80.2639246 C37.9333379,80.9489269 38.9867575,81.6339293 40.0369507,82.3205434 C40.7854755,82.8105216 41.5953019,83.2972762 42.0308659,84.1128319 C42.4938543,84.9735172 42.3873831,85.9873207 42.1324975,86.8931356 C41.5372267,89.0190605 40.6209291,91.1046912 39.7659331,93.1355218 C38.8883523,95.2163171 37.9446303,97.2681007 36.9250879,99.2828135 C35.8878002,101.331373 34.6875794,103.289674 33.6373862,105.328564 C33.0824454,106.405226 32.6097778,107.562477 32.5646082,108.787423 C32.5129858,110.175157 33.0130778,111.529044 33.563179,112.781389 C34.4762502,114.860573 35.595811,116.854333 36.8766919,118.730433 C39.4884627,122.555164 42.8293999,125.86574 46.6591368,128.467137 C47.5125196,129.047375 46.7059196,130.444779 45.8444708,129.859707 L45.8444708,129.859707" id="path53" transform="translate(49.8673, 102.3168) scale(-1, 1) rotate(-180) translate(-49.8673, -102.3168)"></path>
            <path d="M55.8140469,33.5821135 C59.3195306,29.0417567 63.2541255,24.7415537 67.6839727,21.0796117 C69.5423792,19.5435947 71.766982,18.1300722 74.2884136,18.573309 C75.6918977,18.8199098 76.9534201,19.5742183 78.1923577,20.2366559 C79.6087473,20.9925761 81.0251369,21.7484964 82.4399134,22.5044166 C85.2726926,24.0178689 88.1054718,25.5297094 90.9382511,27.0431616 C93.1418823,28.2197539 95.7020308,30.2554197 98.1621608,28.6484848 C99.8705396,27.531528 101.04011,25.7440748 102.651696,24.4965646 C103.953549,23.49082 106.644367,22.3400161 107.49291,24.5384707 C107.915568,25.6344744 107.581636,27.0818441 107.359014,28.1955774 C107.068638,29.642947 106.584678,31.0435754 106.052322,32.4184154 C105.010195,35.1197423 103.97452,37.8774812 102.740422,40.4982196 C101.732172,42.635427 100.015728,44.6952694 97.4830036,44.8516111 C96.3311788,44.9209172 95.3390608,44.4809039 94.4485743,43.7846192 C93.2628723,42.8562395 92.3933575,42.1486724 90.8011291,42.1293311 C89.5412199,42.1132134 88.300669,42.2550492 87.0407598,42.1244958 C85.5921062,41.9746012 84.1837826,41.6312941 82.8351474,41.0800687 C81.7042941,40.6158789 80.6411953,40.025971 79.6555301,39.3038979 C79.0989761,38.8977318 78.5488749,38.37713 77.8810101,38.1579292 C77.0082689,37.8710341 76.1274617,38.3174945 75.4967004,38.9074024 C73.670558,40.6158789 73.5189172,43.3188176 73.5060116,45.6542727 C73.4914928,47.9655512 73.6366808,50.2929474 73.146268,52.5703788 C71.1265416,61.9234815 60.5633078,66.6862626 58.9855982,76.18926 C58.725873,75.8491765 58.4661478,75.5090929 58.2080358,75.1690094 C63.9881315,75.5445519 69.3858988,78.8470691 72.3509604,83.8274392 C72.6977984,84.4092882 73.0043064,85.0137021 73.275324,85.6342336 C73.6399072,86.4707424 73.694756,87.1944272 74.7175248,87.3346512 C76.1855369,87.5345108 77.5696625,87.9261709 78.9150713,88.5483142 C81.6623509,89.820001 83.9756798,91.9185258 85.792143,94.3120046 C87.9151142,97.108426 89.3621547,100.336802 90.6317431,103.589354 C90.9576095,104.424251 91.2705703,105.265595 91.5819179,106.105328 C91.8610015,106.861248 92.2513959,107.696145 91.9481143,108.506865 C91.4318903,109.896211 89.7557755,109.747928 88.5652338,109.675399 C84.574177,109.432021 80.5831201,109.190256 76.5920633,108.94849 C73.2817768,108.748631 69.8456608,108.816325 66.9322215,107.011142 C64.2204323,105.330066 62.2974978,102.689986 60.427799,100.169178 C59.4469734,98.8475261 58.4822798,97.487192 57.3352946,96.2993174 C56.0866778,95.0066776 53.8862729,93.6398964 52.2391957,95.1227251 C51.4696993,95.8157863 50.3243273,94.6794883 51.0986633,93.9832035 C53.3313321,91.973326 56.3399502,93.0580474 58.2532054,94.9357597 C60.2471206,96.8892253 61.7231986,99.3423396 63.4590019,101.513394 C65.0947867,103.558731 67.0048155,105.59762 69.5359264,106.495376 C71.2201072,107.093343 73.0301176,107.120743 74.7949584,107.228731 C76.6582045,107.341555 78.5198373,107.454379 80.3830833,107.567203 C82.2447162,107.680027 84.1079622,107.792851 85.9712082,107.905675 C86.9020246,107.962087 87.832841,108.020111 88.7636574,108.074911 C89.0992031,108.095864 89.5654179,108.208688 89.8912843,108.118429 C90.5349511,107.936299 90.3462067,107.410861 90.1493963,106.870918 C88.9943451,103.690896 87.776379,100.501202 86.0454154,97.5822865 C84.4564134,94.9019125 82.3834514,92.471363 79.7152185,90.8144632 C78.4311113,90.0166369 77.0389197,89.4154466 75.5596152,89.0963161 C74.2884136,88.8207034 73.0543156,88.9415862 72.3654792,87.6392758 C71.6346996,86.2579887 71.1684848,84.8428544 70.2473476,83.5486029 C69.3358896,82.2672456 68.2147155,81.1164416 66.9757779,80.152603 C64.4607991,78.1975257 61.3892662,76.9870863 58.2080358,76.7807797 C57.645029,76.7453207 57.3401342,76.2988604 57.4288602,75.7605291 C58.7887878,67.574348 66.5579591,62.8470259 70.2199232,55.8551666 C71.1329944,54.1128429 71.7089068,52.2399659 71.847642,50.275218 C72.0121884,47.9365393 71.7524632,45.5833548 72.0057356,43.2495115 C72.23481,41.1364807 72.9171936,38.9767085 74.5949216,37.5567389 C75.3918424,36.883019 76.4049321,36.4139938 77.4664177,36.4542881 C78.7827889,36.5058647 79.7313505,37.3987855 80.7492797,38.1144115 C82.9835618,39.689111 85.6759926,40.5771964 88.4152062,40.5884788 C89.6170403,40.5933141 90.8221007,40.4192429 92.0190951,40.6126553 C93.2047971,40.804456 94.0952835,41.4056463 95.0002887,42.1599548 C95.9504636,42.9529457 96.8683744,43.4945005 98.1347364,43.1012286 C99.5059564,42.6741095 100.396443,41.5136349 101.043336,40.2967484 C102.377452,37.7872221 103.322788,34.9795183 104.361688,32.3362151 C104.856941,31.0758108 105.321543,29.7992888 105.642569,28.4824725 C105.813569,27.7797406 105.947464,27.0705617 106.008766,26.3484887 C106.084586,25.4845798 106.066841,24.6400122 104.974704,24.9768722 C103.138883,25.5442153 101.798314,27.5831047 100.457744,28.8451208 C99.1687976,30.057172 97.6185124,31.0725872 95.7730116,30.9081867 C94.5566587,30.7985863 93.4838807,30.2280196 92.4256215,29.6639001 C91.0673071,28.9402152 89.7106059,28.2133068 88.3539046,27.489622 C85.2855982,25.8504516 82.2172917,24.2112813 79.1489853,22.5737227 C77.6777469,21.7871789 76.1661785,20.7524224 74.5562048,20.2898443 C73.1204568,19.8788429 71.7766612,20.2479383 70.5199784,20.9990232 C67.9114339,22.5559933 65.6577935,24.9800957 63.5428883,27.131809 C61.2892478,29.4253581 59.1711162,31.8510723 57.2062386,34.3944457 C56.5819302,35.2051662 55.1800593,34.4025046 55.8140469,33.5821135 L55.8140469,33.5821135" id="path54" transform="translate(79.2684, 64.1049) scale(-1, 1) rotate(-180) translate(-79.2684, -64.1049)"></path>
            <path d="M28.5429005,4.78253419 C25.8246585,6.31210415 23.0031716,7.64342637 20.2462128,9.10046668 C18.9830772,9.76773956 17.6763852,10.4317889 16.5148811,11.2666859 C15.2259343,12.1950656 14.4887019,13.4345169 14.1015339,14.9592515 C13.3142923,18.0457915 13.1271611,21.3757089 12.9884259,24.5460609 C12.9190583,26.1223723 12.9416431,27.7067424 12.7528987,29.2749949 C12.5738335,30.7707176 12.0979395,32.0810869 11.5784891,33.4817152 C10.2717971,37.0098803 12.4673623,40.1254322 14.5290319,42.8428768 C15.1565667,43.6681032 13.7563091,44.4723765 13.1368403,43.655209 C11.3397355,41.2875185 9.36356544,38.4975442 9.51843264,35.3739335 C9.59909264,33.7379867 10.4169851,32.3599231 10.8364171,30.8126237 C11.2897263,29.1444415 11.2832735,27.4037296 11.3348959,25.6888061 C11.4365275,22.238006 11.7027055,18.7275704 12.3673439,15.334794 C12.6561067,13.8664713 13.1513591,12.4239369 14.1321847,11.2666859 C15.0694539,10.1610115 16.3584007,9.40992656 17.6054044,8.70558297 C20.9237568,6.8294824 24.4066557,5.26122995 27.7298477,3.39157646 C28.6348529,2.88225707 29.4495189,4.27321479 28.5429005,4.78253419 L28.5429005,4.78253419" id="path55" transform="translate(19.2241, 23.6387) scale(-1, 1) rotate(-180) translate(-19.2241, -23.6387)"></path>
            <path d="M14.2402691,30.0901203 C15.9018651,21.0545363 19.9284124,12.1317762 27.4781885,6.54215698 C28.3138261,5.92484898 29.1188129,7.32386555 28.2928545,7.93472648 C21.094756,13.2632389 17.3747168,21.9410099 15.7953939,30.5188512 C15.6082627,31.53749 14.0531379,31.1055355 14.2402691,30.0901203 L14.2402691,30.0901203" id="path56" transform="translate(21.4319, 18.7444) scale(-1, 1) rotate(-180) translate(-21.4319, -18.7444)"></path>
            <path d="M14.9387847,33.2669822 C17.3069624,30.9685978 18.4313628,27.6854218 20.2575052,24.9840949 C22.0804212,22.2876033 24.2727601,19.8393243 26.7732201,17.7553053 C27.4023681,17.23148 28.3138261,16.7382783 28.7429373,16.0226523 C29.1107469,15.4085679 29.1010677,14.586565 29.2752933,13.9080098 C29.6092257,12.6137583 30.2222418,11.3888129 31.0256154,10.3234327 C32.6630134,8.15237821 35.055389,6.61474939 37.7478199,6.15861841 C38.7641359,5.986159 39.1996999,7.53829375 38.1769311,7.71236493 C35.466755,8.17171945 33.0921246,9.80605448 31.7128386,12.1914744 C30.9804458,13.4583259 30.8868802,14.7300126 30.457769,16.0887349 C29.9851014,17.5796224 28.5219289,18.3581074 27.4023681,19.3300049 C25.0035397,21.4108003 22.90154,23.8236203 21.1899348,26.4975472 C19.4960748,29.1424621 18.368448,32.1838726 16.0793171,34.4065038 C15.3340187,35.1301886 14.1918731,33.990667 14.9387847,33.2669822 L14.9387847,33.2669822" id="path57" transform="translate(26.7279, 20.3916) scale(-1, 1) rotate(-180) translate(-26.7279, -20.3916)"></path>
            <path d="M14.6258239,14.3331557 C16.827842,14.7908985 19.0153412,13.3580347 20.11877,11.5254519 C21.4803108,9.26575006 21.473858,6.42581089 21.1141144,3.8953316 C21.0528128,3.46015363 21.2205856,3.03464629 21.6771212,2.90248113 C22.05461,2.79449252 22.6079376,3.03625806 22.6692392,3.46660071 C23.1048032,6.52412887 23.119322,9.95397596 21.3302832,12.6246793 C19.771932,14.9472402 17.0230392,16.4751984 14.1967127,15.8869022 C13.1820099,15.6757603 13.6111211,14.120402 14.6258239,14.3331557 L14.6258239,14.3331557" id="path58" transform="translate(18.2652, 9.4451) scale(-1, 1) rotate(-180) translate(-18.2652, -9.4451)"></path>
            <path d="M30.7352394,19.4433614 C30.4626086,21.6627691 29.9512242,23.8628355 30.207723,26.1096432 C30.256119,26.5432094 29.8011965,26.9155283 29.4011229,26.9155283 C28.9236157,26.9155283 28.6445321,26.5432094 28.5945229,26.1096432 C28.3380241,23.8612237 28.8494085,21.6627691 29.1220393,19.4433614 C29.1752749,19.011407 29.4559717,18.6374763 29.9286394,18.6374763 C30.3238734,18.6374763 30.7900882,19.0081835 30.7352394,19.4433614 L30.7352394,19.4433614" id="path59" transform="translate(29.6321, 22.7765) scale(-1, 1) rotate(-180) translate(-29.6321, -22.7765)"></path>
            <path d="M31.4143966,31.15782 C31.3095386,31.1175257 31.2030674,31.0901256 31.0917566,31.0659491 C30.9320498,31.0304901 31.2982462,31.0836785 31.103049,31.0691726 C31.0449738,31.0643373 30.9852854,31.0627255 30.9272102,31.0627255 C30.8594558,31.0643373 30.7900882,31.0675608 30.7223338,31.0723961 C30.6949094,31.0756197 30.6658718,31.0788432 30.6384474,31.080455 C30.538429,31.0885138 30.8400974,31.0466078 30.699749,31.0740079 C30.5529478,31.0997962 30.4061466,31.1304199 30.2609586,31.1707141 C30.1093178,31.2126202 29.9592902,31.2609733 29.8108758,31.3157735 C29.7318289,31.3447853 29.6527821,31.375409 29.5737353,31.4060326 C29.3946701,31.4769505 29.6818197,31.3576795 29.5753485,31.4044208 C29.5301789,31.4253738 29.4833961,31.4447151 29.4366133,31.4656681 C29.0446057,31.6429628 28.6655037,31.8444341 28.2928545,32.0571878 C27.9266581,32.2667179 27.3943021,32.1555058 27.1894257,31.7686809 C26.9861625,31.3850796 27.0861809,30.8886543 27.4781885,30.6646183 C28.2347793,30.2358874 29.0349265,29.8264977 29.8802434,29.6024617 C30.5045518,29.4380611 31.2272654,29.3623079 31.8435078,29.6040735 C32.2355154,29.7571916 32.5500894,30.1504636 32.4065146,30.5953122 C32.2839114,30.9740782 31.8354418,31.3222205 31.4143966,31.15782 L31.4143966,31.15782" id="path60" transform="translate(29.7644, 30.8056) scale(-1, 1) rotate(-180) translate(-29.7644, -30.8056)"></path>
            <path d="M52.2391957,10.8553127 C51.6342457,11.5274208 50.9195981,12.094764 50.3275537,12.7733192 C49.6322645,13.5711455 49.4983689,14.6510316 49.459652,15.6728939 C49.370926,17.9325958 49.5919345,20.2277566 49.6806605,22.4858468 C49.7677733,24.6778543 49.8758577,26.8714736 49.9387725,29.0650929 C49.9887817,30.8267578 49.8726313,32.6367758 48.8337304,34.1260515 C48.2449124,34.9706191 46.846268,34.1663457 47.4415388,33.3121075 C48.6030428,31.6455371 48.346544,29.5308945 48.2707236,27.6064408 C48.177158,25.2435856 48.0835924,22.8791187 47.9900268,20.5162635 C47.9045272,18.3709973 47.5996324,16.0919542 48.0368096,13.9708645 C48.4320436,12.0464109 49.8532729,11.1003017 51.0986633,9.71579109 C51.7939525,8.94214137 52.9312585,10.0848865 52.2391957,10.8553127 L52.2391957,10.8553127" id="path61" transform="translate(49.8758, 21.9712) scale(-1, 1) rotate(-180) translate(-49.8758, -21.9712)"></path>
            <path d="M24.5954001,20.014931 C23.4113113,18.9962922 23.2499912,17.0847327 24.2146849,15.8646226 C24.3098637,15.7437398 24.4195613,15.6438101 24.5211929,15.5309862 C24.5308721,15.5197038 24.3808445,15.7324575 24.4453725,15.6228571 C24.4953817,15.5374333 24.5421645,15.4536212 24.5889473,15.3665856 C24.7583333,15.0539022 24.9115873,14.7331599 25.0664545,14.4124176 C26.0601857,12.354187 26.9974549,10.2604975 27.8298661,8.13134897 C28.0218369,7.63814728 28.2105813,7.14172204 28.3735145,6.63723795 C28.4380425,6.44060198 28.5009573,6.24235424 28.5493533,6.04088296 C28.5670985,5.9683533 28.5816173,5.89582364 28.5977493,5.82329398 C28.6267869,5.6814582 28.5880701,6.00220048 28.5945229,5.80395274 C28.6219473,4.76758447 30.1819118,4.76436093 30.207723,5.80395274 C30.2819302,8.84858673 30.3561374,11.8932207 30.4319578,14.9378547 C30.457769,15.9758348 28.8445689,15.9758348 28.8187577,14.9378547 C28.7429373,11.8932207 28.6687301,8.84858673 28.5945229,5.80395274 C29.1317185,5.80395274 29.6705273,5.80395274 30.207723,5.80395274 C30.1819118,6.73877948 29.7189233,7.70422986 29.3849909,8.56007986 C28.8316633,9.9768259 28.2251001,11.3742307 27.6007917,12.7619649 C27.1168317,13.841851 26.6280321,14.9233488 26.0876101,15.9774465 C25.9617805,16.2240474 25.8391773,16.4625894 25.6568857,16.6737313 C25.0745205,17.3555101 25.0099925,18.2516544 25.7359325,18.8754094 C26.5247873,19.5539647 25.3794153,20.6902627 24.5954001,20.014931 L24.5954001,20.014931" id="path62" transform="translate(27.0094, 12.6237) scale(-1, 1) rotate(-180) translate(-27.0094, -12.6237)"></path>
            <path d="M25.8617621,14.3702276 C27.5459429,16.9119893 29.8802434,18.3996533 32.9808138,18.5221478 C37.3945291,18.6946072 41.8356687,18.9605493 46.2526104,18.9653846 C53.5055577,18.9734435 61.5699446,17.4342029 65.9965655,11.0967223 C68.3582903,7.71522829 69.7036992,3.74704994 72.0589712,0.359108882 C72.646176,-0.487070497 74.0464336,0.317202856 73.4511628,1.17305286 C71.1878432,4.43044052 69.8569532,8.21487706 67.6597747,11.5109472 C65.5480959,14.6812993 62.6072323,16.9829072 59.0920694,18.4335004 C55.3446057,19.9775763 51.2777285,20.5078487 47.2479548,20.5707078 C44.8555792,20.6077785 42.4648167,20.491731 40.0756675,20.37246 C37.6574807,20.2515773 35.2296146,20.253189 32.813041,20.127471 C29.1897937,19.9372821 26.4409009,18.1594995 24.4695705,15.1825598 C23.8952713,14.3154274 25.2906893,13.5079306 25.8617621,14.3702276 L25.8617621,14.3702276" id="path63" transform="translate(48.9646, 10.2889) scale(-1, 1) rotate(-180) translate(-48.9646, -10.2889)"></path>
            <path d="M60.056763,57.9360212 C61.2311726,55.9309791 62.4055822,53.9259369 63.5799919,51.9225064 C64.1026687,51.027974 65.4980867,51.8370826 64.9721835,52.7348387 C63.7977739,54.7398808 62.6233643,56.744923 61.4505678,58.7499652 C60.9262778,59.6444977 59.5308598,58.8337773 60.056763,57.9360212 L60.056763,57.9360212" id="path64" transform="translate(62.5145, 55.3361) scale(-1, 1) rotate(-180) translate(-62.5145, -55.3361)"></path>
            <path d="M104.771441,69.0762387 C98.6590264,70.9055979 93.8694355,65.5029441 90.7672519,61.0480111 C88.9588547,58.4514492 87.1682026,55.7936401 84.509649,53.9852339 C81.8010861,52.1413687 78.6472801,51.0921063 75.549936,50.1040911 C74.7078456,49.8365373 73.9577076,49.6399013 73.0785136,49.8881139 C72.2235176,50.1314912 71.4249836,50.5215396 70.5538556,50.7310697 C68.9955043,51.108224 67.3774647,51.1872007 65.7884627,50.9728353 C64.5801759,50.8100465 63.1653995,50.4409511 63.2638047,48.9323342 C63.3493043,47.6187414 64.5624307,46.3438311 65.3432195,45.3687101 C66.3514695,44.1099176 67.4839359,42.9526665 68.7228735,41.9195218 C69.8585664,40.9718009 71.1023436,40.0208565 72.5945536,39.7500791 C74.202914,39.4599604 75.9112929,39.9918446 77.4760969,40.319034 C79.1957681,40.6768469 80.9105997,41.0572247 82.6044598,41.5246381 C89.7138323,43.4877743 95.929492,47.4366114 101.251439,52.4798405 C102.006416,53.1970782 100.864271,54.334988 100.110906,53.6209738 C95.848832,49.5802658 90.9317983,46.1262422 85.3840034,44.0970234 C82.4415266,43.0203609 79.3732201,42.3498645 76.3097533,41.7196623 C74.7062324,41.3908612 73.1688528,40.9734127 71.6411524,41.7938037 C70.3586584,42.4836414 69.2294184,43.5506333 68.2082627,44.5757192 C67.1612959,45.6298169 66.2062815,46.7773973 65.3867759,48.0168487 C65.2593331,48.2102611 64.8931367,48.6357684 64.9060423,48.8791457 C64.9318535,49.2949825 65.3222479,49.2740294 65.6545671,49.3336649 C66.4498747,49.4755007 67.2693803,49.5077361 68.0743671,49.4706654 C69.7295104,49.3916887 71.0958908,48.7953337 72.6494024,48.3343674 C74.0432072,47.9201424 75.2934372,48.3246968 76.6243273,48.7598747 C79.2651357,49.6237836 81.9301421,50.5424926 84.3305838,51.9624622 C86.6777898,53.3501964 88.5297434,55.2391911 90.1558491,57.4070221 C92.0384535,59.9149366 93.6048707,62.7194168 95.9423976,64.8534006 C98.196038,66.913243 101.257892,68.4460365 104.34233,67.5224922 C105.339288,67.2243147 105.765173,68.779673 104.771441,69.0762387 L104.771441,69.0762387" id="path65" transform="translate(84.2979, 54.5542) scale(-1, 1) rotate(-180) translate(-84.2979, -54.5542)"></path>
            <path d="M100.370632,86.4255886 C104.318132,82.7652584 105.650635,77.4190164 106.896026,72.3790109 C107.536466,69.7856726 108.094633,67.1036869 109.180317,64.6505726 C110.295038,62.1313757 112.248623,60.2713928 114.605509,58.9013881 C117.589929,57.1687351 120.959904,56.0372724 124.337944,55.3845054 C125.351034,55.1878694 125.786598,56.7400042 124.767056,56.9382519 C121.087346,57.6506544 117.296326,58.894941 114.205435,61.0643838 C111.032271,63.2918502 110.011115,66.6717324 109.088365,70.2563095 C107.520334,76.3536363 106.345925,83.0811653 101.511164,87.5651101 C100.751347,88.2694537 99.607588,87.131544 100.370632,86.4255886 L100.370632,86.4255886" id="path66" transform="translate(112.7335, 71.577) scale(-1, 1) rotate(-180) translate(-112.7335, -71.577)"></path>
            <path d="M112.392198,94.3159774 C109.010931,91.1875313 106.132982,87.5320364 103.882568,83.5138932 C103.376023,82.6080783 104.768215,81.7941343 105.276373,82.6999492 C107.463872,86.6068803 110.245029,90.1334336 113.532731,93.1764558 C114.295774,93.8824112 113.153629,95.020321 112.392198,94.3159774 L112.392198,94.3159774" id="path67" transform="translate(108.7791, 88.4212) scale(-1, 1) rotate(-180) translate(-108.7791, -88.4212)"></path>
            <path d="M136.498246,126.960573 C131.492487,123.332479 126.110851,120.268503 120.434,117.817001 C120.04038,117.646153 119.938748,117.049798 120.145238,116.71455 C121.389015,114.695002 122.632792,112.677065 123.876569,110.657517 C125.100988,108.668593 126.1657,106.818281 126.29153,104.437696 C126.388322,102.603501 126.73032,101.138402 127.615967,99.526632 C128.370944,98.151792 129.729259,96.404633 129.47276,94.7396744 C129.31628,93.7258709 130.871404,93.2874694 131.027885,94.3109435 C131.294063,96.0419847 130.543925,97.5860606 129.722806,99.0656657 C129.287242,99.8538213 128.804895,100.625859 128.440312,101.451086 C127.964418,102.524525 127.959578,103.641481 127.886984,104.792285 C127.741796,107.043928 126.825499,108.928088 125.665608,110.828365 C124.299228,113.067114 122.913489,115.29458 121.537429,117.528494 C121.44225,117.16101 121.345458,116.793527 121.248666,116.426043 C126.923904,118.877546 132.307153,121.941521 137.311299,125.568004 C138.14371,126.170806 137.340337,127.569823 136.498246,126.960573 L136.498246,126.960573" id="path68" transform="translate(128.8514, 110.4194) scale(-1, 1) rotate(-180) translate(-128.8514, -110.4194)"></path>
            <path d="M102.990468,120.786636 C107.352561,114.845651 111.469448,108.719312 116.112237,102.989469 C116.765583,102.183583 117.901276,103.329552 117.25277,104.12899 C112.697093,109.752457 108.664093,115.770807 104.38266,121.60058 C103.774484,122.427418 102.374226,121.624756 102.990468,120.786636 L102.990468,120.786636" id="path69" transform="translate(110.1417, 112.3313) scale(-1, 1) rotate(-180) translate(-110.1417, -112.3313)"></path>
            <path d="M116.678471,129.567172 C115.270147,128.49051 113.805361,127.496048 112.274435,126.604739 C110.870951,125.785959 109.312599,125.220228 107.928474,124.39339 C106.723413,123.671317 106.92829,122.391571 108.041398,121.717851 C109.270656,120.973213 110.764479,120.621848 112.179256,120.460671 C113.737607,120.283376 115.307251,120.37847 116.859149,120.575106 C118.557849,120.791083 120.324303,121.358427 122.032682,121.397109 C123.57974,121.430956 124.954187,120.684707 126.539962,120.894237 C128.030559,121.092484 129.363062,121.766204 130.437454,122.813855 C131.181139,123.539152 130.040606,124.678673 129.296921,123.953377 C128.366105,123.047562 127.172337,122.491501 125.864032,122.446371 C124.54766,122.39963 123.352279,123.055621 122.032682,123.008879 C120.735669,122.962138 119.438656,122.596266 118.162615,122.385124 C116.839791,122.165923 115.505674,121.998299 114.161879,121.978958 C112.918101,121.959617 111.674324,122.072441 110.478943,122.433477 C110.264387,122.497948 108.780243,123.166833 108.74314,123.00082 C108.791536,123.216798 110.374085,123.763188 110.59348,123.871176 C113.031025,125.075169 115.333062,126.52415 117.491523,128.176215 C118.304576,128.798358 117.502816,130.198986 116.678471,129.567172 L116.678471,129.567172" id="path70" transform="translate(118.8954, 125.0472) scale(-1, 1) rotate(-180) translate(-118.8954, -125.0472)"></path>
            <path d="M99.7011536,53.0354483 C98.4396312,52.3198223 96.9667796,52.1038451 95.5616824,52.4987288 C94.2501507,52.8662124 93.3338531,53.8058745 92.2336507,54.5440652 C89.9671047,56.0639646 87.3279094,55.42248 85.7792374,53.2095195 C84.1192546,50.8353819 83.7853222,47.4538879 83.6578794,44.6413489 C83.5110782,41.3839612 83.8692086,38.1314088 84.2644426,34.903033 C84.388659,33.886006 86.0034722,33.8731118 85.8776426,34.903033 C85.5195122,37.8300078 85.1920326,40.7731003 85.243655,43.7258634 C85.2694662,45.2377038 85.3904562,46.7511561 85.679219,48.2372083 C85.9583026,49.6813544 86.3115934,51.2512186 87.2149854,52.4455404 C88.0796606,53.5882855 89.4686259,54.1991464 90.8156479,53.5173676 C91.8497091,52.9935423 92.6514695,52.1151275 93.6613327,51.5510079 C95.7939832,50.3615215 98.4105936,50.4501688 100.51582,51.6428788 C101.417598,52.1554217 100.606159,53.5479912 99.7011536,53.0354483 L99.7011536,53.0354483" id="path71" transform="translate(92.2665, 44.7544) scale(-1, 1) rotate(-180) translate(-92.2665, -44.7544)"></path>
            <path d="M87.8296146,71.5612303 C89.3427963,68.2973956 92.3514143,62.2226335 96.92161,63.4862614 C98.93811,64.0439339 100.778771,65.7250102 102.267755,67.1240268 C103.882568,68.6407026 105.363486,70.3411202 106.537895,72.2220561 C107.08961,73.1053062 105.694192,73.9144149 105.145704,73.0360001 C104.166491,71.4677476 102.958204,70.0574487 101.643446,68.7615854 C100.320622,67.4560515 98.8219596,66.0876586 97.1264864,65.2817734 C95.2422687,64.3872409 93.6080971,65.5767274 92.4111027,66.9983087 C91.0818259,68.5778436 90.0864815,70.5103561 89.2218063,72.3751743 C88.7862423,73.3148363 87.3956638,72.4976688 87.8296146,71.5612303 L87.8296146,71.5612303" id="path72" transform="translate(97.2057, 68.3653) scale(-1, 1) rotate(-180) translate(-97.2057, -68.3653)"></path>
            <path d="M75.6951241,78.1933789 C78.1310561,75.6757938 80.4782621,73.0115376 83.0561558,70.6422353 C85.1581554,68.7113345 87.6376438,67.5492482 90.5155927,68.2987214 C93.4483903,69.0610887 95.79237,71.1837901 98.6896772,72.0396401 C101.84187,72.9696315 105.26992,72.6521128 108.204331,71.1837901 C109.128695,70.721212 109.946587,72.110558 109.017384,72.5747478 C106.360443,73.9044583 103.398608,74.4331189 100.446452,74.0462941 C97.3765324,73.6433515 94.9664115,72.0638167 92.2626883,70.7099296 C90.9221191,70.0378215 89.4202299,69.4688666 87.8941426,69.7025732 C86.4035458,69.9298328 85.1500894,70.8904479 84.0805378,71.8913572 C81.5591061,74.2493771 79.2360981,76.8507743 76.8356565,79.3329005 C76.1129429,80.0791501 74.9740236,78.9396285 75.6951241,78.1933789 L75.6951241,78.1933789" id="path73" transform="translate(92.4458, 73.8226) scale(-1, 1) rotate(-180) translate(-92.4458, -73.8226)"></path>
            <path d="M70.1441028,86.2642619 C72.4461392,84.3220787 74.7610812,82.3927897 77.0647309,80.4506066 C79.2280321,78.6276944 81.4171445,76.7306408 84.0531134,75.6233547 C86.7326386,74.4967273 89.4702391,74.6305042 92.2530091,75.2752123 C95.1083731,75.9376499 98.0056804,76.9836888 100.967516,76.364769 C103.942256,75.7410139 106.512084,73.853631 107.988162,71.2006571 C108.493094,70.2948423 109.886899,71.1055627 109.381967,72.0146011 C106.760517,76.7209702 101.512777,78.8307775 96.3150468,77.8959507 C93.3032023,77.3527842 90.2994239,76.0262972 87.1859478,76.406675 C84.1434526,76.7806057 81.5687853,78.7792008 79.2893337,80.6778662 C76.6130349,82.9085562 73.9480284,85.1569757 71.2846352,87.4037834 C70.4957804,88.0694445 69.3487952,86.9347583 70.1441028,86.2642619 L70.1441028,86.2642619" id="path74" transform="translate(89.6829, 79.2054) scale(-1, 1) rotate(-180) translate(-89.6829, -79.2054)"></path>
            <path d="M123.678135,91.8081582 C123.684598,89.8369632 125.005809,88.0978631 126.731933,87.2323424 C128.830706,86.1814682 131.263412,86.400669 133.476723,86.9180472 C134.488199,87.1533657 134.059088,88.7071122 133.047611,88.4717938 C131.3231,88.0688512 129.330798,87.7996856 127.66275,88.5685 C126.386708,89.1551843 125.296185,90.3462826 125.291346,91.8081582 C125.286506,92.8445264 123.673306,92.84775 123.678135,91.8081582 L123.678135,91.8081582" id="path75" transform="translate(128.866, 89.5366) scale(-1, 1) rotate(-180) translate(-128.866, -89.5366)"></path>
            <path d="M131.492487,100.819462 C132.17487,98.8982315 134.454322,97.8231807 136.067522,96.7803654 C138.093701,95.4732197 140.174729,94.2514979 142.304153,93.1200352 C144.31904,92.0498197 146.374257,91.0344045 148.479483,90.1559897 C150.4492,89.3323751 152.536681,88.8166086 154.546728,89.7836708 C155.482384,90.2333547 154.664492,91.6243124 153.732062,91.1762403 C151.910759,90.2994372 149.797467,91.3067936 148.1149,92.0627139 C146.311342,92.8750461 144.535209,93.7502373 142.791339,94.6866758 C141.049083,95.6215026 139.337478,96.6175766 137.66459,97.6732861 C136.827339,98.200335 135.999767,98.7418898 135.181875,99.2995623 C134.430124,99.8104935 133.370251,100.340766 133.049225,101.248193 C132.704,102.218478 131.145648,101.80103 131.492487,100.819462 L131.492487,100.819462" id="path76" transform="translate(143.2013, 95.5291) scale(-1, 1) rotate(-180) translate(-143.2013, -95.5291)"></path>
            <path d="M127.941833,111.493884 C132.239398,107.925425 129.814758,98.938194 136.590199,97.6229894 C139.726259,97.0137403 142.754236,98.8011935 145.238564,100.493552 C146.754972,101.526697 148.418181,102.426065 149.97008,100.972248 C151.023499,99.9826211 151.818807,98.8108641 153.051292,98.0098143 C155.256536,96.5769506 159.074981,95.9064541 161.189886,97.8824845 C162.111023,98.7447815 162.496578,100.250175 161.820647,101.375191 C161.107613,102.559842 159.699289,102.627536 158.465191,102.64043 C155.637251,102.669442 153.983721,104.763132 151.94625,106.420031 C149.828118,108.143014 147.395412,109.018205 144.7175,108.015684 C143.02364,107.379035 141.566921,106.30076 140.132786,105.222486 C139.564939,104.796979 138.119512,103.349609 137.625873,104.442389 C137.312912,105.130615 137.33711,106.139583 137.262903,106.884221 C136.948329,109.990103 136.716028,113.058913 134.060701,115.105861 C133.239582,115.739287 132.434595,114.34027 133.246035,113.714904 C135.462572,112.006427 135.419015,108.969852 135.694873,106.442596 C135.817476,105.322416 135.812636,103.699363 136.695057,102.869302 C137.632326,101.990887 138.987414,102.440571 139.91823,103.070773 C142.236399,104.635802 144.791708,107.345188 147.874533,106.800409 C150.186248,106.39102 151.802675,104.295718 153.543318,102.907984 C154.419285,102.208476 155.367847,101.578274 156.456757,101.260755 C157.571478,100.935177 158.989481,101.349402 160.017089,100.867483 C160.812397,100.495164 160.599455,99.5313254 160.049353,99.0236178 C159.458922,98.4772277 158.532945,98.3370037 157.760223,98.30638 C156.208324,98.2451328 154.611256,98.762511 153.396516,99.7344085 C151.434865,101.302661 150.24755,103.984647 147.25829,103.306091 C145.767694,102.969231 144.567473,101.937698 143.307563,101.139872 C141.960541,100.287246 140.500595,99.5103724 138.918046,99.2154184 C135.201233,98.5255808 133.454138,101.610509 132.647538,104.708331 C131.913532,107.533765 131.466675,110.654152 129.082366,112.633406 C128.290284,113.29262 127.141686,112.157934 127.941833,111.493884 L127.941833,111.493884" id="path77" transform="translate(144.9167, 105.9587) scale(-1, 1) rotate(-180) translate(-144.9167, -105.9587)"></path>
            <path d="M131.48926,107.25808 C130.418095,101.779673 134.565633,97.5245995 138.597019,94.5315422 C140.800651,92.8955954 143.073649,91.3676372 144.970773,89.3642068 C146.664633,87.5751418 148.077796,85.5507584 149.411912,83.4876924 C151.912372,79.6178321 154.162786,75.4997591 157.411771,72.1843477 C159.194357,70.3646591 161.244735,69.025278 163.464498,67.8003326 C165.908496,66.4512809 167.962099,65.0168054 169.423659,62.5749735 C172.114476,58.0797463 173.779299,51.5424062 179.928817,50.8235566 C180.958039,50.7026739 180.949973,52.3160559 179.928817,52.4353269 C174.789162,53.0365172 173.142085,59.3594919 170.97717,63.1133048 C169.746299,65.2521239 168.121806,66.913859 166.014967,68.2016634 C163.904901,69.4910796 161.672233,70.5064949 159.794468,72.147277 C156.408361,75.1080989 154.117617,79.0456536 151.751052,82.8107489 C149.290922,86.7241271 146.671086,90.4392575 142.980084,93.2953144 C138.784151,96.5414197 131.797381,100.445127 133.044385,106.830961 C133.242809,107.843153 131.687684,108.276719 131.48926,107.25808 L131.48926,107.25808" id="path78" transform="translate(156.0079, 79.3282) scale(-1, 1) rotate(-180) translate(-156.0079, -79.3282)"></path>
            <path d="M152.039815,119.455768 C156.674539,114.003149 163.48063,111.353399 169.36881,107.568962 C170.923935,106.571276 172.424211,105.486555 173.788978,104.237433 C175.039208,103.091464 176.155542,101.679554 177.72196,100.942975 C181.093548,99.355381 184.032798,102.362944 184.445777,105.576814 C184.708729,107.623762 184.400608,109.928594 183.758554,111.888506 C183.20684,113.574418 182.237306,115.126553 180.593456,115.917932 C179.662639,116.366004 178.843134,114.976658 179.77879,114.525363 C182.527682,113.202099 183.072944,108.995379 182.901945,106.289217 C182.800313,104.672611 182.092118,102.840028 180.435362,102.248509 C178.775379,101.653765 177.339631,103.025382 176.253948,104.090762 C174.085807,106.216687 171.74344,108.02187 169.151028,109.607852 C166.544097,111.203504 163.825855,112.607356 161.201178,114.17722 C158.239343,115.948556 155.429148,117.950374 153.180348,120.595289 C152.507643,121.38828 151.37195,120.242312 152.039815,119.455768 L152.039815,119.455768" id="path79" transform="translate(168.1882, 110.6843) scale(-1, 1) rotate(-180) translate(-168.1882, -110.6843)"></path>
            <path d="M122.226266,50.4380414 C124.723499,51.0198904 127.227186,50.3542293 129.169478,48.7005531 C130.043833,47.9559152 130.835914,47.1274653 131.787702,46.4763101 C132.757235,45.8138725 133.855825,45.3561298 134.96248,44.9741402 C137.266129,44.1795375 139.593977,43.6331474 141.742759,42.4404374 C143.891542,41.2461157 145.761241,39.6601337 147.33895,37.7824214 C148.006815,36.9862069 149.142508,38.1321755 148.479483,38.921943 C146.821113,40.8979733 144.814292,42.5758261 142.557425,43.8313951 C140.28604,45.095023 137.827523,45.6881545 135.391591,46.5278868 C134.088125,46.9775707 132.881452,47.5707021 131.829645,48.4700699 C130.83914,49.3162493 129.943814,50.272029 128.821027,50.9505843 C126.714188,52.222271 124.178238,52.5478486 121.797154,51.9917879 C120.787291,51.7564694 121.214789,50.2027229 122.226266,50.4380414 L122.226266,50.4380414" id="path80" transform="translate(134.9504, 44.8829) scale(-1, 1) rotate(-180) translate(-134.9504, -44.8829)"></path>
            <path d="M132.852414,50.4605097 C138.130805,49.5321301 142.836509,45.6912816 148.345587,46.0329769 C153.904674,46.3795075 157.258517,50.9940057 161.017273,54.4754294 C163.590327,56.8592376 166.637662,58.6579732 169.957628,59.7846006 C170.935227,60.1166253 170.515795,61.6735953 169.53013,61.3383471 C166.803822,60.413191 164.235607,59.0915394 161.94325,57.347604 C159.829958,55.7406691 158.066731,53.7791447 156.172834,51.9352795 C154.317654,50.1284851 152.251144,48.4151733 149.663572,47.834936 C147.029216,47.2434163 144.390021,48.0202896 141.942796,48.9792929 C139.085819,50.0962496 136.327247,51.4791485 133.279912,52.0142562 C132.265209,52.1931627 131.829645,50.6394162 132.852414,50.4605097 L132.852414,50.4605097" id="path81" transform="translate(151.3911, 53.6984) scale(-1, 1) rotate(-180) translate(-151.3911, -53.6984)"></path>
            <path d="M148.042306,34.9928883 C151.309036,37.7764155 155.577563,39.2221734 158.261928,42.7003736 C158.908821,43.5384941 159.44763,44.4410855 159.870288,45.4113712 C160.275201,46.3365273 160.541379,47.3197071 160.97533,48.2319691 C161.168914,48.6349117 161.388309,49.0346307 161.688365,49.3698789 C161.814194,49.5101029 162.046495,49.6325974 162.1449,49.7857156 C162.407852,49.8598571 162.419144,49.9468926 162.175551,50.0452106 C162.204589,49.9887987 162.233626,49.9339985 162.262664,49.8775865 C162.590143,48.9733834 163.617752,48.4382757 164.077514,47.608214 C164.579219,46.6991756 165.973024,47.5115078 165.469705,48.422158 C164.968,49.3295846 164.12591,49.9871869 163.567743,50.8591546 C162.961179,51.8068755 161.94325,51.6328043 161.138263,51.0380611 C159.342772,49.7099624 159.076594,47.3116483 158.110287,45.4452183 C155.73727,40.8661791 150.629878,39.309209 146.901773,36.1324099 C146.109692,35.4586899 147.255064,34.3223919 148.042306,34.9928883 L148.042306,34.9928883" id="path82" transform="translate(156.106, 43.1577) scale(-1, 1) rotate(-180) translate(-156.106, -43.1577)"></path>
            <path d="M109.632013,19.0363563 C114.484519,18.5721665 121.387402,17.0264788 124.66865,21.8037658 C126.299596,24.1779034 127.233638,27.2628316 127.825683,30.0511942 C128.477416,33.1183929 128.645188,36.267792 128.330614,39.3881792 C128.22737,40.4100415 126.61417,40.4213239 126.717414,39.3881792 C127.262676,33.959737 126.414133,27.9413869 123.62491,23.1689352 C122.335963,20.9656453 120.092002,20.1968309 117.649617,20.0920658 C114.981384,19.9760183 112.282501,20.3950786 109.632013,20.6481265 C108.599565,20.7464445 108.606018,19.1346743 109.632013,19.0363563 L109.632013,19.0363563" id="path83" transform="translate(118.6723, 29.2925) scale(-1, 1) rotate(-180) translate(-118.6723, -29.2925)"></path>
            <path d="M100.678753,5.57580192 C98.8058276,7.49058497 96.8312708,9.48112123 95.542324,11.853647 C94.3001599,14.1359137 94.1307739,17.2176184 95.99402,19.21299 C96.4021596,19.6497797 96.8199784,20.0881812 96.9312892,20.6958186 C97.08293,21.5242685 96.623168,22.0029643 97.4765508,22.5558015 C98.405754,23.1569918 98.9187516,23.9564298 98.994572,25.0766101 C99.0736188,26.2854378 98.647734,27.4652536 98.7025828,28.6740813 C98.7654976,30.0247448 99.446268,31.2545255 100.339981,32.2393171 C102.25001,34.3410655 104.968252,35.5789051 107.615513,36.470214 C110.643489,37.487241 113.913446,38.0110664 117.096289,37.5388177 C119.904871,37.1213692 122.663443,35.9834594 124.752537,34.0316056 C127.059413,31.8766688 128.475802,28.8884468 129.540514,25.9663073 C130.177728,24.2207601 130.68266,22.4026833 130.834301,20.545924 C130.989168,18.6343645 130.748801,16.7373109 130.419708,14.8579868 C129.771202,11.1509152 129.096884,7.42450239 127.89505,3.84959599 C127.564344,2.86480437 129.121082,2.44252056 129.450175,3.4208651 C130.632651,6.93613601 131.295676,10.5948545 131.942569,14.2374552 C132.584623,17.8574912 132.681415,21.2889501 131.61509,24.8412917 C130.664915,28.0084202 129.258204,31.2239019 127.162658,33.804346 C125.191327,36.231672 122.418236,37.8821247 119.414458,38.6960687 C116.275171,39.5454716 112.960045,39.4616596 109.803012,38.757316 C106.689536,38.062643 103.458296,36.8441447 100.901374,34.9019616 C98.7574316,33.2756854 96.9329024,30.9257244 97.0974488,28.0986793 C97.1652032,26.9285341 97.9395392,24.9702333 96.8780536,24.0837597 C96.445716,23.7227231 95.9101336,23.5615461 95.5632956,23.0860739 C95.0648167,22.4026833 95.4003624,21.7789282 95.2358159,21.0375139 C95.0696563,20.286429 94.1678775,19.6352738 93.7920019,18.9148125 C93.4483903,18.258822 93.2193159,17.5496431 93.0999391,16.8211229 C92.8482799,15.2802706 93.0418639,13.6604415 93.6080971,12.2082365 C94.7841199,9.18939081 97.3136176,6.71048817 99.5382204,4.43466859 C100.26416,3.6916425 101.404693,4.83277584 100.678753,5.57580192 L100.678753,5.57580192" id="path84" transform="translate(112.707, 21.0874) scale(-1, 1) rotate(-180) translate(-112.707, -21.0874)"></path>
            <path d="M104.172944,16.3547118 C104.027756,18.7481906 103.882568,21.1416694 103.738993,23.5335365 C103.603484,25.7593912 102.921101,28.3769061 104.461707,30.2256066 C105.67322,31.6826469 107.052506,32.9333806 108.134963,34.5080801 C109.275496,36.1633681 110.15469,37.9717744 110.819328,39.8656044 C111.16294,40.8455607 109.604589,41.2678445 109.264203,40.2943353 C108.572141,38.3215285 107.599381,36.4631574 106.35883,34.7804693 C105.187647,33.1944874 103.484108,31.9582596 102.504895,30.243336 C101.436957,28.370459 101.977379,25.9769802 102.101595,23.9332555 C102.254849,21.4076115 102.40649,18.8803558 102.559744,16.3547118 C102.621046,15.3247906 104.235859,15.3167318 104.172944,16.3547118 L104.172944,16.3547118" id="path85" transform="translate(106.3616, 28.2128) scale(-1, 1) rotate(-180) translate(-106.3616, -28.2128)"></path>
            <path d="M129.443722,25.6164723 C131.831259,26.8188529 134.326879,28.1002102 136.073975,30.1842292 C137.758155,32.1957184 138.26954,34.7906685 139.664958,36.9633348 C141.145875,39.2681663 143.878636,40.0256983 146.471049,39.4051667 C149.265111,38.7395056 151.410667,36.5958512 152.969018,34.2845727 C154.972613,31.3108566 156.222843,27.9100213 158.055438,24.8363755 C158.586181,23.9466783 159.981599,24.755787 159.44763,25.6503195 C156.33254,30.8756786 154.422512,37.9980913 148.248795,40.5205118 C145.861259,41.4956328 142.955886,41.5294799 140.695793,40.1917106 C138.190493,38.7121055 137.416157,35.9366372 136.241747,33.4722405 C134.686623,30.213241 131.734467,28.5724589 128.629056,27.00743 C127.70308,26.5400166 128.517746,25.1506707 129.443722,25.6164723 L129.443722,25.6164723" id="path86" transform="translate(143.8942, 32.8388) scale(-1, 1) rotate(-180) translate(-143.8942, -32.8388)"></path>
            <path d="M162.619181,60.5142557 C165.681035,58.5108253 165.237405,53.8721505 161.86259,52.4699104 C160.210673,51.7832963 158.271607,51.7752374 156.508379,51.7139901 C154.630614,51.6495193 152.704454,51.7413902 150.996075,52.5972402 C150.070098,53.0614301 149.252206,51.6704723 150.181409,51.2062825 C152.317286,50.1376788 154.674171,50.0119608 157.021377,50.1247847 C159.210489,50.2295497 161.659327,50.2924088 163.549997,51.5447543 C167.289395,54.0220451 167.126462,59.4907816 163.433847,61.9068252 C162.562719,62.4757801 161.752893,61.0815988 162.619181,60.5142557 L162.619181,60.5142557" id="path87" transform="translate(158.026, 56.0659) scale(-1, 1) rotate(-180) translate(-158.026, -56.0659)"></path>
            <path d="M210.440883,56.2955999 C207.056389,58.1604181 203.257303,56.8677783 200.224487,54.9304305 C196.512513,52.5595165 192.973153,49.875919 189.369264,47.3422162 C188.633645,46.8248379 187.589904,45.7610696 186.668767,45.7143282 C185.791186,45.6691987 184.715182,46.3719305 183.958591,46.7829319 C182.358296,47.6516761 180.893511,48.7428445 179.604564,50.0290372 C178.31723,51.3168416 177.223481,52.7771054 176.360419,54.3808168 C175.477998,56.0167636 174.814973,57.7832638 173.624432,59.2354688 C171.548243,61.7675599 167.904024,62.6443629 165.534233,59.9736596 C163.069264,57.1965795 163.890383,53.3154367 165.850421,50.5077329 C166.978047,48.8911274 168.418635,47.5452992 169.797921,46.1495062 C171.257867,44.6731246 172.501644,43.0758603 173.669601,41.3625486 C175.742563,38.3211381 177.836497,35.087927 181.175821,33.2956385 C184.53289,31.4920676 188.078704,32.007834 191.235736,33.9484054 C194.283071,35.8228942 196.854512,38.5725743 200.298694,39.7540019 C201.27468,40.0892501 200.855248,41.6462201 199.869583,41.3077484 C197.119077,40.3648628 194.891247,38.5355035 192.585985,36.8286389 C190.330731,35.1604566 187.780262,33.4584273 184.836172,33.7662754 C181.208085,34.1450414 178.522107,37.2009578 176.555616,39.9925438 C175.507036,41.4818196 174.532663,43.0210601 173.424395,44.4684298 C172.329032,45.89807 171.06751,47.1552508 169.796308,48.4285493 C167.470073,50.7623926 164.264645,54.4082169 166.077882,57.9379938 C166.813501,59.3660222 168.304098,60.3991669 169.947949,59.9333653 C171.643422,59.4546696 172.730719,57.9170408 173.521187,56.4454945 C174.327787,54.9417129 174.984359,53.3750722 175.9426,51.9551026 C176.857284,50.5963803 177.934902,49.3408113 179.148028,48.2399722 C180.282108,47.210051 181.533951,46.2961773 182.869681,45.5434806 C184.103779,44.8471958 185.889591,43.7382979 187.359217,44.1638052 C188.223892,44.4152414 188.970803,45.098632 189.691904,45.6047278 C190.621107,46.2591066 191.548697,46.9118735 192.4779,47.5646405 C194.391155,48.9088569 196.302797,50.2530732 198.21444,51.5972896 C201.381151,53.8247561 205.614188,57.1143792 209.62783,54.9030304 C210.536061,54.4017699 211.350727,55.7927276 210.440883,56.2955999 L210.440883,56.2955999" id="path88" transform="translate(187.4223, 46.893) scale(-1, 1) rotate(-180) translate(-187.4223, -46.893)"></path>
            <path d="M199.77763,118.275626 C199.845385,115.754818 199.913139,113.234009 199.980894,110.7132 C200.011544,109.522102 200.092204,108.322945 200.051874,107.131847 C200.006705,105.815031 199.484028,104.806062 198.817776,103.698776 C196.806116,100.349518 195.743017,96.5457399 195.760762,92.6323617 C195.778507,88.7334895 196.839993,84.8007701 198.933927,81.4982528 C200.006705,79.8075059 201.60216,78.2376416 201.990941,76.2084229 C202.210336,75.0672896 202.00546,73.8794149 201.876404,72.7398933 C201.732829,71.4811008 201.631197,70.2190847 201.579575,68.953845 C201.358566,63.5624735 202.007073,58.1533726 203.436368,52.9538018 C203.710612,51.9545042 205.26735,52.3783998 204.991493,53.3809209 C203.69932,58.0840665 203.068558,62.9354949 203.158898,67.8143235 C203.202454,70.2045787 203.65899,72.5754928 203.691254,74.9560774 C203.721904,77.0836141 202.80722,78.7953141 201.60216,80.4828376 C199.248501,83.7805195 197.674018,87.3022375 197.415906,91.3945222 C197.164246,95.3755947 198.080544,99.3050905 200.121242,102.736549 C200.752003,103.797094 201.373085,104.833462 201.569896,106.072914 C201.750574,107.2076 201.655395,108.376133 201.624744,109.518879 C201.547311,112.437795 201.469877,115.35671 201.39083,118.275626 C201.363406,119.310383 199.750206,119.315218 199.77763,118.275626 L199.77763,118.275626" id="path89" transform="translate(200.3923, 85.7186) scale(-1, 1) rotate(-180) translate(-200.3923, -85.7186)"></path>
            <path d="M203.426689,113.801439 C202.347458,112.397587 201.381151,110.56984 201.411802,108.751763 C201.439226,107.112593 202.407146,105.740976 203.73481,104.849667 C205.286708,103.810075 207.237067,103.55058 209.045464,103.307203 C211.129719,103.026755 213.225266,102.891366 215.327265,102.888139 C215.87414,102.886531 216.217752,103.400686 216.106441,103.906782 C214.393223,111.706138 214.998173,120.229179 217.595425,127.767428 C217.932583,128.7504 216.375845,129.172892 216.038687,128.196159 C213.349482,120.385521 212.776796,111.551408 214.549703,103.479663 C214.809428,103.819746 215.069153,104.15983 215.327265,104.499913 C212.246053,104.504748 208.756702,104.55149 205.82713,105.607199 C204.520438,106.076224 203.155671,107.070687 203.028228,108.568021 C202.89272,110.145944 203.897743,111.78995 204.81888,112.987495 C205.451255,113.81111 204.050997,114.613771 203.426689,113.801439 L203.426689,113.801439" id="path90" transform="translate(209.527, 115.8193) scale(-1, 1) rotate(-180) translate(-209.527, -115.8193)"></path>
            <path d="M201.739282,34.5827374 C198.94038,35.1887631 196.191487,36.536203 194.305656,38.7362694 C192.732786,40.5720757 191.245415,43.0187429 188.483617,42.8575659 C185.728271,42.6980006 183.595621,40.1659096 181.921119,38.2382324 C179.948176,35.9688599 178.16075,33.4835101 176.894388,30.7467243 C176.460437,29.8118975 177.851016,28.9931182 178.28658,29.9343921 C179.448084,32.4423066 181.046765,34.7406909 182.83903,36.8392158 C184.307042,38.5573629 186.8317,41.9259627 189.461216,41.1474777 C190.614654,40.8057824 191.42932,39.7613552 192.150421,38.8603757 C192.908625,37.9142665 193.642631,36.9842751 194.589579,36.2138489 C196.533485,34.6327023 198.864559,33.5576516 201.31017,33.0273792 C202.321647,32.8081784 202.753984,34.3619249 201.739282,34.5827374 L201.739282,34.5827374" id="path91" transform="translate(189.5647, 36.1913) scale(-1, 1) rotate(-180) translate(-189.5647, -36.1913)"></path>
            <path d="M172.158033,64.2128873 C171.212698,61.640502 170.262523,58.7908922 170.93684,56.0331533 C171.503074,53.7283219 173.243716,52.0295161 175.37314,51.0963011 C180.272429,48.9494231 186.399363,49.9777325 191.311557,51.5427614 C194.508919,52.5614002 197.565933,53.9829816 200.497118,55.6108695 C201.405349,56.1137419 200.592296,57.5063114 199.682452,57.0018273 C193.884611,53.7831221 187.375349,51.2929371 180.637012,51.5830557 C178.11558,51.6910443 175.161811,52.3421995 173.493762,54.4068772 C171.29981,57.12271 172.651672,60.8958642 173.713158,63.7841565 C174.071288,64.7608892 172.512937,65.1799495 172.158033,64.2128873 L172.158033,64.2128873" id="path92" transform="translate(185.8017, 57.318) scale(-1, 1) rotate(-180) translate(-185.8017, -57.318)"></path>
            <path d="M207.93397,15.4100658 C207.24352,17.7229561 207.08704,20.1341644 206.972502,22.5324785 C206.946691,23.0740333 206.480476,23.427011 205.951347,23.3109635 C204.13327,22.9096327 202.149034,23.6897295 201.248869,25.3579117 C200.813305,26.1637969 200.655211,27.1147413 200.781041,28.0189444 C200.837503,28.4202752 200.945587,29.0343597 201.214992,29.361549 C201.584414,29.8112329 202.19743,29.6178205 202.715268,29.5646321 C204.167148,29.417961 206.106214,28.9328181 207.108011,30.3318347 C207.672631,31.1199904 207.9743,32.1644175 208.363081,33.0492793 C208.835748,34.1227183 209.306803,35.1977691 209.77947,36.2728198 C210.19245,37.2140937 208.803484,38.0344847 208.387279,37.085152 C207.809753,35.7715593 207.232228,34.4595783 206.654702,33.1459856 C206.414335,32.5963719 206.23043,31.8372281 205.856168,31.3617559 C205.462547,30.8637189 204.86405,30.968484 204.292977,31.0168371 C203.244397,31.108708 201.953837,31.4842504 200.932682,31.1312728 C200.042195,30.8218129 199.613084,29.915998 199.361425,29.0682068 C198.069252,24.7164272 202.074827,20.8046608 206.380458,21.7556052 C206.040073,22.0151002 205.699688,22.2745952 205.359302,22.5324785 C205.480292,19.9987757 205.648065,17.4263903 206.378845,14.9813349 C206.67406,13.9900962 208.232412,14.41238 207.93397,15.4100658 L207.93397,15.4100658" id="path93" transform="translate(204.4852, 25.9618) scale(-1, 1) rotate(-180) translate(-204.4852, -25.9618)"></path>
            <path d="M213.012323,35.4868323 C208.363081,35.8253041 203.671895,34.3698756 199.976054,31.5428305 C198.190242,30.1760494 196.573815,28.4901377 195.430056,26.5431192 C194.407287,24.8024074 194.270165,22.2670928 196.528645,21.4805489 C196.367325,21.8754326 196.206005,22.2703163 196.046299,22.6635883 C194.226609,19.2143999 192.682777,15.6523877 192.132675,11.7631861 C191.651942,8.35590378 191.63581,4.76971498 193.520027,1.75731639 C194.070129,0.878901606 195.465547,1.68801027 194.913832,2.57126037 C193.147378,5.39508184 193.279661,8.82009361 193.787819,11.9936692 C194.347599,15.5008813 195.793026,18.7308689 197.43849,21.8512561 C197.693376,22.3331754 197.461075,22.8602242 196.957757,23.0342954 C194.936417,23.7370272 197.635301,26.9976385 198.316071,27.7857941 C199.527584,29.189646 200.955266,30.3904148 202.542655,31.3494181 C205.693235,33.251307 209.34068,34.142616 213.012323,33.8750621 C214.047998,33.8009207 214.043158,35.4126909 213.012323,35.4868323 L213.012323,35.4868323" id="path94" transform="translate(202.8236, 18.4569) scale(-1, 1) rotate(-180) translate(-202.8236, -18.4569)"></path>
            <path d="M213.794725,36.3344929 C219.982961,37.6496975 225.059701,32.3405263 228.282875,27.7469811 C230.129989,25.1181838 231.546378,22.2830799 231.591548,19.0095746 C231.636718,15.7634693 230.875287,12.2530337 229.704104,9.2293527 C228.539374,6.22501296 226.385752,3.45921522 223.09805,2.73391861 C222.08496,2.50988254 222.514071,0.956136027 223.527161,1.18017209 C230.459082,2.70974206 232.638515,11.205383 233.14022,17.2898157 C233.449954,21.0452404 232.390082,24.4202873 230.35745,27.5535686 C228.536147,30.3628842 226.356714,33.0690464 223.678802,35.1047122 C220.652439,37.4047084 217.163087,38.6957363 213.365614,37.8882395 C212.350911,37.673874 212.780023,36.1185157 213.794725,36.3344929 L213.794725,36.3344929" id="path95" transform="translate(222.9897, 19.6439) scale(-1, 1) rotate(-180) translate(-222.9897, -19.6439)"></path>
            <path d="M222.838325,51.0667413 C227.242361,49.630654 230.267111,46.5247727 233.469313,43.3495853 C234.898608,41.9328393 236.384365,40.5579993 238.070159,39.4491013 C240.054395,38.1451792 242.304809,37.3683059 244.540705,36.6188328 C245.527983,36.2884199 245.950641,37.8453899 244.969816,38.1725793 C242.70327,38.9333349 240.470601,39.7295494 238.492818,41.1043894 C236.732817,42.3293348 235.218022,43.8734107 233.711293,45.3900865 C230.630081,48.4895207 227.502086,51.2392007 223.267436,52.6220996 C222.276931,52.9444536 221.854273,51.3874836 222.838325,51.0667413 L222.838325,51.0667413" id="path96" transform="translate(233.9029, 44.6194) scale(-1, 1) rotate(-180) translate(-233.9029, -44.6194)"></path>
            <path d="M228.453874,40.3249895 C230.915617,41.1614983 233.003098,42.9231632 234.100074,45.3005243 C234.705024,46.6092817 234.816335,48.2226637 236.403724,48.6997477 C237.749133,49.1059138 239.223597,48.662677 240.410913,48.0066865 C243.132381,46.5012931 244.784298,43.7016482 245.892566,40.8923327 C247.146023,37.7106982 248.080065,34.3856162 249.131872,31.1330638 C249.451286,30.149884 251.008024,30.570556 250.68861,31.5617947 C249.544851,35.0980186 248.555959,38.7438429 247.100853,42.1672429 C245.873208,45.0539234 244.038999,47.842286 241.225579,49.3976442 C239.000976,50.6274249 235.522916,51.1818739 233.832283,48.7787245 C232.928891,47.4941436 232.77725,45.8630321 231.80449,44.5848983 C230.84625,43.3228822 229.521812,42.3880554 228.024763,41.8803478 C227.047164,41.5483231 227.466596,39.9913531 228.453874,40.3249895 L228.453874,40.3249895" id="path97" transform="translate(239.1003, 40.5122) scale(-1, 1) rotate(-180) translate(-239.1003, -40.5122)"></path>
            <path d="M244.75526,48.8730398 C248.328498,48.8488632 251.219353,50.4703041 253.311673,53.3183021 C254.305404,54.6705774 255.081354,56.1695237 255.763737,57.6990936 C256.526781,59.4075701 257.2624,61.2965648 258.983684,62.2491211 C258.578771,62.481216 258.173858,62.7133109 257.770558,62.9454058 C257.893161,61.5447775 258.017378,60.1457609 258.141594,58.7467443 C258.19483,58.1310481 258.782034,57.7522821 259.35472,58.0504596 C261.313145,59.0739337 263.053788,60.4294324 264.5218,62.0798852 C264.071717,62.1991562 263.623248,62.3168154 263.173165,62.4360864 C264.402423,59.3624405 265.786549,55.9487112 264.707318,52.6284644 C264.218519,51.1279063 263.240919,49.96582 261.826143,49.2663117 C260.41298,48.5668034 258.883666,48.2009316 257.556002,47.320905 C256.241244,46.4473256 255.123297,45.3174746 253.913397,44.3101182 C252.551856,43.1802673 251.085457,42.1777462 249.549691,41.2993314 C248.151046,40.4982816 246.381366,39.3507012 244.71977,39.3635953 C243.088825,39.3748777 241.303012,40.4918345 239.88017,41.2058487 C236.337583,42.9836313 233.035362,45.2014272 230.03965,47.7931537 C229.257248,48.4700972 228.111876,47.335411 228.899117,46.6536321 C231.817396,44.1279882 235.006692,41.9214747 238.433129,40.137245 C240.03665,39.3023481 241.774067,38.3352859 243.542134,37.906555 C245.305361,37.4778241 246.908882,38.1531559 248.475299,38.9106879 C250.236914,39.7649261 251.917868,40.7835649 253.490738,41.947263 C255.005533,43.0690551 256.331584,44.4116597 257.83186,45.546346 C259.254702,46.6230085 260.911458,47.0469041 262.495621,47.8028243 C263.994284,48.5184503 265.162241,49.6805367 265.862369,51.1875418 C267.654635,55.044508 266.205981,59.1722517 264.729903,62.8648173 C264.5218,63.3821955 263.824898,63.7190555 263.381268,63.2194067 C261.997142,61.6624367 260.388782,60.4068677 258.540054,59.4430291 C258.944968,59.2109341 259.349881,58.9788392 259.754794,58.7467443 C259.630578,60.1457609 259.506361,61.5447775 259.383758,62.9454058 C259.328909,63.5482079 258.738478,63.954374 258.169018,63.6400788 C255.16524,61.9783436 254.437687,58.145554 252.764798,55.4007093 C250.938656,52.4060402 248.373668,50.4606335 244.75526,50.48481 C243.716359,50.4928689 243.716359,48.8810986 244.75526,48.8730398 L244.75526,48.8730398" id="path98" transform="translate(247.6639, 50.761) scale(-1, 1) rotate(-180) translate(-247.6639, -50.761)"></path>
            <path d="M228.661977,83.2273854 C228.599062,78.3372745 228.302233,73.4568342 228.089291,68.5731704 C227.984433,66.1845269 227.913452,63.7958833 227.879575,61.4072398 C227.845698,59.0476082 227.742453,56.7105413 226.874551,54.4879102 C226.497062,53.5224598 228.057027,53.1033995 228.429676,54.0607911 C229.255634,56.1722101 229.433086,58.4303002 229.479869,60.6787197 C229.533105,63.1801871 229.578274,65.6800428 229.684746,68.1798984 C229.899301,73.1957274 230.210649,78.2067211 230.275177,83.2273854 C230.289696,84.2653655 228.676496,84.2653655 228.661977,83.2273854 L228.661977,83.2273854" id="path99" transform="translate(228.5457, 68.7626) scale(-1, 1) rotate(-180) translate(-228.5457, -68.7626)"></path>
            <path d="M214.054451,104.013677 C218.155205,100.625736 219.208625,95.2134116 219.163455,90.146006 C219.139257,87.3931024 219.040852,84.4886924 218.555279,81.7728595 C218.150365,79.5083223 216.874324,76.810219 214.206091,76.8086072 C213.167191,76.8069954 213.165577,75.1952252 214.206091,75.1968357 C220.784721,75.2000605 220.599203,84.4822453 220.750844,88.9790843 C220.947654,94.7943514 219.944244,101.23015 215.194983,105.153199 C214.401289,105.809189 213.25269,104.676115 214.054451,104.013677 L214.054451,104.013677" id="path100" transform="translate(217.1001, 90.2738) scale(-1, 1) rotate(-180) translate(-217.1001, -90.2738)"></path>
            <path d="M219.610311,87.0968701 C223.94498,86.4134795 228.205441,85.9525133 232.37395,87.6561544 C236.018169,89.1454301 239.162296,91.5824267 242.701657,93.2812326 C243.637313,93.7309165 242.81942,95.1218742 241.886991,94.6738021 C238.605742,93.0974908 235.67617,90.8732478 232.349752,89.3855839 C228.350629,87.5981307 224.254714,87.9865673 220.039423,88.6506166 C219.023107,88.8101819 218.585929,87.2580472 219.610311,87.0968701 L219.610311,87.0968701" id="path101" transform="translate(231.0706, 90.6213) scale(-1, 1) rotate(-180) translate(-231.0706, -90.6213)"></path>
            <path d="M241.669209,86.3677546 C240.643213,83.1716142 243.772821,80.5428169 245.724793,78.4926452 C248.376894,75.7075062 251.020929,72.9143083 253.681096,70.1356164 C254.689346,69.0815187 255.737926,68.5625287 257.120438,69.3522961 C258.636846,70.2178167 259.95967,71.6377863 261.29056,72.7579666 C263.857162,74.9177388 266.764148,76.9662987 268.859695,79.6144373 C270.180906,81.2810077 272.131265,84.7156901 270.164774,86.6272496 C269.146845,87.6152648 267.740134,87.2381105 266.617347,86.6723792 C265.099326,85.9084001 263.647446,85.2137271 261.966491,84.8655847 C261.12924,84.6915135 260.235528,84.5512895 259.377305,84.5819132 C258.252905,84.6238192 257.883482,85.2105036 257.375324,86.0953654 C256.470319,87.6749003 255.607257,89.2802234 254.779685,90.9016643 C253.098731,94.1945109 251.572644,97.567946 250.217556,101.007464 C249.651322,102.446775 249.230277,104.092392 247.468663,104.358334 C246.526554,104.501782 245.511851,104.371228 244.563289,104.335769 C243.571171,104.298699 242.57744,104.255181 241.585322,104.205216 C237.534577,103.997298 233.496737,103.645932 229.468577,103.167236 C228.450648,103.046353 228.437742,101.432971 229.468577,101.555466 C232.533657,101.919726 235.60519,102.216291 238.684789,102.422598 C240.204423,102.52414 241.725671,102.604728 243.246918,102.670811 C244.06965,102.70627 244.890769,102.738505 245.713501,102.764293 C246.557205,102.793305 247.555775,102.989941 248.031669,102.138926 C248.776968,100.805992 249.206079,99.2006693 249.802963,97.7903703 C250.391781,96.3961891 251.00641,95.0116784 251.648464,93.6416737 C252.979354,90.798511 254.421555,88.0053132 255.983132,85.2830332 C256.57195,84.253112 257.236589,83.3198971 258.465847,83.0555667 C259.761247,82.7767305 261.293787,83.0684609 262.568215,83.3489089 C264.018482,83.6680394 265.418739,84.2015354 266.727045,84.8994319 C267.291665,85.2008329 268.017605,85.740776 268.683856,85.6134461 C269.375919,85.4796692 269.388825,84.625431 269.303325,84.050029 C268.906478,81.426067 266.607668,79.3726717 264.707318,77.7367249 C262.239122,75.6140235 259.738662,73.5219457 257.231749,71.4427621 C256.912336,71.1784318 256.533234,70.7674304 256.117028,70.6594418 C255.52821,70.5063236 255.202344,70.8770308 254.821628,71.275138 C254.132792,71.9939875 253.448795,72.7160606 252.763185,73.4365219 C251.483918,74.7823501 250.203037,76.1265664 248.923769,77.4707828 C247.650954,78.8069404 246.365234,80.1302037 245.108551,81.4792554 C244.005122,82.6639066 242.671006,84.2160413 243.224333,85.9406355 C243.542134,86.9302624 241.985396,87.354158 241.669209,86.3677546 L241.669209,86.3677546" id="path102" transform="translate(249.8501, 86.6971) scale(-1, 1) rotate(-180) translate(-249.8501, -86.6971)"></path>
            <path d="M232.699816,67.3370579 C232.364271,61.436367 238.086291,57.7389661 243.280795,56.9685399 C244.866571,56.7332214 246.466865,56.6639153 248.068773,56.6719742 C249.409342,56.6784212 250.985439,56.539809 252.280838,56.960481 C253.535908,57.3682589 254.052132,58.3804506 253.927916,59.6585844 C253.74885,61.5185673 253.443956,63.3769384 253.201976,65.2288624 C253.06808,66.2426659 251.453267,66.25556 251.588776,65.2288624 C251.77268,63.8137281 251.958198,62.3985938 252.143716,60.9834596 C252.219537,60.4064458 252.621224,59.2089005 252.195339,58.7060282 C251.940453,58.4062389 251.319371,58.3820624 250.964467,58.3546623 C248.362375,58.1628616 245.590898,58.1644734 243.019457,58.6351103 C238.742864,59.4184307 234.035546,62.4421116 234.313016,67.3370579 C234.372705,68.3734261 232.759505,68.3702026 232.699816,67.3370579 L232.699816,67.3370579" id="path103" transform="translate(243.3158, 62.3841) scale(-1, 1) rotate(-180) translate(-243.3158, -62.3841)"></path>
            <path d="M226.456732,17.8269092 C227.958622,23.6341174 228.674882,29.6202321 228.576477,35.619241 C228.558732,36.6556092 226.945532,36.657221 226.963277,35.619241 C227.058456,29.7572326 226.36962,23.9306831 224.901608,18.2540283 C224.641882,17.2498955 226.197007,16.8211646 226.456732,17.8269092 L226.456732,17.8269092" id="path104" transform="translate(226.7289, 26.8253) scale(-1, 1) rotate(-180) translate(-226.7289, -26.8253)"></path>
        </g>
        <g transform="translate(122.0, 44.8) scale(0.87)" fill="#D62725">
            <path d="M1.73935989,67 L1.73935989,65.9641806 L6.32536696,62.3527348 L6.32536696,30.6600011 L1.73935989,27.0485554 L1.73935989,26.0127359 L13.0971758,26.0127359 L13.0971758,62.3527348 L19.3687098,65.9641806 L19.3687098,67 L1.73935989,67 Z M26.8412747,48.5520185 L11.3559596,47.8837479 L11.3559596,45.3071935 L26.8412747,44.579521 L26.8412747,48.5520185 Z M27.1438528,52.3908619 L22.1995784,47.7157521 L22.1995784,45.4157874 L27.1438528,40.7406776 L28.2121576,40.7406776 L28.2121576,52.3908619 L27.1438528,52.3908619 Z M31.2082375,29.6882243 L11.600064,28.6208476 L11.600064,26.0127359 L31.2082375,26.0127359 L31.2082375,29.6882243 Z M31.7558481,34.8663933 L24.5997837,28.6589019 L24.5997837,26.0127359 L31.7827646,25.4521311 L32.5317846,25.4521311 L32.824153,34.8663933 L31.7558481,34.8663933 Z" id="Shape" fill-rule="nonzero"></path>
            <path d="M48.8676147,67.7555171 C46.0707784,67.7555171 43.5916801,67.1562392 41.4303197,65.9576835 C39.2689593,64.7591278 37.580029,63.0995891 36.363529,60.9790674 C35.147029,58.8585458 34.538779,56.4376117 34.538779,53.7162653 C34.538779,50.5197042 35.1883318,47.7111114 36.4874375,45.2904867 C37.7865432,42.8698621 39.57525,40.9693128 41.8535577,39.588839 C44.1318655,38.2083652 46.7557558,37.5181283 49.7252286,37.5181283 C52.1514222,37.5181283 54.250751,38.1047213 56.023215,39.2779075 C57.7956791,40.4510937 59.1668714,42.1202233 60.1367919,44.2852963 C61.1067124,46.4503694 61.5916727,49.0139297 61.5916727,51.9759773 L38.8509807,51.9759773 L38.8509807,49.6537369 L54.5033635,48.1816852 C54.5033635,45.9027587 53.9585373,44.1224054 52.8688849,42.8406252 C51.7792326,41.5588451 50.3192469,40.917955 48.488928,40.917955 C47.0509086,40.917955 45.7725317,41.3824959 44.6537972,42.3115776 C43.5350627,43.2406594 42.6658468,44.5360525 42.0461496,46.1977569 C41.4264524,47.8594612 41.1166037,49.7756344 41.1166037,51.9462764 C41.1166037,55.5617441 41.9862837,58.3732761 43.7256436,60.3808724 C45.4650035,62.3884687 47.9174947,63.3922669 51.0831174,63.3922669 C54.5179046,63.3922669 57.3264974,62.3462377 59.508896,60.2541795 L60.9438215,61.6798234 C59.7050458,63.5973888 58.0284909,65.0893958 55.914157,66.1558443 C53.799823,67.2222928 51.4509756,67.7555171 48.8676147,67.7555171 Z" id="Path" fill-rule="nonzero"></path>
            <path d="M78.6928453,67.7555171 C77.2065619,67.7555171 75.6850087,67.6088688 74.1281857,67.3155722 C72.5713627,67.0222757 71.0920405,66.6217774 69.6902192,66.1140774 C68.2883978,65.6063773 67.0457548,64.9905474 65.9622901,64.2665876 L69.0771737,57.7425957 L70.166826,57.7425957 L75.9557202,65.8917846 L71.5906137,65.8917846 L71.2991735,61.2667951 C72.2427963,62.4189431 73.3490008,63.2677396 74.6177868,63.8131845 C75.8865728,64.3586295 77.3634199,64.6313519 79.0483281,64.6313519 C81.0729405,64.6313519 82.7068003,64.1988324 83.9499074,63.3337932 C85.1930145,62.468754 85.814568,61.3463069 85.814568,59.9664518 C85.814568,58.8143038 85.3707559,57.9070336 84.4831316,57.2446413 C83.5955074,56.582249 82.4605302,56.0395885 81.0782001,55.6166599 C79.6958699,55.1937312 78.2261387,54.7851889 76.6690063,54.391033 C75.1118739,53.9968771 73.6419879,53.4839175 72.2593484,52.8521543 C70.8767089,52.2203911 69.7417317,51.3790198 68.8544168,50.3280405 C67.967102,49.2770612 67.5234445,47.8769415 67.5234445,46.1276813 C67.5234445,43.4576927 68.630113,41.35527 70.84345,39.8204133 C73.0567871,38.2855566 76.0686456,37.5181283 79.8790256,37.5181283 C81.2465053,37.5181283 82.6150678,37.6369319 83.9847131,37.8745392 C85.3543585,38.1121466 86.6823917,38.448757 87.9688126,38.8843704 C89.2552335,39.3199838 90.4132598,39.8508877 91.4428916,40.477082 L88.328008,46.9685885 L87.2383557,46.9685885 L81.011373,38.8945801 L85.814568,38.8945801 L86.1069364,43.5195696 C85.389783,42.6198793 84.424658,41.9154107 83.2115612,41.4061638 C81.9984644,40.8969168 80.7406615,40.6422934 79.4381526,40.6422934 C77.593602,40.6422934 76.13176,40.9864837 75.0526267,41.6748643 C73.9734935,42.3632449 73.4339268,43.2909344 73.4339268,44.4579329 C73.4339268,45.6106997 73.8775842,46.5119369 74.7648991,47.1616444 C75.652214,47.811352 76.7888928,48.343184 78.1749355,48.7571405 C79.5609783,49.171097 81.0325658,49.5768548 82.5896982,49.974414 C84.1468306,50.3719731 85.6184182,50.8864796 87.004461,51.5179335 C88.3905037,52.1493873 89.5273372,52.9952446 90.4149615,54.0555055 C91.3025857,55.1157663 91.7463978,56.5298083 91.7463978,58.2976316 C91.7463978,61.3277438 90.6180724,63.6615861 88.3614216,65.2991585 C86.1047707,66.9367309 82.8819119,67.7555171 78.6928453,67.7555171 Z" id="Path" fill-rule="nonzero"></path>
            <path d="M109.972529,67.7555171 C107.902746,67.7555171 106.097333,67.3199036 104.556288,66.4486767 C103.015244,65.5774499 101.827207,64.3615686 100.992178,62.801033 C100.15715,61.2404974 99.7396351,59.3854277 99.7396351,57.2358239 L99.7396351,39.2370688 L102.293914,42.7501302 L94.7443123,42.7501302 L94.7443123,41.7625748 L104.574387,30.5653294 L106.047367,30.5653294 L106.047367,55.5196678 C106.047367,58.0665214 106.513919,59.9792913 107.447023,61.2579776 C108.380127,62.5366639 109.806699,63.1760071 111.726739,63.1760071 C114.378165,63.1760071 116.62275,62.1024427 118.460494,59.955314 L120.090331,61.0728109 C119.185691,63.0986609 117.82904,64.7189078 116.020378,65.9335515 C114.211716,67.1481952 112.195766,67.7555171 109.972529,67.7555171 Z M117.222337,43.3060943 L104.740527,41.7041011 L104.740527,38.8379627 L117.032993,37.43181 L117.853481,37.43181 L117.853481,42.8642931 L117.222337,43.3060943 Z" id="Shape" fill-rule="nonzero"></path>
            <path d="M122.888077,67 L122.888077,66.1089725 L128.056036,61.8914424 L127.105607,63.5546937 L127.105607,43.8332855 L129.659885,47.6944046 L122.828675,42.4076415 L122.828675,41.3978104 L131.917155,37.9525041 L133.402201,37.9525041 L133.402201,63.6734974 L132.511173,61.9508443 L137.619731,66.1089725 L137.619731,67 L122.888077,67 Z M130.372707,33.7349741 C128.986665,33.7349741 127.87783,33.3389619 127.046205,32.5469374 C126.214579,31.754913 125.798766,30.7252813 125.798766,29.4580422 C125.798766,28.2304043 126.214579,27.2205732 127.046205,26.4285487 C127.87783,25.6365243 128.986665,25.2405121 130.372707,25.2405121 C131.719149,25.2405121 132.808183,25.6365243 133.639808,26.4285487 C134.471434,27.2205732 134.887247,28.2304043 134.887247,29.4580422 C134.887247,30.7252813 134.471434,31.754913 133.639808,32.5469374 C132.808183,33.3389619 131.719149,33.7349741 130.372707,33.7349741 Z" id="Shape" fill-rule="nonzero"></path>
            <polygon id="Path" fill-rule="nonzero" points="153.311484 67.5847368 139.941431 40.3109425 142.126305 40.3109425 142.126305 43.9428076 137.587633 39.147966 137.587633 38.2736453 151.630598 38.2736453 151.630598 39.147966 147.389864 43.5418453 146.753151 43.5418453 146.753151 40.3638473 157.034308 61.3187717 155.603095 61.3187717 162.851047 39.6909359 162.851047 43.2643273 162.230112 43.2643273 158.177793 39.147966 158.177793 38.2736453 170.730143 38.2736453 170.730143 39.147966 166.1924 43.9428076 166.1924 40.3109425 168.376346 40.3109425 154.958029 67.5847368"></polygon>
            <path d="M194.209421,67.7239598 L192.618565,63.0841199 L191.99299,63.0841199 L191.99299,49.0049575 C191.99299,46.3467255 191.403303,44.3451622 190.223929,43.0002676 C189.044555,41.655373 187.284157,40.9829257 184.942735,40.9829257 C183.711384,40.9829257 182.532939,41.2358476 181.407398,41.7416913 C180.281857,42.247535 179.360509,42.9465894 178.643356,43.8388544 L178.935725,38.8732325 L183.885568,38.8732325 L177.511937,47.2442501 L176.422285,47.2442501 L173.286053,40.4557345 C174.333629,39.8363466 175.513158,39.308846 176.824639,38.8732325 C178.13612,38.4376191 179.521389,38.0991524 180.980447,37.8578325 C182.439504,37.6165125 183.897634,37.4958526 185.354835,37.4958526 C189.670749,37.4958526 192.907376,38.3506821 195.064714,40.060341 C197.222053,41.77 198.300722,44.3456263 198.300722,47.78722 L198.300722,61.9322812 L195.843899,58.3217636 L202.14699,63.1082518 L202.14699,64.0948792 L195.325989,67.7239598 L194.209421,67.7239598 Z M181.352637,67.7555171 C178.771132,67.7555171 176.656953,67.0337229 175.010099,65.5901346 C173.363245,64.1465464 172.539818,62.2818857 172.539818,59.9961527 C172.539818,54.6858765 176.695471,51.341739 185.006777,49.9637402 L194.008939,48.5102516 L194.008939,51.068243 L187.674291,52.6034091 C184.47773,53.3892459 182.238095,54.2448488 180.955387,55.170218 C179.672679,56.0955871 179.031324,57.3704061 179.031324,58.994675 C179.031324,60.3089405 179.467092,61.3404286 180.338629,62.0891392 C181.210165,62.8378498 182.405782,63.2122051 183.925478,63.2122051 C187.55889,63.2122051 190.54507,61.9774513 192.884017,59.5079439 L192.884017,63.0841199 L192.045894,63.0841199 C190.547236,64.6793066 188.933022,65.8566694 187.203253,66.6162085 C185.473484,67.3757475 183.523279,67.7555171 181.352637,67.7555171 Z" id="Shape" fill-rule="nonzero"></path>
            <polygon id="Path" fill-rule="nonzero" points="204.702176 67 204.702176 66.1256793 209.88777 61.8942269 208.937341 63.5574782 208.937341 27.3956848 211.491619 31.3514756 204.643702 26.0749222 204.643702 25.0873667 213.773021 21.5575985 215.246001 21.5575985 215.246001 63.6549343 214.343835 61.9424909 219.481166 66.1256793 219.481166 67"></polygon>
        </g>
    </g>
</svg>