<?xml version="1.0" encoding="UTF-8"?>
<svg width="249px" height="150px" viewBox="0 0 249 150" version="1.1" xmlns="http://www.w3.org/2000/svg" xmlns:xlink="http://www.w3.org/1999/xlink">
    <title>Corsi</title>
    <defs>
        <path d="M0,0 L249,0 L249,150 L0,150 L0,0 Z" id="path-1"></path>
    </defs>
    <g id="Corsi" stroke="none" fill="none" xlink:href="#path-1" fill-rule="evenodd" stroke-width="1">
        <g id="Group" fill="#FBBB21">
            <path d="M93.5766462,66.4343594 C87.0966285,68.5813108 81.0080654,64.6600998 76.3751653,60.5008372 C73.6299167,58.0384162 70.9779342,55.4649169 68.3550386,52.8732785 C66.3546046,50.8944405 63.8139032,48.8374363 64.3841958,45.7036838 C65.5893354,39.0724632 74.0574016,38.9133259 79.2202479,39.3120107 C81.002248,39.450204 82.7908162,39.6072843 84.5793844,39.5195811 C86.0044591,39.450204 87.418462,39.1169693 88.849354,39.1528734 C91.7045702,39.2200065 93.487321,41.1573305 93.2416767,44.0375104 C92.9917162,46.9674324 90.7617765,49.4509845 88.1413205,50.6174929 C84.6548229,52.1682871 80.6774121,51.5379088 77.0957719,50.6986511 C75.9208453,50.4231995 76.4185143,48.6190198 77.5949421,48.8957804 C80.4458421,49.5635587 83.4988498,50.1150229 86.3767725,49.2770742 C88.5466617,48.6466959 90.5955115,46.9790264 91.2170347,44.7497949 C91.4942056,43.7585058 91.5557574,42.2873738 90.6974098,41.5479743 C89.8771568,40.8416738 88.5282712,40.9914611 87.5342469,41.0827173 C86.2471009,41.2025846 84.9862269,41.402675 83.688009,41.413708 C82.1963158,41.426798 80.7066867,41.2960848 79.2202479,41.1820145 C76.6589041,40.9834201 74.0405124,40.7964197 71.5225176,41.436335 C69.2060676,42.0235163 66.6587982,43.5232593 66.222681,46.0776846 C65.993926,47.4145503 66.66987,48.4692325 67.5516748,49.4137714 C68.5449485,50.4779906 69.6100952,51.4838657 70.6502834,52.5028308 C72.6741746,54.4854089 74.7222738,56.4431159 76.805465,58.3634228 C81.1443051,62.361304 86.8085735,66.709063 93.0782266,64.6316757 C94.226881,64.2503819 94.7187326,66.0568056 93.5766462,66.4343594 L93.5766462,66.4343594" id="path435" transform="translate(79.2641, 53.0958) scale(-1, 1) rotate(-180) translate(-79.2641, -53.0958)"></path>
            <path d="M84.250983,52.5330919 C84.3675186,52.6376251 84.4855554,52.7406623 84.6058442,52.8399595 C84.6623292,52.8867096 84.7193773,52.9334597 84.7773636,52.9802098 C84.8058876,53.0020888 84.8351622,53.0247159 84.8638739,53.0473429 C84.9577029,53.1219561 84.7092437,52.9312157 84.805137,53.0020888 C85.0580999,53.1875932 85.3123765,53.3687966 85.5777249,53.5354139 C85.834441,53.6982913 86.0982881,53.8493876 86.3679526,53.9896379 C86.4985625,54.056958 86.6312367,54.1225951 86.7646616,54.1861753 C86.8393494,54.2213313 86.9147879,54.2548044 86.9904141,54.2892125 C87.0240049,54.3037985 87.058534,54.3191325 87.0923124,54.3337186 C87.1970255,54.3804687 86.8658092,54.2402184 87.0461485,54.3133355 C87.2820346,54.4103887 87.4726951,54.5149219 87.6068706,54.7436234 C87.7249074,54.9437138 87.7746368,55.2388004 87.7014502,55.4630139 C87.6280759,55.6894713 87.4873324,55.9086358 87.2703998,56.022706 C87.0630377,56.1328493 86.7747951,56.2110154 86.5469783,56.1175152 C85.2104782,55.5660511 83.9987706,54.8238466 82.924241,53.8553716 C82.5592463,53.5258769 82.5635624,52.8618385 82.924241,52.5330919 C83.3141943,52.1759211 83.8617803,52.1811571 84.250983,52.5330919 L84.250983,52.5330919" id="path436" transform="translate(85.1939, 54.2132) scale(-1, 1) rotate(-180) translate(-85.1939, -54.2132)"></path>
            <path d="M83.4299793,1.64656639 C80.5719483,11.4268735 77.3757576,23.8061119 84.739269,32.5147198 C88.1844818,36.5879622 93.4235172,38.3008857 98.5379478,39.1511764 C101.121247,39.5814643 103.858427,39.7720177 106.405696,39.0451472 C108.921439,38.3250088 110.831047,36.6061012 112.462733,34.6332472 C116.175546,30.1437419 118.611534,24.7601879 119.271902,18.968225 C119.406828,17.7863825 121.28491,17.7717965 121.148482,18.968225 C120.513072,24.5445764 118.462721,29.7265441 115.12072,34.2467174 C113.547583,36.3745947 111.778156,38.4798451 109.436748,39.7983848 C106.953282,41.1971477 104.04008,41.5316913 101.233279,41.344691 C95.7273942,40.9764872 89.7737572,39.413351 85.4561225,35.8545467 C81.3503536,32.4717097 79.211428,27.2766521 78.5589412,22.1135714 C77.6602471,14.9982068 79.6424783,7.91837227 81.6202058,1.14914536 C81.9572395,-0.00427300584 83.7687019,0.487351004 83.4299793,1.64656639 L83.4299793,1.64656639" id="path437" transform="translate(99.7459, 20.9422) scale(-1, 1) rotate(-180) translate(-99.7459, -20.9422)"></path>
            <path d="M93.4235172,18.155465 C88.3075855,23.9511679 85.9290206,32.8781922 88.3905303,40.3077175 C88.7701624,41.4523468 86.9588876,41.9439708 86.5805691,40.8030815 C83.9049416,32.7306489 86.554297,23.1109751 92.0960247,16.8333722 C92.895823,15.9282904 94.2188118,17.2563671 93.4235172,18.155465 L93.4235172,18.155465" id="path438" transform="translate(89.5995, 28.991) scale(-1, 1) rotate(-180) translate(-89.5995, -28.991)"></path>
            <path d="M108.625315,19.0829753 C114.384726,23.9713524 116.018664,32.7149293 112.571199,39.385607 C112.018546,40.4573062 110.398495,39.5105233 110.951148,38.4433121 C114.034368,32.4761298 112.40043,24.7339399 107.298573,20.406564 C106.376984,19.6249024 107.710482,18.3065497 108.625315,19.0829753 L108.625315,19.0829753" id="path439" transform="translate(110.6762, 29.3517) scale(-1, 1) rotate(-180) translate(-110.6762, -29.3517)"></path>
            <path d="M108.810721,16.3167538 C113.448688,22.1889398 118.241285,27.9706177 122.708483,33.9714601 C124.751328,36.7186827 126.487164,39.6450517 127.534671,42.9160624 C128.029525,44.4588156 128.364494,46.0445789 128.562474,47.6509122 C128.654801,48.4026537 128.62928,49.1951613 128.773589,49.9373659 C128.993524,51.0674092 129.994867,50.6575043 130.838577,50.4237539 C132.220303,50.0424601 133.523025,49.4362048 134.712588,48.6399572 C135.378962,48.1928393 135.995418,47.6823282 136.565148,47.1198311 C136.697072,46.9906138 137.334733,46.4653297 137.320096,46.2667353 C137.291572,45.8781485 136.504159,45.612234 136.232993,45.4493566 C133.651195,43.9028635 131.797322,41.4967295 130.184026,39.0131774 C126.359744,33.1262183 122.610901,27.2882533 118.174666,21.8257851 C115.933655,19.0654724 113.066053,16.4736471 111.454071,13.2779975 C109.898574,10.1924912 109.95581,6.65107792 111.466456,3.56557158 C111.99659,2.48452236 113.61514,3.4303703 113.086508,4.50936252 C111.449755,7.85124639 112.167359,11.4005137 114.315105,14.3122967 C116.466603,17.2253887 119.029261,19.852931 121.260702,22.7140369 C123.538307,25.6331129 125.711011,28.6324121 127.761362,31.7141784 C129.670031,34.5827643 131.309223,37.6873447 133.443833,40.3988503 C134.415714,41.6347358 135.533592,42.7939512 136.868591,43.6427459 C137.930735,44.3200613 139.418112,44.9351056 139.191046,46.4572887 C138.992129,47.7984555 137.47041,48.9015707 136.465314,49.6721993 C135.235404,50.6129983 133.871881,51.3514628 132.41528,51.8825439 C131.225528,52.3178808 129.456101,52.9746261 128.233321,52.3427518 C127.102307,51.7591236 126.927034,50.4501209 126.839023,49.3148416 C126.550217,45.615787 125.549625,42.0723167 123.701006,38.8370231 C121.555325,35.0839253 118.648127,31.7742055 115.976253,28.3913686 C113.145245,24.8069452 110.314236,21.2240179 107.483979,17.6388465 C106.744231,16.7038446 108.063842,15.3722148 108.810721,16.3167538 L108.810721,16.3167538" id="path440" transform="translate(123.2401, 27.8462) scale(-1, 1) rotate(-180) translate(-123.2401, -27.8462)"></path>
            <path d="M107.056494,45.3405024 C107.258226,44.2893732 107.057245,43.1673709 106.878407,42.1255918 C106.702571,41.1030737 106.311117,39.8589601 105.075952,39.767704 C104.444107,39.7209539 103.757842,39.9305813 103.134067,40.0386675 C102.620259,40.1286147 101.745773,40.1286147 101.394665,40.5340315 C101.018599,40.9701164 101.083716,41.7779581 101.033236,42.3331622 C100.969432,43.0271207 100.929086,43.7225751 100.912197,44.4185905 C100.879919,45.6728021 100.922518,46.9277617 101.038303,48.1769242 C101.143954,49.3157566 101.560179,50.5727732 101.43351,51.7168415 C101.215639,53.6728655 99.0928524,54.0375163 97.475053,53.904559 C96.9817002,53.8636059 96.5206245,53.5086792 96.5367631,52.9695571 C96.6107003,50.5406091 96.5733564,48.1118481 96.4040889,45.6860791 C96.3175786,44.4404696 96.2068604,43.195047 96.0441609,41.9576655 C95.9538974,41.269504 95.9591518,41.231543 95.3346261,40.9547824 C94.9232798,40.773579 94.5224424,40.5888226 94.1330521,40.3601212 C90.952437,38.5032074 88.9227283,35.1489815 88.6074629,31.515564 C88.5033127,30.3168915 90.3798925,30.3219405 90.4840427,31.515564 C90.6482434,33.4061379 91.4165152,35.2293916 92.6436107,36.6821976 C93.2315431,37.377652 93.9131169,38.0022333 94.6791368,38.4996544 C95.4181339,38.9802453 96.3461026,39.2044588 97.0396865,39.7282469 C97.7653599,40.278402 97.8165905,41.1139197 97.9207407,41.9576655 C98.0650497,43.1279139 98.1802717,44.3024633 98.2660314,45.4785087 C98.4476843,47.9715978 98.489532,50.4712319 98.4133429,52.9695571 C98.1003294,52.6576404 97.7880665,52.3449758 97.475053,52.0345552 C97.9926137,52.0775652 98.6509179,52.1660164 99.1405175,51.945356 C99.8316619,51.6326913 99.518836,50.9110569 99.4242564,50.2915246 C99.2013187,48.8314256 99.0628271,47.3595456 99.0328019,45.8824295 C98.9997741,44.2798362 99.0832819,42.6735029 99.2943971,41.0862437 C99.4328887,40.0446515 99.7423367,39.0978686 100.775957,38.6471977 C101.888581,38.1613707 103.474291,37.9876473 104.688063,37.9122861 C105.830149,37.841413 106.865271,38.2621639 107.616653,39.1262926 C108.359216,39.9788274 108.594539,41.0131265 108.766809,42.0956717 C108.9646,43.3448343 109.106094,44.5844599 108.866455,45.8379234 C108.639952,47.0177089 106.830741,46.5180438 107.056494,45.3405024 L107.056494,45.3405024" id="path441" transform="translate(98.7978, 42.2737) scale(-1, 1) rotate(-180) translate(-98.7978, -42.2737)"></path>
            <path d="M111.374879,58.6362654 C111.420293,57.968674 111.465143,57.3031396 111.510556,56.6355483 C111.740062,56.9364319 111.96938,57.2360065 112.199636,57.5368901 C110.404312,57.2397465 108.51835,56.9218458 106.699569,57.2111354 C104.911751,57.49388 103.617099,58.5319191 102.125405,59.450091 C99.4719215,61.0841004 95.7135075,61.9233581 92.6875227,60.8613829 C89.7883946,59.8459708 89.8711517,56.003674 90.780167,53.613622 C91.9134335,50.6326489 94.3683752,48.8466082 97.387792,48.0312866 C98.9982728,47.5959497 100.670305,47.3754762 102.246445,46.8122311 C104.002736,46.1861538 105.528958,45.0787375 107.09609,44.0969855 C110.117759,42.2043546 113.475898,40.8639358 116.993735,40.2372976 C118.671585,39.9384709 120.395035,39.7565196 122.100659,39.7939196 C123.454611,39.8238397 124.817383,40.1626844 125.557694,41.3950169 C126.279051,42.5936894 126.146377,44.0801555 126.040163,45.4132812 C125.889098,47.3118961 125.688304,49.20808 125.394995,51.0906129 C124.245589,58.471892 121.196898,65.9519074 114.611229,70.0806889 C113.586429,70.7219132 112.643823,69.1047339 113.664119,68.4648186 C118.695042,65.3121791 121.512914,59.8444748 122.871933,54.2309103 C123.64302,51.0459198 124.082139,47.7208659 124.234705,44.4468632 C124.296257,43.1189735 124.167148,41.890381 122.633607,41.6865505 C121.062722,41.4754271 119.239625,41.7405936 117.694449,42.0042642 C114.678035,42.5185152 111.762018,43.5455214 109.109097,45.0678915 C106.514913,46.5579105 104.222671,48.3024371 101.26931,49.0504387 C98.5664718,49.7333641 95.5449907,49.9934816 93.6573391,52.2950823 C92.2279483,54.0401699 90.764779,58.6684294 93.9953111,59.2666437 C95.6262466,59.5692103 97.359268,59.4010969 98.9294023,58.8926429 C100.611756,58.3464148 101.891583,57.2432995 103.411238,56.4017978 C106.309615,54.7954645 109.565856,55.2162153 112.698056,55.7342064 C113.077125,55.7955425 113.412845,56.2593035 113.387136,56.6355483 C113.341723,57.3031396 113.296872,57.968674 113.251459,58.6362654 C113.170954,59.8313848 111.293623,59.8409218 111.374879,58.6362654 L111.374879,58.6362654" id="path442" transform="translate(108.172, 55.0087) scale(-1, 1) rotate(-180) translate(-108.172, -55.0087)"></path>
            <path d="M98.0718054,75.2434483 C98.7879082,67.4492723 104.108387,60.5397951 111.369813,57.6134261 C115.332586,56.0166298 120.076017,55.608408 124.062435,57.3366655 C128.029525,59.0553861 130.451439,62.8253138 130.114405,67.1409087 C129.747721,71.8349923 127.455667,76.4501618 124.93467,80.3565998 C124.283684,81.3662149 122.658566,80.428969 123.313868,79.4122479 C126.861166,73.9161196 131.875012,63.870646 124.205243,59.488666 C117.627831,55.7303322 108.997628,59.5995572 104.489521,64.8034039 C101.961205,67.7224799 100.301557,71.3951674 99.9483851,75.2434483 C99.8391682,76.4310878 97.9618378,76.4441778 98.0718054,75.2434483 L98.0718054,75.2434483" id="path443" transform="translate(114.1064, 68.5026) scale(-1, 1) rotate(-180) translate(-114.1064, -68.5026)"></path>
            <path d="M80.952331,91.7365094 C81.0696173,89.0425818 81.1869035,86.3479063 81.3049404,83.6532308 C81.4164092,81.0950655 81.4749585,78.4938901 82.1582212,76.006598 C83.2849197,71.9036226 85.8592118,68.3614613 89.303111,65.8801532 C90.2832486,65.1738528 91.2207879,66.7947721 90.2502208,67.4945275 C87.0073033,69.8320324 84.6812827,73.3134185 83.7914086,77.2052705 C83.2423213,79.6028024 83.2488893,82.1046806 83.1419243,84.5502716 C83.0377741,86.9461205 82.933061,89.3414084 82.8289108,91.7365094 C82.7769295,92.9353688 80.8995991,92.9411658 80.952331,91.7365094 L80.952331,91.7365094" id="path444" transform="translate(85.8051, 79.1718) scale(-1, 1) rotate(-180) translate(-85.8051, -79.1718)"></path>
            <path d="M83.4564391,149.121195 C78.1939464,141.162832 73.9290435,132.186814 71.5232683,122.943385 C70.8826039,120.480216 70.9976383,118.483239 72.5034059,116.369947 C74.0420136,114.21215 75.7162981,112.136072 77.3215245,110.027268 C79.0010634,107.818233 80.6811652,105.611628 82.3605165,103.403341 C83.7715168,101.548671 85.5837299,99.4091994 85.6503485,96.9627856 C85.710399,94.7582194 83.9995213,93.2118197 82.5658143,91.7684198 C81.1972247,90.3922092 79.8637271,88.9349152 79.4356792,86.9867452 C79.3375341,86.5382435 79.5148709,86.1934709 79.8674802,85.929763 C83.4249125,83.2745071 87.4492379,86.175201 90.470156,88.1460167 C93.6061085,90.1920627 98.2527076,90.5938143 100.574975,93.7465286 C102.257329,96.0299716 102.582165,99.9832906 99.6235492,101.395331 C98.7922243,101.79121 97.8533715,101.856847 97.5570595,102.857674 C97.2727577,103.818295 97.453097,104.931508 97.4009281,105.922049 C97.3005311,107.854137 96.9163952,109.778184 96.2640961,111.601437 C94.7767189,115.754903 92.0365371,119.321 88.389029,121.817081 C87.3914392,122.501503 86.4516481,120.880584 87.4419192,120.203455 C90.3556846,118.208535 92.6398575,115.393992 94.0384724,112.160943 C94.7166684,110.595562 95.1865639,108.918356 95.4063114,107.225816 C95.6138612,105.632759 95.3177369,103.916096 95.747286,102.360253 C95.9114867,101.769331 96.2046085,101.209826 96.6540493,100.787579 C97.287395,100.188617 98.0879439,100.093621 98.8333214,99.7123271 C100.039962,99.0950388 100.155747,97.6567253 99.8397312,96.4748268 C98.9329678,93.0920273 94.890252,92.3725059 92.0937728,91.158462 C88.8851967,89.7676466 84.5039459,84.790968 80.8145901,87.5440999 C80.9581484,87.1920155 81.1018944,86.8406605 81.2456404,86.4893055 C81.9983366,89.9130207 85.9202007,91.4893779 87.1450443,94.7319271 C88.842786,99.2257521 84.6409362,103.480011 82.1610361,106.739428 C80.4816848,108.948276 78.8015829,111.15432 77.1222317,113.363355 C76.3751653,114.342863 75.6290372,115.324615 74.8827214,116.306367 C74.0720389,117.372082 73.1087905,118.477255 72.9731138,119.859374 C72.8515114,121.099 73.3009523,122.36705 73.6344205,123.548892 C73.9532514,124.680431 74.3028582,125.802434 74.6776112,126.917143 C75.4764712,129.295601 76.3839852,131.640399 77.3875801,133.94069 C79.5448962,138.886664 82.097983,143.672003 85.0770534,148.176843 C85.7434268,149.184775 84.1190594,150.123517 83.4564391,149.121195 L83.4564391,149.121195" id="path445" transform="translate(86.5011, 117.2065) scale(-1, 1) rotate(-180) translate(-86.5011, -117.2065)"></path>
            <path d="M92.0453571,106.471121 C94.5091186,108.621626 96.3748143,111.363051 97.5396073,114.407792 C97.7205096,114.878846 97.3393763,115.431806 96.884118,115.55747 C96.3564238,115.701273 95.9114867,115.377763 95.7303968,114.904465 C94.680638,112.161543 92.9309151,109.724741 90.7186152,107.793214 C90.3374818,107.460166 90.3770776,106.811462 90.7186152,106.471121 C91.0976843,106.094876 91.6634731,106.138074 92.0453571,106.471121 L92.0453571,106.471121" id="path446" transform="translate(94.0165, 110.8984) scale(-1, 1) rotate(-180) translate(-94.0165, -110.8984)"></path>
            <path d="M88.8258968,100.014246 C88.2152577,97.9308744 89.1454783,95.834413 90.492112,94.2559428 C91.822607,92.6986036 93.766556,91.425318 95.8131539,91.0849773 C96.3125118,91.0025101 96.8233168,91.2156906 96.9678135,91.7372346 C97.0909171,92.1858485 96.8144969,92.8051938 96.3117612,92.889157 C94.6044489,93.1719016 93.1251411,94.1214895 91.9625999,95.4159062 C91.4684964,95.9653133 90.9561902,96.765862 90.736255,97.4050293 C90.6666339,97.6073637 90.6086476,97.8126901 90.5647356,98.0223175 C90.5581676,98.0544816 90.5125667,98.3217052 90.5352733,98.1552748 C90.5221372,98.250084 90.5155692,98.3458282 90.5105025,98.4415724 C90.5001813,98.6321258 90.5037468,98.8228662 90.520636,99.0134196 C90.5397771,99.223234 90.4951145,98.9535795 90.5412784,99.1428238 C90.5720543,99.2677401 90.599077,99.3934044 90.6351074,99.5168246 C90.974393,100.673796 89.1638688,101.167664 88.8258968,100.014246 L88.8258968,100.014246" id="path447" transform="translate(92.8157, 95.8692) scale(-1, 1) rotate(-180) translate(-92.8157, -95.8692)"></path>
            <path d="M95.1242615,118.164421 C95.5618799,109.63552 95.2796423,97.0019613 105.383711,93.7849937 C106.53762,93.419034 107.030973,95.2232137 105.883069,95.5878644 C96.8225662,98.4715974 97.387792,110.631858 97.0008413,118.164421 C96.9391018,119.363093 95.062522,119.370386 95.1242615,118.164421 L95.1242615,118.164421" id="path448" transform="translate(100.8292, 106.4012) scale(-1, 1) rotate(-180) translate(-100.8292, -106.4012)"></path>
            <path d="M119.64065,149.110805 C120.555483,141.806944 119.892112,134.386769 117.594803,127.383043 C116.512017,124.084917 115.208732,120.873747 115.383817,117.334016 C115.562092,113.718925 116.649195,110.246889 116.469606,106.598137 C116.378592,104.758241 116.05019,102.93854 115.509923,101.17737 C114.993863,99.4921228 114.205888,97.9158966 113.629778,96.2532762 C113.070369,94.6433898 112.826414,93.0165987 113.105649,91.3262835 C113.386385,89.6206343 114.002091,88.0084853 113.346039,86.305024 C112.093234,83.0529751 108.423019,81.861577 105.236399,81.5737834 C104.560643,81.5138685 103.85899,81.4393675 103.185485,81.5511376 C102.129158,81.7271798 101.994983,82.2173265 102.283789,83.1917668 C102.794781,84.9193325 103.260173,86.633752 103.561364,88.4102556 C104.922635,96.4533666 103.900837,104.61799 102.846012,112.631144 C102.691382,113.807189 100.81255,113.821775 100.969432,112.631144 C102.007368,104.747208 103.103291,96.6083899 101.715748,88.6965906 C101.383593,86.8002945 100.750998,85.0150206 100.314131,83.1523284 C100.003369,81.8228679 100.469511,80.6387815 101.729635,80.0463643 C103.101039,79.4006332 104.768005,79.6256134 106.214285,79.8126138 C107.868115,80.027365 109.48948,80.4371577 110.976106,81.205617 C113.773336,82.6526821 115.844329,85.5548346 115.499039,88.7805912 C115.29299,90.7010103 114.584206,92.412494 115.031958,94.3686863 C115.469013,96.2796432 116.413871,98.0239828 117.054536,99.8683676 C118.309405,103.479158 118.638557,107.346139 118.127752,111.125604 C117.857149,113.124264 117.398325,115.100858 117.27372,117.119153 C117.150617,119.11052 117.485586,121.000907 118.063948,122.900831 C118.704612,125.008325 119.511729,127.060093 120.09816,129.184418 C120.697728,131.361102 121.144166,133.572943 121.44836,135.807597 C122.049428,140.22623 122.071384,144.686376 121.51723,149.110805 C121.369919,150.289094 119.491087,150.30368 119.64065,149.110805 L119.64065,149.110805" id="path449" transform="translate(111.0689, 114.8086) scale(-1, 1) rotate(-180) translate(-111.0689, -114.8086)"></path>
            <path d="M85.7499949,78.0339153 C85.862965,75.8630279 85.9779993,73.6074292 85.3226977,71.5021789 C84.9912937,70.4377727 84.3521306,69.6525581 83.797226,68.7117592 C83.1961575,67.6912981 83.1147139,66.4079144 84.1990017,65.6752469 C85.0793053,65.0805857 86.3944124,64.9403354 87.4287831,64.9418196 C88.6581306,64.9438884 89.8784704,65.230373 90.9824623,65.7650071 C91.9376414,66.226711 92.8708645,67.0790588 92.9851482,68.1864751 C93.0981183,69.2785573 92.3679411,70.0170218 91.4730002,70.4998568 C91.1350282,70.6810602 90.6974098,70.8323435 90.5236385,71.2026043 C90.2883154,71.7060093 90.4159228,72.3977237 90.454768,72.9288048 C90.5675505,74.460525 90.6827725,75.9937411 90.7970562,77.5256483 C90.886569,78.7258167 89.0099893,78.7198327 88.9204764,77.5256483 C88.8347167,76.3750349 88.7497077,75.2268525 88.663948,74.0792312 C88.5890724,73.0784051 88.4183037,72.031016 88.6251028,71.0361739 C88.8200794,70.097432 89.4438545,69.4678017 90.2626063,69.0221798 C90.4971787,68.8950195 90.8769985,68.7753393 91.0432635,68.5569228 C91.2273559,68.3158793 91.008922,68.0929749 90.8263308,67.9039175 C90.2113756,67.2683032 89.1454783,66.9878026 88.2959507,66.8666264 C87.3758636,66.7372221 86.3159713,66.7862162 85.4444877,67.1353459 C85.1035131,67.2720432 85.1943396,67.3655434 85.3688615,67.685501 C85.5946141,68.0989589 85.9055633,68.4596826 86.157588,68.8542534 C86.6774006,69.6731281 87.0468992,70.602894 87.2814716,71.539392 C87.8121684,73.6584803 87.7387941,75.8725649 87.6265747,78.0339153 C87.5642722,79.2327748 85.6869418,79.2400678 85.7499949,78.0339153 L85.7499949,78.0339153" id="path450" transform="translate(88.1785, 71.9388) scale(-1, 1) rotate(-180) translate(-88.1785, -71.9388)"></path>
            <path d="M90.4716573,55.1976569 C90.6371716,55.6593608 90.2845622,56.240745 89.8161679,56.3475222 C89.2892243,56.4672025 88.8390328,56.1889459 88.6616961,55.6950779 C88.2739947,54.6162727 87.8861056,53.5352235 87.4991549,52.4562312 C87.3334529,51.9945273 87.6853116,51.4131431 88.1544565,51.3065529 C88.6808372,51.1866856 89.130841,51.4649422 89.3081778,51.9588102 C89.6960668,53.0398594 90.0837682,54.1188517 90.4716573,55.1976569 Z" id="path451" transform="translate(88.9853, 53.827) scale(-1, 1) rotate(-180) translate(-88.9853, -53.827)"></path>
            <path d="M138.688123,46.2763267 C138.643085,45.2668986 138.729407,44.0586891 138.284846,43.1199472 C137.712301,41.9081847 136.269587,42.7627765 135.620853,43.4655239 C134.689882,44.4757 134.182642,45.8110697 133.192371,46.7774877 C132.086878,47.8562929 130.939725,47.5312863 129.80796,46.6897846 C125.479253,43.477118 122.037793,39.1834021 119.88029,34.250519 C119.403075,33.1586237 121.019561,32.2045478 121.501092,33.3074761 C122.643178,35.9181884 124.131306,38.3793005 125.97786,40.559725 C126.892693,41.6385302 127.883715,42.6539423 128.942856,43.5947412 C129.442777,44.0381191 129.956772,44.466163 130.486718,44.8738238 C130.716224,45.0477342 131.102424,45.462501 131.383161,45.5210322 C131.913857,45.6313624 132.170574,45.1359984 132.427102,44.7840636 C133.815396,42.8861967 135.457403,39.8137804 138.374171,40.7934754 C140.559073,41.5268909 140.480256,44.4194129 140.564703,46.2763267 C140.621,47.4807962 138.74442,47.4772432 138.688123,46.2763267 L138.688123,46.2763267" id="path452" transform="translate(130.1796, 40.1397) scale(-1, 1) rotate(-180) translate(-130.1796, -40.1397)"></path>
            <path d="M140.564703,48.4252978 C140.225042,51.7671817 140.028001,55.1215946 139.992346,58.4803085 C139.96232,61.5022347 139.894764,64.6417841 140.420206,67.6285543 C140.913746,70.421966 142.131647,72.862508 144.447346,74.5789845 C146.627932,76.1948549 149.283292,77.1167668 151.886108,77.7996922 C157.17994,79.190601 163.188748,79.3942444 167.870815,76.1539018 C172.132528,73.2050927 174.455733,68.1093323 175.333973,63.1478381 C175.9007,59.9426515 175.911959,56.6591117 175.759956,53.4165251 C175.684893,51.8533889 175.568545,50.2915616 175.444691,48.7321654 C175.339602,47.4158697 175.142561,46.0805 175.279552,44.7604643 C175.47284,42.8942004 176.503082,40.9226554 178.664902,41.0277496 C181.342781,41.1586499 182.127191,44.0197558 183.125532,45.9570797 C184.486052,48.5932242 187.666855,48.2551275 189.610992,46.4427197 C191.585153,44.60488 192.703595,41.7940772 193.655021,39.3353961 C195.805581,33.7683947 196.820811,27.8406695 197.361266,21.9237904 C197.663395,18.6118265 197.824781,15.2905127 197.956142,11.9697599 C198.064983,9.22104125 198.79122,4.98136854 195.370215,3.96969646 C192.574111,3.14352876 189.106192,3.88348928 186.462091,4.9119914 C183.615319,6.01922067 181.134481,7.85724745 179.186591,10.1932563 C178.41344,11.1209652 177.092328,9.79064442 177.857972,8.87097653 C181.481648,4.5254616 187.010052,1.87173915 192.692336,1.82211482 C195.39461,1.798622 198.243259,2.45892036 199.3617,5.20184199 C200.406955,7.76804827 199.881513,10.9339648 199.763288,13.6263963 C199.483678,20.0442495 199.029545,26.5017468 197.592085,32.7793497 C196.903381,35.7881858 195.972597,38.7384909 194.750944,41.5756607 C193.636255,44.161502 192.31702,46.9315387 189.92438,48.5823781 C188.002763,49.9082109 185.201029,50.2676256 183.196842,48.9058888 C182.194748,48.2252074 181.614885,47.1987623 181.143864,46.1162171 C180.685978,45.0665839 179.858406,42.5370297 178.253931,42.9198195 C177.096081,43.1965801 177.088575,45.0256308 177.111094,45.9365097 C177.154255,47.6114721 177.373815,49.2909226 177.490163,50.960836 C177.726612,54.3663 177.854219,57.7957001 177.488286,61.195367 C176.897164,66.6688683 174.95115,72.2283897 170.871466,76.1050947 C166.549703,80.2116231 160.610328,81.1729921 154.86987,80.3219533 C148.988669,79.4527756 141.891444,77.1057337 139.46315,71.1458445 C138.1411,67.8974608 138.153485,64.2210333 138.116892,60.7710632 C138.072229,56.6475177 138.272273,52.5282732 138.688123,48.4252978 C138.8101,47.2397154 140.68668,47.2266253 140.564703,48.4252978 L140.564703,48.4252978" id="path453" transform="translate(169.0554, 41.2142) scale(-1, 1) rotate(-180) translate(-169.0554, -41.2142)"></path>
            <path d="M166.050532,70.7685268 C173.115855,73.295276 177.724735,65.5960961 180.049818,60.2628452 C181.515426,56.9005783 182.72582,53.3928251 183.322573,49.7689446 C183.60406,48.0610701 184.02629,45.8542786 183.493341,44.1662261 C183.018567,42.660686 181.421597,41.8418113 180.002903,41.4175075 C177.090451,40.5475817 173.851475,40.8316353 171.089149,42.0720088 C169.651689,42.7169731 168.364355,43.611022 167.251544,44.7214303 C166.23819,45.7331023 165.279258,46.6957803 163.798637,46.9209288 C162.265471,47.1509392 160.762331,46.7053173 159.232918,47.1129782 C157.769186,47.500069 156.453703,48.3400747 155.459116,49.475354 C154.522703,50.5468662 153.826492,51.9712481 153.839628,53.4154521 C153.858394,55.2138348 154.993724,55.9713734 156.695782,56.0312135 C160.006069,56.1510807 163.027362,54.4922003 165.88164,53.0283613 C168.765943,51.5469443 171.697161,50.1238714 174.984929,49.9129349 C176.19157,49.8360778 176.187816,51.7060816 174.984929,51.7829388 C168.135413,52.2218287 162.847211,58.8158362 155.729344,57.8187502 C152.113174,57.3125401 151.306245,53.6376086 152.550418,50.6528954 C153.777701,47.7119404 156.633855,45.5350689 159.795892,45.102724 C160.657242,44.9851008 161.481061,45.0449409 162.344287,45.089634 C163.597843,45.1530271 164.419785,44.8858036 165.318666,44.0143818 C166.570345,42.8009363 167.795752,41.673137 169.34956,40.8447253 C172.43278,39.2034229 176.062086,38.6497148 179.486844,39.3605032 C181.051911,39.6855099 182.611349,40.2990582 183.814237,41.3722534 C185.176634,42.5898129 185.591358,44.2443923 185.555703,46.0158469 C185.47501,50.2701057 184.347185,54.4753703 182.821526,58.4250054 C181.297743,62.3651035 179.531882,66.5559691 176.469303,69.5719113 C173.650681,72.34494 169.424623,73.9570703 165.553239,72.5713975 C164.423538,72.1672896 164.911449,70.3608659 166.050532,70.7685268 L166.050532,70.7685268" id="path454" transform="translate(168.7809, 56.067) scale(-1, 1) rotate(-180) translate(-168.7809, -56.067)"></path>
            <path d="M172.712391,54.8460671 C172.496584,55.3027221 172.399002,55.5306756 172.22448,56.0090225 C172.0706,56.4335134 171.93361,56.8638013 171.813509,57.2998862 C171.695284,57.7352231 171.593949,58.176357 171.513256,58.6197349 C171.417551,59.133986 171.391279,59.3473534 171.344364,59.8616045 C171.299326,60.3472445 170.944653,60.8207294 170.406074,60.7966064 C169.935053,60.7760363 169.418993,60.3831485 169.467784,59.8616045 C169.657319,57.7819732 170.19965,55.7906061 171.091026,53.9017152 C171.301203,53.4583373 171.974895,53.309298 172.374606,53.5671715 C172.834368,53.8607621 172.935704,54.3712732 172.712391,54.8460671 L172.712391,54.8460671" id="path455" transform="translate(171.1454, 57.1191) scale(-1, 1) rotate(-180) translate(-171.1454, -57.1191)"></path>
            <path d="M172.457176,146.848432 C171.903585,141.497042 172.836245,136.118537 175.123796,131.25073 C176.26288,128.827766 177.707846,126.544304 178.694927,124.049719 C179.70828,121.489497 180.199944,118.761161 180.434516,116.027028 C180.644693,113.594527 180.35007,110.869932 181.194531,108.541964 C182.022103,106.254762 184.093847,104.601679 185.3155,102.527845 C186.659132,100.248123 187.541124,97.6695747 187.822611,95.0362353 C188.090962,92.5474472 187.582409,90.0098519 188.079702,87.5416339 C188.515069,85.3778524 189.911244,83.711679 191.485695,82.2383778 C193.026367,80.7986244 194.788475,79.4742877 195.497822,77.4077839 C196.26159,75.1842371 195.492193,72.9986701 192.82182,73.0636714 C190.477971,73.1199211 188.092839,74.24557 186.163715,75.4983229 C177.319394,81.2361679 174.740973,92.3378197 169.015529,100.564341 C167.289075,103.045836 165.32242,105.360713 163.753599,107.950856 C162.175395,110.559511 161.079473,113.480644 160.668502,116.506123 C160.567166,117.261418 160.462078,118.13658 160.752948,118.865694 C161.013792,119.524497 161.576766,119.983957 162.042158,120.494655 C162.770271,121.291463 163.284454,122.157088 163.702931,123.148377 C164.380376,124.747417 164.80636,127.425263 166.799288,127.854803 C167.97778,128.11118 167.47861,129.914051 166.300118,129.65973 C164.427291,129.253566 163.498384,127.694169 162.826568,126.043143 C162.462512,125.149094 162.179148,124.219889 161.753165,123.352207 C161.210833,122.247035 160.293186,121.52671 159.580085,120.552999 C158.001882,118.396697 158.848219,115.258644 159.531294,112.911602 C160.336347,110.149606 161.649953,107.604718 163.282577,105.24309 C164.963993,102.809841 166.866845,100.534421 168.450678,98.0325424 C170.004486,95.5789104 171.318092,92.9850281 172.633574,90.4006828 C175.065622,85.6153429 177.576485,80.7927713 181.427227,76.9651165 C183.15931,75.2426747 185.154115,73.7225486 187.374108,72.6787124 C189.43647,71.7101065 192.018643,70.8014156 194.321207,71.3288128 C199.243476,72.4581081 197.854807,78.4625782 195.319547,81.1894178 C193.728208,82.9023413 191.603919,84.2392071 190.479848,86.3392214 C189.141847,88.8373595 189.969418,91.9434359 189.736722,94.6454045 C189.509656,97.2991269 188.781543,99.8763662 187.593668,102.262117 C187.008175,103.436667 186.300705,104.543335 185.499405,105.583431 C184.638055,106.69814 183.528996,107.705511 183.003554,109.037141 C182.406802,110.552218 182.536286,112.303851 182.453716,113.899151 C182.3749,115.474068 182.239786,117.044497 182.014597,118.606325 C181.545452,121.856204 180.515209,124.854008 179.019575,127.772897 C177.525818,130.688233 175.962627,133.500531 175.103153,136.685522 C174.208025,140.002535 173.980959,143.435675 174.333756,146.848432 C174.45761,148.043551 172.579154,148.036258 172.457176,146.848432 L172.457176,146.848432" id="path456" transform="translate(178.1509, 109.4578) scale(-1, 1) rotate(-180) translate(-178.1509, -109.4578)"></path>
            <path d="M149.664238,139.342561 C154.413861,134.776386 157.391993,128.515613 157.97561,121.962558 C158.283369,118.512401 157.769186,115.299922 157.024184,111.945509 C156.628225,110.163208 156.470593,108.427657 156.844032,106.627031 C157.223101,104.792744 157.878028,103.04616 158.069439,101.17036 C158.484163,97.0877671 157.53086,92.9905887 155.410325,89.4828542 C154.785424,88.4507056 156.408666,87.508392 157.03169,88.5405406 C158.915776,91.657463 159.961031,95.2222513 160.036094,98.8665148 C160.073626,100.682476 159.852189,102.513022 159.403687,104.272696 C158.850096,106.442274 158.253343,108.347247 158.658685,110.611635 C158.987086,112.444426 159.516282,114.220929 159.747101,116.074103 C159.961031,117.790767 160.013575,119.522764 159.90661,121.248778 C159.694557,124.635355 158.900764,127.967702 157.574022,131.090421 C156.042733,134.687934 153.815232,137.949595 150.99098,140.664654 C150.122123,141.500358 148.793505,140.180323 149.664238,139.342561 L149.664238,139.342561" id="path457" transform="translate(154.7102, 114.5125) scale(-1, 1) rotate(-180) translate(-154.7102, -114.5125)"></path>
            <path d="M157.157421,83.6745682 C158.101341,81.3874787 159.508775,77.9148254 157.560886,75.7570093 C155.795024,73.800817 152.407797,74.3837346 150.221582,75.1733624 C149.116277,75.5736554 147.765139,76.2500732 147.335402,77.4305131 C146.832479,78.8030773 147.81956,80.3363308 148.02786,81.6862305 C148.489499,84.6936642 145.907325,86.4438008 144.948393,89.009259 C143.886249,91.8477379 144.212774,94.9895313 143.890002,97.9516174 C143.550341,101.067044 142.750918,104.094954 141.771343,107.06639 C139.752143,113.195889 137.113297,119.138948 136.372986,125.609348 C135.546165,132.836726 136.631767,140.163214 139.448138,146.867552 C139.915406,147.976464 138.099252,148.458551 137.638927,147.364973 C134.900997,140.847823 133.765666,133.679724 134.392256,126.639346 C135.038926,119.378495 137.950439,112.838531 140.155608,105.974308 C141.245901,102.578381 142.015299,99.1480459 142.184191,95.5804525 C142.33807,92.3657289 142.416887,89.0763922 144.263441,86.2998105 C145.171706,84.9347077 146.470299,83.6015258 146.15691,81.8345218 C145.896066,80.3662696 145.126668,79.0536204 145.387513,77.5145137 C145.830385,74.8928618 148.61523,73.5816712 150.945942,73.0038588 C153.796467,72.2989608 157.363845,72.3289183 159.281709,74.9111318 C161.314045,77.6489296 160.13743,81.3385407 158.96832,84.1698387 C158.514188,85.2677554 156.697659,84.7871644 157.157421,83.6745682 L157.157421,83.6745682" id="path458" transform="translate(147.3052, 110.2965) scale(-1, 1) rotate(-180) translate(-147.3052, -110.2965)"></path>
            <path d="M147.661927,75.0764413 C144.124574,75.5330963 140.801152,73.5301351 138.613998,70.8857627 C136.032199,67.7645393 134.897432,63.8287422 133.097041,60.2676939 C132.173388,58.4407001 131.045939,56.7242236 130.257963,54.8300967 C129.500013,53.004599 129.074968,51.056429 128.974383,49.0856319 C128.818251,46.0220046 129.288898,41.1958987 132.872039,40.1935766 C136.204469,39.2623147 139.986716,41.9248262 142.28365,44.0607446 C143.595379,45.2798001 144.736339,46.693336 145.697148,48.2011201 C146.143774,48.9001275 146.547239,49.627559 146.911295,50.3720076 C147.312883,51.1981753 147.569975,52.2683785 148.198629,52.9563529 C148.785999,53.5992602 149.746807,53.7475515 150.49181,54.1469843 C151.234935,54.5458561 151.863589,55.1178903 152.377772,55.7781887 C153.428657,57.1303884 153.918444,58.7943179 154.001014,60.4846143 C154.08546,62.248028 153.897802,64.7725331 153.012056,66.3487594 C152.282067,67.643176 150.692604,67.8675765 149.388381,67.3890425 C147.752003,66.7908283 146.697365,65.2385381 145.86604,63.7965781 C144.897725,62.1231117 144.047635,60.5934486 142.371849,59.5277334 C139.615153,57.7716128 136.222672,56.907484 134.868908,53.6349773 C134.409146,52.524008 136.224173,52.038181 136.678681,53.1375562 C137.619974,55.4137249 140.433342,56.2888867 142.422516,57.386018 C143.426487,57.9397261 144.417321,58.5796414 145.209237,59.4151591 C146.164417,60.4232782 146.796824,61.6629038 147.487405,62.8542832 C148.1048,63.9222424 148.892964,65.3167043 150.172791,65.683412 C151.032265,65.9302525 151.368172,65.5635448 151.585856,64.7745902 C151.872972,63.738795 152.06626,62.6446558 152.120681,61.5716476 C152.201374,60.0060804 151.959295,58.390397 151.028511,57.0871914 C150.054566,55.7219016 148.545796,55.6190513 147.307254,54.6634794 C146.22822,53.8315147 145.864164,52.4903479 145.28993,51.3165465 C144.601226,49.9007666 143.766148,48.5414608 142.769684,47.3179173 C140.970044,45.1118738 138.556762,43.0526255 135.794624,42.1776507 C134.154869,41.6596597 132.563342,41.8576931 131.710811,43.4924504 C130.936722,44.9753635 130.807051,46.8373263 130.829757,48.4793767 C130.881739,52.1595442 132.42485,55.0995643 134.148301,58.2464067 C135.961828,61.5583705 137.03936,65.2516281 139.114106,68.4233417 C140.985056,71.2861305 144.07203,73.6681414 147.661927,73.2064375 C148.855432,73.0530972 148.844172,74.923101 147.661927,75.0764413 L147.661927,75.0764413" id="path459" transform="translate(141.4841, 57.572) scale(-1, 1) rotate(-180) translate(-141.4841, -57.572)"></path>
            <path d="M148.009094,18.8932728 C146.961963,20.1125153 146.38773,21.6457314 145.939227,23.1658576 C145.440057,24.854658 144.969035,26.6334057 144.800143,28.3872823 C144.407938,32.4676307 145.417538,36.508522 146.560375,40.394764 C146.900036,41.5517353 145.089136,42.0456034 144.749475,40.892185 C143.492167,36.6130552 142.42064,32.12355 143.008009,27.6413378 C143.454635,24.2323208 144.392925,20.2374315 146.680476,17.5711801 C147.466763,16.6550652 148.789752,17.9823939 148.009094,18.8932728 L148.009094,18.8932728" id="path460" transform="translate(145.5449, 29.4055) scale(-1, 1) rotate(-180) translate(-145.5449, -29.4055)"></path>
            <path d="M157.528984,24.7149564 C161.36096,24.3504927 165.093477,26.446954 166.821807,29.863451 C168.540754,33.264427 168.4169,37.2366892 168.195463,40.9394838 C168.122277,42.1338552 166.245697,42.1418962 166.318883,40.9394838 C166.510295,37.7341102 166.722348,34.2243 165.39373,31.2111628 C164.023826,28.1035904 160.923717,26.2636936 157.528984,26.5849603 C156.327973,26.6990305 156.335479,24.8290267 157.528984,24.7149564 L157.528984,24.7149564" id="path461" transform="translate(162.4762, 33.2561) scale(-1, 1) rotate(-180) translate(-162.4762, -33.2561)"></path>
            <path d="M166.39207,39.5306408 C166.118089,39.8001084 165.842232,40.0710719 165.568251,40.3422225 C165.483805,40.4342267 165.38247,40.4978068 165.266122,40.5350199 C165.155404,40.59486 165.035303,40.621227 164.905819,40.615243 C164.776335,40.621227 164.656234,40.59486 164.543639,40.5350199 C164.427291,40.4978068 164.325956,40.4342267 164.24151,40.3422225 C164.192718,40.2786423 164.143927,40.2150622 164.095136,40.1537261 C164.01069,40.0074918 163.967529,39.8505985 163.967529,39.6802411 C163.978788,39.5977739 163.990048,39.5160548 164.001307,39.4319046 C164.044469,39.2742633 164.125162,39.13607 164.24151,39.0199428 C164.51549,38.7489792 164.789471,38.4780156 165.065328,38.2070521 C165.149774,38.1171049 165.251109,38.0514678 165.367457,38.0140677 C165.478176,37.9564716 165.598277,37.9278605 165.727761,37.9338445 C165.857245,37.9278605 165.977346,37.9564716 166.089941,38.0140677 C166.206289,38.0514678 166.305747,38.1171049 166.39207,38.2070521 C166.440861,38.2704452 166.489652,38.3340253 166.538443,38.3976055 C166.622889,38.5436528 166.666051,38.7007331 166.666051,38.8688464 C166.654791,38.9513136 166.643532,39.0352768 166.632272,39.117183 C166.589111,39.2763203 166.508418,39.4130176 166.39207,39.5306408 L166.39207,39.5306408" id="path462" transform="translate(165.3168, 39.2746) scale(-1, 1) rotate(-180) translate(-165.3168, -39.2746)"></path>
            <path d="M150.139013,86.2619674 C150.245978,81.8227653 150.34356,77.3699121 149.966367,72.93819 C149.774956,70.6846484 149.450308,68.4427008 148.930495,66.2381532 C148.68654,65.2003011 148.4013,64.173856 148.067268,63.1599399 C147.776399,62.2739321 147.294118,61.2974161 147.639408,60.3513811 C148.25305,58.6646377 150.482427,58.7802039 151.936776,58.7224208 C154.181165,58.6326606 156.478099,58.6326606 158.711229,58.8998842 C160.308198,59.0891286 161.473554,60.0540505 161.36096,61.746591 C161.242735,63.5281437 159.968537,65.2191881 159.277956,66.8197244 C157.298164,71.4085269 156.284811,76.3698341 156.205995,81.3567603 C156.187229,82.5591728 154.310649,82.5634738 154.329415,81.3567603 C154.385713,77.7255868 154.909278,74.1017064 155.932014,70.6137752 C156.425555,68.9307718 157.035443,67.2887214 157.741037,65.6844451 C158.078822,64.9198005 158.442878,64.169555 158.823824,63.4251065 C159.124076,62.8422263 159.818411,61.7129309 159.343636,61.0876017 C158.881998,60.4805984 157.298164,60.6502078 156.600077,60.6150517 C155.639268,60.5660576 154.676582,60.5456745 153.713897,60.5514716 C152.751212,60.5567076 151.788526,60.5813916 150.827717,60.6487118 C150.548107,60.6675988 149.938218,60.6128077 149.699893,60.7962551 C149.172574,61.2024199 149.733671,62.224938 149.878168,62.6647629 C151.015375,66.122026 151.595238,69.7423534 151.878602,73.3647379 C152.21451,77.6562097 152.118804,81.9645116 152.015592,86.2619674 C151.987444,87.4641929 150.110864,87.4679329 150.139013,86.2619674 L150.139013,86.2619674" id="path463" transform="translate(154.4441, 72.9168) scale(-1, 1) rotate(-180) translate(-154.4441, -72.9168)"></path>
            <path d="M151.052907,40.6516094 C151.099821,43.4900882 151.148612,46.33025 151.195527,49.1687289 C151.214293,50.2557621 151.019128,51.8955685 151.867343,52.7445502 C153.049588,53.9299456 153.49809,52.3391334 153.520609,51.3755204 C153.650093,45.5397994 153.591919,39.6917364 153.629451,33.8522754 C153.635081,32.6493019 155.51166,32.6455619 155.506043,33.8522754 C155.481635,37.541232 155.459116,41.2307496 155.436597,44.9204541 C155.425338,46.7640909 155.414078,48.6099717 155.402819,50.4537955 C155.395312,51.7364311 155.474129,53.2550613 154.515197,54.2594403 C153.6576,55.1622782 152.313968,55.2148253 151.26496,54.613058 C150.069579,53.9263926 149.566656,52.6809701 149.412776,51.3704714 C149.215735,49.6925169 149.298305,47.9539744 149.270156,46.2651739 C149.238254,44.392926 149.208229,42.5229222 149.176327,40.6516094 C149.155685,39.4469529 151.032265,39.4469529 151.052907,40.6516094 L151.052907,40.6516094" id="path464" transform="translate(152.3411, 43.9797) scale(-1, 1) rotate(-180) translate(-152.3411, -43.9797)"></path>
            <path d="M34.8177431,23.6707261 C38.1867668,26.6159821 37.4457055,31.8220728 34.6580462,34.8703661 C31.5586871,38.2590001 26.5,39.6572019 22.0549364,39.9756636 C12.8662635,40.635214 3.55448704,35.8652082 0.773958782,26.7416464 C-0.644360213,22.0872068 -0.164331106,16.8452121 2.6374025,12.7925397 C2.68581826,13.1710285 2.73479699,13.5485823 2.78396338,13.9263231 C-0.395901051,10.4069758 -0.0190838313,4.37022944 3.88363913,1.50183054 C7.70116537,-1.30317522 13.5089921,0.00059145875 15.9977122,3.92180252 C16.6456952,4.94076761 15.022829,5.87950954 14.3776609,4.86409745 C12.4886957,1.88892134 7.99879092,0.883046272 5.06963755,2.94584751 C2.03183021,5.0832619 1.6705886,9.9020748 4.11070528,12.6042304 C4.37398943,12.894081 4.49934496,13.387949 4.25745382,13.7370787 C-0.135619435,20.0915387 1.87945193,29.1427313 7.67620686,33.9295672 C13.8111215,38.9954076 23.6997586,39.5767918 30.5800507,35.6834438 C32.5461433,34.5730355 34.3354621,32.9214481 34.9526692,30.6892245 C35.5171444,28.6488633 35.1256899,26.4216887 33.4910012,24.9930058 C32.5812354,24.1960102 33.9132317,22.8797145 34.8177431,23.6707261 L34.8177431,23.6707261" id="path465" transform="translate(18.5295, 20.018) scale(-1, 1) rotate(-180) translate(-18.5295, -20.018)"></path>
            <path d="M14.656333,135.923377 C15.4596968,135.296739 15.8211261,134.531908 15.7470012,133.514999 C15.9765069,133.813826 16.2060126,134.11471 16.4360813,134.416528 C10.681737,132.334653 7.94680966,126.279768 7.51500866,120.54484 C7.21306697,116.531625 7.83759272,112.533743 8.17106095,108.544651 C8.33901484,106.54169 8.55294493,104.421106 8.12564772,102.439463 C7.74732923,100.681098 6.82236306,99.1370358 6.01149294,97.5525815 C2.63289871,90.955769 2.58748548,83.664063 5.203813,76.8086289 C6.52098435,73.3571628 8.21215804,70.033605 9.14819604,66.4454416 C10.1707444,62.5236696 10.2625091,58.4526712 10.4830072,54.4286099 C10.8701456,47.3824354 11.9315392,39.4165931 17.8223107,34.6853712 C18.7540326,33.9373696 20.0895944,35.253684 19.1490526,36.0090721 C14.159227,40.0148073 12.8837157,46.6176039 12.4674903,52.6579033 C12.2188435,56.2722467 12.165361,59.8983712 11.6442348,63.4885915 C11.1171035,67.118269 9.85923211,70.4586569 8.44016249,73.8203628 C7.08114341,77.0388264 5.68459274,80.3148861 5.28657017,83.8175903 C4.89286374,87.2806504 5.31453121,90.8037377 6.51085082,94.0799844 C7.65500151,97.2142978 9.76390186,99.8697033 10.1399684,103.264134 C10.553379,106.988808 9.77572431,110.839146 9.48110129,114.55129 C8.96785672,121.012341 9.70385131,129.997148 16.9345008,132.611414 C17.3524152,132.763445 17.5913038,133.073866 17.6235809,133.514999 C17.7292324,134.965748 17.1369838,136.346372 15.9830749,137.245657 C15.0425331,137.978325 13.70547,136.664086 14.656333,135.923377 L14.656333,135.923377" id="path466" transform="translate(11.4091, 85.9618) scale(-1, 1) rotate(-180) translate(-11.4091, -85.9618)"></path>
            <path d="M24.4152985,113.29815 C30.9502999,110.512218 30.7076581,102.231654 30.4920391,96.3089781 C30.3807579,93.2423588 30.5368894,89.5717282 29.054579,86.7799995 C27.917747,84.6382841 24.6314805,82.8791715 22.7329447,85.1904962 C21.9669248,86.1232541 20.646751,84.7916244 21.4054522,83.8682165 C23.3706065,81.4766686 27.1091287,81.9961557 29.220281,83.9056166 C31.9589615,86.3833717 32.0732452,90.6243534 32.2639057,94.0240204 C32.6576122,101.077488 33.2975259,111.528939 25.3624083,114.911776 C24.2642338,115.381521 23.3068028,113.771635 24.4152985,113.29815 L24.4152985,113.29815" id="path467" transform="translate(26.823, 98.632) scale(-1, 1) rotate(-180) translate(-26.823, -98.632)"></path>
            <path d="M27.4251448,148.073911 C25.8908531,140.572764 25.5089692,132.861056 26.3950901,125.254067 C26.6026399,123.477488 26.8702401,121.706838 27.2059603,119.948585 C27.3883638,118.990938 27.7982088,117.87333 27.4478514,116.915682 C27.1845672,116.199097 26.5380855,115.573076 25.9201278,115.146472 C23.6250707,113.566468 20.1943076,113.861592 18.1375761,115.709679 C15.5623457,118.024539 15.2750414,122.054546 16.816464,125.009283 C17.3728699,126.076495 15.7535692,127.023278 15.1958497,125.953074 C13.6666248,123.023134 13.5515905,119.41973 15.1650738,116.489078 C16.7198201,113.663633 19.8739754,112.031027 23.0883689,112.285235 C26.1650215,112.528466 29.7656151,114.741074 29.4291443,118.217373 C29.2093968,120.494982 28.5715474,122.752133 28.2988803,125.033406 C28.0254626,127.314624 27.8635138,129.611176 27.8128462,131.909224 C27.6963106,137.169357 28.1800928,142.422198 29.2349183,147.57649 C29.4754958,148.750291 27.6670359,149.253509 27.4251448,148.073911 L27.4251448,148.073911" id="path468" transform="translate(21.7262, 130.5029) scale(-1, 1) rotate(-180) translate(-21.7262, -130.5029)"></path>
            <path d="M43.3210891,145.767252 C43.3760729,142.891373 43.430306,140.01699 43.4852898,137.141112 C43.5372711,134.363969 43.4119156,131.516514 43.6875851,128.752461 C43.9317282,126.302569 45.3134538,124.643502 46.9781678,122.938619 C48.7170066,121.156319 50.5151453,119.436102 52.272187,117.672689 C54.0680738,115.869818 55.8288686,114.022628 57.4158921,112.032757 C58.9985995,110.04887 60.6353524,107.817955 61.3978068,105.371616 C62.2019212,102.790824 61.753231,99.9054081 61.6258112,97.2524336 C61.487132,94.3780507 61.349391,91.5057248 61.2116501,88.6313419 C60.982895,83.8738651 60.031469,78.4845141 63.6862958,74.7334734 C65.1421464,73.2374703 66.9776291,72.1658646 68.7354214,71.0686959 C69.1195572,70.829111 69.5044437,70.5880488 69.8835129,70.3389643 C70.2485076,70.0993794 71.0702619,69.7049208 71.3063356,69.3367545 C71.5913881,68.8918993 71.5078803,68.8261686 70.9799984,68.5383563 C70.3299512,68.1826255 69.4070493,68.0686675 68.6864426,67.9810017 C65.9558314,67.6442514 63.2098322,68.2089177 60.5599139,68.8188569 C57.7457949,69.4638586 54.9367426,70.1373592 52.1263767,70.8006309 C50.1398294,71.2703197 47.3865115,71.9452602 48.1891247,74.5705773 C48.7997638,76.5640201 49.9799448,78.1580114 49.4381762,80.3397449 C49.0930732,81.7314017 48.4295146,83.0323634 48.0609543,84.4238333 C47.6672479,85.9104863 47.4276086,87.4311734 47.3534837,88.9681296 C47.2296295,91.5358319 48.2653138,94.5482211 46.3177993,96.6366414 C45.3918949,97.6299874 44.1479101,98.385282 43.06381,99.1933106 C41.8556679,100.091099 40.6477135,100.990197 39.4388208,101.889482 C36.9523526,103.74116 34.4651338,105.592277 31.9786656,107.445451 C31.0103504,108.165589 30.0743124,106.542613 31.0315558,105.82958 C33.3487565,104.104315 35.6659572,102.37961 37.9837209,100.65341 C40.1682474,99.0266933 42.5697065,97.5138602 44.597351,95.6965904 C45.8617905,94.5628071 45.6176474,93.2487554 45.5084305,91.7110512 C45.4087841,90.3070524 45.4373081,88.8929554 45.5949408,87.4947536 C45.7298669,86.2902841 45.9424834,85.0974086 46.2517437,83.9264122 C46.6021012,82.5970265 47.232632,81.355157 47.5799869,80.0330642 C48.1891247,77.7144465 46.1447787,75.8912675 46.131455,73.613659 C46.1190695,71.6202162 47.6137653,70.3243596 49.3481004,69.650859 C51.9019378,68.6581488 54.7740431,68.2578557 57.4357839,67.6311053 C60.0716278,67.0102079 62.7136645,66.320644 65.4193172,66.0883521 C67.5955868,65.9013517 70.8934881,65.8268508 72.6360801,67.4090423 C73.2290793,67.9452098 73.6021433,68.7268153 73.3852107,69.5332545 C73.1294329,70.4814025 72.1470434,71.059215 71.3913447,71.5785712 C69.5198317,72.8656574 67.4424579,73.8919716 65.7227602,75.3879747 C63.8073352,77.0541481 62.9240291,79.1003063 62.8317014,81.6283645 C62.7245487,84.5700676 63.0360609,87.5560897 63.177555,90.4955487 C63.3190491,93.4466018 63.4612939,96.3978419 63.602788,99.3503909 C63.7332103,102.06545 63.8131526,104.635209 62.7099113,107.180284 C61.7365294,109.425785 60.2652909,111.449129 58.742634,113.35485 C56.901334,115.658881 54.8348443,117.773482 52.7413319,119.84956 C51.6900719,120.892648 50.6286784,121.924703 49.5811716,122.972279 C48.5233436,124.028458 47.339597,125.072294 46.4878175,126.306122 C45.5414583,127.677209 45.5134972,129.180505 45.4819707,130.786839 C45.4498812,132.451516 45.4189176,134.115632 45.3873911,135.779562 C45.3245257,139.108356 45.260722,142.438645 45.1976689,145.767252 C45.1749623,146.969665 43.2983825,146.973405 43.3210891,145.767252 L43.3210891,145.767252" id="path469" transform="translate(52.0392, 106.331) scale(-1, 1) rotate(-180) translate(-52.0392, -106.331)"></path>
            <path d="M22.6888451,50.1506247 C26.3042637,50.4997544 29.5640704,48.9029581 32.5292541,47.0088312 C35.7201904,44.9722101 38.7754499,42.7055784 41.8768733,40.5384309 C42.8680827,39.8465295 43.8071233,41.4681969 42.8247337,42.1541143 C39.5386549,44.450666 36.310187,46.886907 32.8949995,48.9891653 C29.8286682,50.8759992 26.3680674,52.3755553 22.6888451,52.0206285 C21.4977799,51.9045013 21.4852068,50.0322535 22.6888451,50.1506247 L22.6888451,50.1506247" id="path470" transform="translate(32.5157, 46.2216) scale(-1, 1) rotate(-180) translate(-32.5157, -46.2216)"></path>
            <path d="M28.5685448,36.0945385 C31.9728482,34.2222907 35.3353039,32.1710834 38.8392536,30.489576 C41.6599407,29.1360672 44.5496859,28.8965197 47.3827584,30.3573667 C50.2518612,31.8365398 52.212887,34.4751152 53.7815201,37.2070038 C55.5972987,40.3691803 57.2428715,43.4262626 59.6032335,46.2393094 C63.4378366,50.8077287 69.1114879,57.5432956 65.396423,63.8341755 C64.0315865,66.1453133 60.9190913,67.5362221 58.5022442,65.8685527 C57.9995085,65.520732 57.6300099,65.045938 57.2774006,64.55581 C57.0751053,64.2730654 56.8889485,63.8940156 56.6160938,63.6712982 C56.094217,63.2468073 55.7915247,63.4184737 55.2681466,63.6507281 C54.1129241,64.1591822 53.1986544,63.7143083 52.6870988,62.5586459 C52.3609492,61.8239214 52.3382426,60.9955097 52.184926,60.2131001 C52.0265427,59.4017054 51.8214325,58.5996607 51.5722227,57.8107061 C51.0435902,56.1385487 50.3047807,54.5439964 49.3920123,53.0457493 C47.5265044,49.98287 44.9403898,47.4321848 41.853416,45.599394 C40.816981,44.9858458 41.7595871,43.3684795 42.8005259,43.9857677 C47.4231048,46.7286894 50.976221,50.9793951 52.9121007,55.9764194 C53.3812456,57.1876208 53.7462404,58.4410844 53.9948872,59.716427 C54.1026029,60.2658342 54.1296256,60.8472184 54.2683049,61.3913895 C54.2938264,61.4848897 54.3195355,61.5806339 54.3452447,61.6741341 C54.4229351,62.0240118 54.4794201,62.0911449 54.5145121,61.8757205 C54.7652232,61.8669315 55.2101603,61.4775967 55.5289912,61.4286026 C56.6564403,61.2569362 57.6482127,61.9450976 58.3102701,62.7923964 C59.2271669,63.9648888 59.9412055,65.054727 61.6396979,64.6289271 C64.7961051,63.8341755 64.9434166,59.4484555 64.2779814,56.9596674 C63.4231993,53.7660748 61.3163632,51.1611595 59.2213495,48.6791034 C57.2004608,46.2860594 55.3259452,43.8900235 53.8079799,41.1435489 C52.3748359,38.5496666 51.0685487,35.7914109 48.8825209,33.7271136 C47.7441876,32.6496174 46.3829167,31.7598696 44.8508769,31.3647378 C43.0835141,30.9103269 41.3953429,31.3391187 39.7863634,32.1039503 C36.2780975,33.7738637 32.9184568,35.838161 29.5156546,37.7096608 C28.4580143,38.291793 27.5101538,36.6774187 28.5685448,36.0945385 L28.5685448,36.0945385" id="path471" transform="translate(47.3563, 47.9825) scale(-1, 1) rotate(-180) translate(-47.3563, -47.9825)"></path>
            <path d="M47.8102432,18.6445346 C42.1189521,20.9951294 38.4639377,26.7569853 38.7645657,32.8791909 C39.0700729,39.0990106 43.4096637,44.149517 49.0373388,46.4928188 C54.9836571,48.9685169 62.1030254,48.4286468 67.2906426,44.4958417 C72.3947519,40.6264298 74.4831976,34.1603305 73.5852541,27.9352747 C72.6565348,21.4947945 67.3332409,14.2331955 60.0247133,15.3946549 C58.8439693,15.5816553 58.3352286,13.7810286 59.5262938,13.5902882 C66.5069829,12.4815629 72.4322835,17.8015369 74.5837822,24.0886768 C76.8839061,30.8076006 75.5637322,38.9062132 70.5600199,44.0846279 C65.4970076,49.3219476 57.7626841,51.0122441 50.8148351,49.0751071 C44.1516633,47.2168843 38.3290116,42.0216396 37.1311907,35.0332483 C35.8036982,27.2976034 40.0774209,19.82993 47.3108854,16.8424119 C48.4251984,16.382204 48.9112326,18.1901237 47.8102432,18.6445346 L47.8102432,18.6445346" id="path472" transform="translate(56.2842, 31.6478) scale(-1, 1) rotate(-180) translate(-56.2842, -31.6478)"></path>
            <path d="M44.0159866,42.4774331 C47.2450174,41.6301343 49.6962059,38.7112453 53.2127288,38.7894115 C56.4556463,38.8608456 59.0616526,41.3518778 60.4756555,44.0802134 C62.3683738,47.7340139 62.2452702,51.9860286 63.5902149,55.8144875 C63.9223695,56.7625794 64.3108216,57.5829501 65.1941277,58.1314222 C65.9447596,58.5946222 66.798791,58.8882128 67.5736308,59.3147607 C69.0103403,60.1022193 70.3504059,61.1211844 71.4572127,62.3293939 C73.912905,65.0109794 75.127615,68.5187326 74.7273406,72.137564 C74.5969183,73.3209024 72.7188372,73.3339925 72.8507608,72.137564 C73.1909847,69.0666437 72.313496,66.0935246 70.2404383,63.7728498 C69.2105714,62.6171875 67.9827252,61.6728355 66.626521,60.928387 C65.2990285,60.1994595 63.7778729,59.7633746 62.8382694,58.501122 C61.8588824,57.1848263 61.4512893,55.4214127 61.1001812,53.8509834 C60.679452,51.9749956 60.4279903,50.0642257 59.9676653,48.1955308 C59.2258533,45.1889386 57.5303635,41.6600544 54.2382796,40.8039666 C50.7283248,39.8908438 47.7207304,43.438802 44.5151568,44.2803038 C43.3460476,44.5864234 42.8474404,42.7843007 44.0159866,42.4774331 L44.0159866,42.4774331" id="path473" transform="translate(59.0763, 55.9089) scale(-1, 1) rotate(-180) translate(-59.0763, -55.9089)"></path>
            <path d="M26.5300162,33.5462464 C28.5077436,33.372523 30.5280694,33.815153 32.4149704,34.3688611 C34.3362128,34.9321062 36.1989059,35.6705708 38.0563445,36.4090353 C38.5269907,36.5960357 38.8568935,37.0336166 38.7116462,37.5594616 C38.5892932,38.0043356 38.031386,38.4002154 37.5579249,38.211906 C35.7567837,37.4953205 33.9513263,36.779296 32.0923863,36.2242789 C30.2949982,35.6874008 28.4184185,35.2498199 26.5300162,35.4162502 C25.3271286,35.5230275 25.3344472,33.6507796 26.5300162,33.5462464 L26.5300162,33.5462464" id="path474" transform="translate(32.1884, 35.884) scale(-1, 1) rotate(-180) translate(-32.1884, -35.884)"></path>
            <path d="M33.1398932,24.908102 C34.5062309,23.8160198 35.3925395,22.1739694 36.1409195,20.6276632 C36.9150087,19.028623 37.5549224,17.3345865 37.9360558,15.5990359 C38.1935225,14.4229905 40.003296,14.9204115 39.7452663,16.0949609 C39.3303545,17.9890878 38.6046811,19.8306676 37.7617215,21.5720152 C36.9502884,23.2456686 35.9451923,25.0483523 34.4666351,26.2303818 C34.071615,26.5458514 33.5255303,26.6152286 33.1398932,26.2303818 C32.8114917,25.9044401 32.7418706,25.2258157 33.1398932,24.908102 L33.1398932,24.908102" id="path475" transform="translate(36.3186, 20.7105) scale(-1, 1) rotate(-180) translate(-36.3186, -20.7105)"></path>
            <path d="M20.919418,35.1558245 C20.7647878,27.9621067 18.609536,21.0167254 14.922432,14.8472088 C14.302973,13.8114136 15.9245256,12.8691187 16.5424833,13.9034178 C20.3967905,20.3528741 22.6346119,27.6385961 22.7959978,35.1558245 C22.8215193,36.360294 20.9449395,36.360294 20.919418,35.1558245 L20.919418,35.1558245" id="path476" transform="translate(18.79, 24.7572) scale(-1, 1) rotate(-180) translate(-18.79, -24.7572)"></path>
            <path d="M43.2287614,45.4737425 C43.1685232,47.1099958 43.0373502,48.7441922 42.8343043,50.3694125 C42.7742537,50.8537435 42.4458523,51.3285375 41.8960144,51.3044145 C41.4392549,51.2840314 40.8924195,50.8894606 40.9577245,50.3694125 C41.1607705,48.7441922 41.2919434,47.1099958 41.3521816,45.4737425 C41.3696338,44.9858585 41.7714095,44.5148045 42.2904715,44.5387406 C42.7836366,44.5615546 43.2477148,44.9501414 43.2287614,45.4737425 L43.2287614,45.4737425" id="path477" transform="translate(42.0909, 47.9216) scale(-1, 1) rotate(-180) translate(-42.0909, -47.9216)"></path>
            <path d="M32.6487922,40.7468291 C33.6647725,40.5826428 34.6888221,40.4160254 35.6629547,40.0734407 C36.4274733,39.8045342 37.0461816,39.3875233 37.6348647,38.8541982 C38.881852,37.7228459 39.9586334,36.328384 41.4225533,35.4582712 C42.4619909,34.839674 43.4068488,36.4553573 42.3694755,37.0726455 C40.9650432,37.9083503 39.9278575,39.3590992 38.6765541,40.4270584 C37.0872787,41.7848682 35.1675376,42.2224491 33.1479625,42.5496998 C32.6480416,42.63011 32.1377996,42.4204825 31.9933029,41.8966945 C31.8701993,41.4503245 32.1458689,40.8272393 32.6487922,40.7468291 L32.6487922,40.7468291" id="path478" transform="translate(37.3916, 38.943) scale(-1, 1) rotate(-180) translate(-37.3916, -38.943)"></path>
        </g>
        <g transform="translate(100, 53)" fill="#D62725">
            <path d="M23.3718364,67.9504293 C19.1134676,67.9504293 15.4209631,67.1107597 12.2943229,65.4314204 C9.16768274,63.7520811 6.75927878,61.3597651 5.06911102,58.2544725 C3.37894327,55.1491798 2.5338594,51.4815808 2.5338594,47.2516753 C2.5338594,44.0984281 3.06847588,41.171805 4.13770886,38.4718061 C5.20694184,35.7718072 6.7026614,33.4172361 8.62486756,31.4080929 C10.5470737,29.3989497 12.7941336,27.8390329 15.3660473,26.7283424 C17.937961,25.6176519 20.7423772,25.0623066 23.7792959,25.0623066 C25.5075179,25.0623066 27.261883,25.2386558 29.042391,25.5913542 C30.822899,25.9440525 32.520492,26.4310238 34.1351699,27.052268 C35.7498479,27.6735121 37.1310952,28.4104661 38.2789118,29.2631299 L34.0344653,36.3440139 L32.9670886,36.3440139 L26.2379748,27.1784969 L32.1410319,27.1784969 L32.1410319,32.8532281 C30.4233289,30.0235971 27.5667814,28.6087816 23.5713895,28.6087816 C20.9137763,28.6087816 18.5612162,29.3458903 16.5137093,30.8201076 C14.4662024,32.294325 12.8563199,34.328683 11.6840619,36.9231818 C10.5118039,39.5176805 9.92567487,42.4982912 9.92567487,45.8650138 C9.92567487,49.3901413 10.5370187,52.505953 11.7597064,55.212449 C12.9823941,57.9189449 14.6864842,60.025699 16.8719766,61.5327111 C19.057469,63.0397232 21.5848313,63.7932292 24.4540636,63.7932292 C26.9978233,63.7932292 29.2501427,63.2547454 31.211022,62.1777778 C33.1719012,61.1008103 34.9827289,59.4309072 36.6435051,57.1680686 L38.7652643,58.366315 C37.1737902,61.3976647 35.0390369,63.7528545 32.3610043,65.4318845 C29.6829717,67.1109144 26.6865824,67.9504293 23.3718364,67.9504293 Z" id="Path" fill-rule="nonzero"></path>
            <path d="M56.6101997,67.7555171 C53.6302078,67.7555171 50.9975,67.1317978 48.7120764,65.8843593 C46.4266528,64.6369209 44.6442885,62.8991079 43.3649834,60.6709204 C42.0856783,58.442733 41.4460258,55.8779351 41.4460258,52.9765269 C41.4460258,49.9309454 42.1172355,47.2536863 43.4596551,44.9447495 C44.8020746,42.6358126 46.6555974,40.8208082 49.0202234,39.4997362 C51.3848495,38.1786642 54.0949034,37.5181283 57.1503851,37.5181283 C60.162553,37.5181283 62.8050064,38.1418475 65.0777452,39.389286 C67.3504841,40.6367244 69.1248044,42.3664934 70.4007063,44.5785929 C71.6766081,46.7906924 72.314559,49.3635342 72.314559,52.2971184 C72.314559,55.3024799 71.6433493,57.969684 70.3009297,60.2987308 C68.9585102,62.6277777 67.1148877,64.4528371 64.7700623,65.7739091 C62.4252369,67.0949811 59.7052827,67.7555171 56.6101997,67.7555171 Z M57.2682606,64.3770379 C58.9364621,64.3770379 60.3955196,63.9196128 61.6454331,63.0047627 C62.8953467,62.0899126 63.877952,60.8095247 64.593249,59.1635989 C65.3085461,57.5176732 65.6661946,55.6143395 65.6661946,53.4535978 C65.6661946,50.9098381 65.2851876,48.7039264 64.5231734,46.8358625 C63.7611593,44.9677986 62.6931639,43.5109068 61.3191871,42.4651871 C59.9452104,41.4194673 58.3362561,40.8966074 56.4923242,40.8966074 C54.831548,40.8966074 53.3741921,41.3540325 52.1202565,42.2688826 C50.866321,43.1837327 49.8818594,44.4639659 49.1668717,46.1095823 C48.451884,47.7551987 48.0943902,49.6583777 48.0943902,51.8191193 C48.0943902,54.330703 48.4752426,56.5285708 49.2369473,58.4127227 C49.998652,60.2968745 51.0666475,61.761965 52.4409336,62.8079942 C53.8152197,63.8540233 55.4243287,64.3770379 57.2682606,64.3770379 Z" id="Shape" fill-rule="nonzero"></path>
            <path d="M76.7222192,67 L76.7222192,66.1256793 L81.9078135,61.8942269 L80.9573842,63.5574782 L80.9573842,43.8629864 L83.511663,47.7658724 L76.6637455,42.4132105 L76.6637455,41.4265832 L85.7605792,37.9710672 L87.233559,37.9710672 L86.9152023,44.0087066 L87.2660444,44.0087066 L87.2660444,63.6549343 L86.3638791,62.0455159 L93.2832643,66.1256793 L93.2832643,67 L76.7222192,67 Z M86.7704103,47.854047 L86.3750169,44.0087066 L87.2122115,44.0087066 C88.3210457,41.9964695 89.7466896,40.4079346 91.4891434,39.2431018 C93.2315971,38.078269 95.0334527,37.4958526 96.8947101,37.4958526 C98.3055036,37.4958526 99.6355477,37.7226314 100.884843,38.1761892 L97.4794469,47.2349686 L96.3897945,47.2349686 L90.9350357,41.5732314 L96.1846726,43.074984 C94.1575851,43.074984 92.3077749,43.4976033 90.635242,44.3428419 C88.9627092,45.1880804 87.674432,46.3584821 86.7704103,47.854047 Z" id="Shape" fill-rule="nonzero"></path>
            <path d="M115.074049,67.7555171 C113.587766,67.7555171 112.066213,67.6088688 110.50939,67.3155722 C108.952567,67.0222757 107.473244,66.6217774 106.071423,66.1140774 C104.669602,65.6063773 103.426959,64.9905474 102.343494,64.2665876 L105.458378,57.7425957 L106.54803,57.7425957 L112.336924,65.8917846 L107.971818,65.8917846 L107.680377,61.2667951 C108.624,62.4189431 109.730205,63.2677396 110.998991,63.8131845 C112.267777,64.3586295 113.744624,64.6313519 115.429532,64.6313519 C117.454144,64.6313519 119.088004,64.1988324 120.331111,63.3337932 C121.574218,62.468754 122.195772,61.3463069 122.195772,59.9664518 C122.195772,58.8143038 121.75196,57.9070336 120.864335,57.2446413 C119.976711,56.582249 118.841734,56.0395885 117.459404,55.6166599 C116.077074,55.1937312 114.607343,54.7851889 113.05021,54.391033 C111.493078,53.9968771 110.023192,53.4839175 108.640552,52.8521543 C107.257913,52.2203911 106.122936,51.3790198 105.235621,50.3280405 C104.348306,49.2770612 103.904648,47.8769415 103.904648,46.1276813 C103.904648,43.4576927 105.011317,41.35527 107.224654,39.8204133 C109.437991,38.2855566 112.449849,37.5181283 116.260229,37.5181283 C117.627709,37.5181283 118.996272,37.6369319 120.365917,37.8745392 C121.735562,38.1121466 123.063595,38.448757 124.350016,38.8843704 C125.636437,39.3199838 126.794464,39.8508877 127.824095,40.477082 L124.709212,46.9685885 L123.61956,46.9685885 L117.392577,38.8945801 L122.195772,38.8945801 L122.48814,43.5195696 C121.770987,42.6198793 120.805862,41.9154107 119.592765,41.4061638 C118.379668,40.8969168 117.121865,40.6422934 115.819356,40.6422934 C113.974806,40.6422934 112.512964,40.9864837 111.433831,41.6748643 C110.354697,42.3632449 109.815131,43.2909344 109.815131,44.4579329 C109.815131,45.6106997 110.258788,46.5119369 111.146103,47.1616444 C112.033418,47.811352 113.170097,48.343184 114.556139,48.7571405 C115.942182,49.171097 117.41377,49.5768548 118.970902,49.974414 C120.528034,50.3719731 121.999622,50.8864796 123.385665,51.5179335 C124.771708,52.1493873 125.908541,52.9952446 126.796165,54.0555055 C127.68379,55.1157663 128.127602,56.5298083 128.127602,58.2976316 C128.127602,61.3277438 126.999276,63.6615861 124.742625,65.2991585 C122.485975,66.9367309 119.263116,67.7555171 115.074049,67.7555171 Z" id="Path" fill-rule="nonzero"></path>
            <path d="M132.501631,67 L132.501631,66.1089725 L137.66959,61.8914424 L136.719161,63.5546937 L136.719161,43.8332855 L139.27344,47.6944046 L132.442229,42.4076415 L132.442229,41.3978104 L141.530709,37.9525041 L143.015755,37.9525041 L143.015755,63.6734974 L142.124728,61.9508443 L147.233285,66.1089725 L147.233285,67 L132.501631,67 Z M139.986262,33.7349741 C138.600219,33.7349741 137.491385,33.3389619 136.659759,32.5469374 C135.828133,31.754913 135.412321,30.7252813 135.412321,29.4580422 C135.412321,28.2304043 135.828133,27.2205732 136.659759,26.4285487 C137.491385,25.6365243 138.600219,25.2405121 139.986262,25.2405121 C141.332703,25.2405121 142.421737,25.6365243 143.253362,26.4285487 C144.084988,27.2205732 144.500801,28.2304043 144.500801,29.4580422 C144.500801,30.7252813 144.084988,31.754913 143.253362,32.5469374 C142.421737,33.3389619 141.332703,33.7349741 139.986262,33.7349741 Z" id="Shape" fill-rule="nonzero"></path>
        </g>
    </g>
</svg>